<svg width="512" height="512" viewBox="0 0 512 512" fill="none" xmlns="http://www.w3.org/2000/svg">
<path d="M348.71 96.6571V100.267L335.99 106.757L323.26 100.267V94.6571C323.26 84.0671 314.68 75.4771 304.08 75.4771H288.69C280.52 75.4771 273.89 82.1071 273.89 90.2871V110.517C273.89 113.767 271.25 116.407 268 116.407H222.44C219.19 116.407 216.55 113.767 216.55 110.517V106.757C216.55 98.5871 209.92 91.9571 201.75 91.9571H186.36V48.3071H201.75C208.49 48.3071 214.18 43.7971 215.97 37.6371C216.69 35.1671 219 33.4971 221.58 33.4971H285.55C320.43 33.4971 348.71 61.7771 348.71 96.6571Z" fill="#8298FD"/>
<path d="M323.264 100.266V118.963C323.264 129.768 332.023 138.527 342.828 138.527C346.078 138.527 348.713 135.892 348.713 132.642V100.266H323.264Z" fill="#FF5BA7"/>
<path d="M190.54 39.3871V100.877C190.54 104.127 187.91 106.757 184.66 106.757H160.17C156.92 106.757 154.28 104.127 154.28 100.877V86.8771L164.1 70.1271L154.28 53.3871V39.3871C154.28 36.1371 156.92 33.4971 160.17 33.4971H184.66C187.91 33.4971 190.54 36.1371 190.54 39.3871Z" fill="#B6C4FF"/>
<path d="M184.659 92.762H160.166C156.916 92.762 154.281 90.127 154.281 86.877V53.384C154.281 50.134 156.916 47.499 160.166 47.499H184.659C187.909 47.499 190.544 50.134 190.544 53.384V86.877C190.544 90.127 187.909 92.762 184.659 92.762Z" fill="#D1DDFF"/>
<path d="M265.13 140.397V164.487H225.31V140.397L245.22 134.627L265.13 140.397Z" fill="#D1DDFF"/>
<path d="M225.31 116.4H265.13V140.4H225.31V116.4Z" fill="#B6C4FF"/>
<path d="M272.96 204.397V271.807H217.48V204.397L243.02 191.697L272.96 204.397Z" fill="#01EBA4"/>
<path d="M217.48 175.52H272.96V204.4H217.48V175.52Z" fill="#00D78F"/>
<path d="M371.199 328.877C364.296 328.877 358.699 323.281 358.699 316.377V214.181C358.699 195.555 343.545 180.401 324.919 180.401H109.416C102.512 180.401 96.916 174.804 96.916 167.901C96.916 160.998 102.512 155.401 109.416 155.401H324.918C357.33 155.401 383.698 181.77 383.698 214.181V316.377C383.699 323.281 378.103 328.877 371.199 328.877Z" fill="#FD2C8E"/>
<path d="M339.068 157.134L317.031 179.171C316.635 179.567 316.267 179.979 315.919 180.402H324.918C340.656 180.402 353.914 191.221 357.647 205.812L376.823 186.636C369.08 172.102 355.416 161.19 339.068 157.134Z" fill="#DA237A"/>
<path d="M400.35 306.377V370.887H70.73V318.167L75.75 311.917L70.73 308.057V284.507L70.88 284.297L74.38 278.327L70.73 274.297V248.757L75.1 244.027L70.73 238.247V203.247L73.9 198.027L70.73 180.027V153.517C70.73 147.997 75.21 143.517 80.73 143.517H99.13C104.44 143.517 109.52 145.627 113.27 149.377L138.66 174.767L136.96 180.027L147.74 183.847L170.43 206.537V213.337L179.44 215.547L224.48 260.587L256 304.187L278.21 296.377H390.35C395.87 296.377 400.35 300.857 400.35 306.377Z" fill="#FF5BA7"/>
<path d="M182.178 370.892H203.7L278.215 296.377H268.556C263.252 296.377 258.165 294.27 254.414 290.519L224.482 260.587L148.178 336.891C159.511 348.225 170.844 359.558 182.178 370.892Z" fill="#FD2C8E"/>
<path d="M157.53 315.607C155.54 319.767 150.33 323.737 129.62 323.737C124.05 323.737 117.35 323.457 109.3 322.807C91.77 321.387 74.59 318.767 70.73 318.167V308.057C71.02 308.087 71.28 308.127 71.53 308.167C71.71 308.197 89.57 311.087 108.34 312.687C138.16 315.227 146.2 312.487 148.12 311.437C147.75 310.797 146.9 309.627 144.94 307.877C117.52 283.207 71.34 284.287 70.88 284.297H70.73V274.297C74.4 274.207 121.74 273.547 151.63 300.437C157.74 305.937 159.73 311.037 157.53 315.607Z" fill="#FD2C8E"/>
<path d="M377.34 344.997C376.35 346.207 374.91 346.837 373.46 346.837C372.35 346.837 371.23 346.467 370.3 345.707C342.46 322.927 313.89 323.047 283.64 323.177C254.82 323.297 225 323.417 192.26 305.347C126.37 268.987 79.71 251.907 70.73 248.757V238.247C71.34 238.417 71.88 238.587 72.3 238.727C72.8 238.887 123.05 255.737 197.09 296.597C227.56 313.407 256.04 313.287 283.6 313.177C315.69 313.037 346.01 312.907 376.63 337.967C378.77 339.717 379.09 342.867 377.34 344.997Z" fill="#FD2C8E"/>
<path d="M179.44 215.547C177.83 215.937 176.38 216.177 175.54 216.237C175.17 216.267 169.48 216.697 161.6 216.697C157.21 216.697 152.15 216.567 146.95 216.157C125.56 214.467 113.41 209.127 109.8 199.837C107.41 193.667 109.06 189.117 110.86 186.387C116.36 178.067 131.04 175.527 138.66 174.767L147.74 183.847C145.89 184.197 144.3 184.407 143.5 184.437C135.27 184.717 122.29 187.217 119.2 191.897C118.69 192.677 118.21 193.877 119.12 196.217C122.57 205.087 150.28 207.517 170.43 206.537L179.44 215.547Z" fill="#FD2C8E"/>
<path d="M238.31 279.717C238.21 280.917 237.7 282.067 236.76 282.947C235.79 283.857 234.56 284.307 233.33 284.307C232 284.307 230.67 283.777 229.69 282.727C229.45 282.467 203.33 255.707 133.83 240.377C94.84 231.787 77.86 214.447 70.73 203.247V180.027C73.04 184.047 75.21 189.017 75.58 190.497C75.9 191.727 83.6 219.067 135.98 230.617C193.67 243.337 222.6 263.527 232.72 271.987L238.31 279.717Z" fill="#FD2C8E"/>
<path d="M307.81 240.707C307.81 241.987 307.32 243.267 306.35 244.237L181.13 369.457C180.15 370.437 178.87 370.927 177.59 370.927L177.6 370.917L167.16 346.837L134.91 328.237C134.91 326.957 135.4 325.677 136.37 324.697L261.59 199.477C262.57 198.497 263.86 198.007 265.14 198.017L265.13 198.027L280.23 223.667L307.81 240.707Z" fill="#9EAFFD"/>
<path d="M281.646 240.72L177.654 344.712L161.18 328.237L265.172 224.245L281.646 240.72Z" fill="#D1DDFF"/>
<path d="M307.808 240.706H281.603L265.127 224.23V198.025C266.4 198.011 267.687 198.506 268.662 199.482L306.351 237.171C307.327 238.147 307.822 239.434 307.808 240.706Z" fill="#8298FD"/>
<path d="M177.596 370.919L177.589 370.926C176.316 370.926 175.036 370.438 174.06 369.462L136.371 331.773C135.395 330.797 134.907 329.517 134.907 328.245L134.914 328.238H161.119L177.595 344.714L177.596 370.919Z" fill="#8298FD"/>
<path d="M308.701 181.69L324.075 197.064L295.184 225.955L279.81 210.581L308.701 181.69Z" fill="#6582FD"/>
<path d="M335.104 204.355L326.797 212.662C324.844 214.615 321.679 214.615 319.726 212.662L293.169 186.105C291.216 184.152 291.216 180.987 293.169 179.034L301.476 170.727C303.429 168.774 306.594 168.774 308.547 170.727L335.104 197.284C337.056 199.236 337.056 202.402 335.104 204.355Z" fill="#02FFB2"/>
<path d="M414.84 124.617V124.627L407.1 132.357L400.55 132.877L400.03 139.437L395.83 143.637H395.82L389.92 143.517L388.75 150.707L350.66 188.797C344.02 195.437 333.26 195.437 326.62 188.797L317.03 179.207C310.39 172.577 310.39 161.807 317.03 155.167L381.21 90.9971L411.18 95.5671L414.84 124.617Z" fill="#01EBA4"/>
<path d="M420.573 96.5891L333.157 184.005C330.028 187.134 324.954 187.134 321.825 184.005C318.696 180.876 318.696 175.802 321.825 172.673L409.241 85.2572C412.37 82.1282 417.444 82.1282 420.573 85.2572C423.702 88.3862 423.702 93.4601 420.573 96.5891Z" fill="#02FFB2"/>
<path d="M383.276 131.095C381.325 129.143 378.157 129.143 376.206 131.095C374.253 133.048 374.253 136.214 376.206 138.166L388.749 150.709L395.819 143.638L383.276 131.095Z" fill="#DBFCED"/>
<path d="M402.531 127.796C400.578 125.843 397.413 125.843 395.46 127.796C393.508 129.749 393.508 132.914 395.461 134.867L400.026 139.432L407.096 132.361L402.531 127.796Z" fill="#96FFD1"/>
<path d="M415.782 80.4641L425.37 90.0521C432.003 96.6851 432.01 107.454 425.37 114.094L414.841 124.623L381.211 90.9931L391.74 80.4641C398.381 73.8241 409.143 73.8241 415.782 80.4641Z" fill="#FF7EB7"/>
<path d="M420.577 85.2581C422.14 86.8211 422.918 88.8711 422.918 90.9221C422.918 92.9731 422.14 95.0231 420.577 96.5861L403.691 113.472L392.356 102.137L409.242 85.2511C412.367 82.1251 417.444 82.1251 420.577 85.2581Z" fill="#FFA7CE"/>
<path d="M461.85 364.707L457.73 370.147L461.85 374.737V387.517L461.76 387.577L457.73 393.177L461.85 397.577V412.857L457.73 416.857L461.85 423.027V445.077C461.85 450.597 457.37 455.077 451.85 455.077H426.98L419.88 452.447L414.13 455.077H287.19L281.04 452.447L269.49 455.077H60.15C54.63 455.077 50.15 450.597 50.15 445.077V432.767L52.88 427.887L50.15 422.697V400.967L55.05 395.517L50.15 390.597V351.837C50.15 346.317 54.63 341.837 60.15 341.837H92.25L116.9 345.737L119.86 341.837H171.49C176.27 341.837 180.87 343.557 184.51 346.657C193.68 354.477 213.39 369.067 232.85 369.067C245.76 369.067 250.92 362.637 261.01 356.027L269.49 355.167L271.55 350.297C280.88 346.207 294.01 342.847 314.63 342.027H314.64L333.39 344.367L336.73 341.837H451.85C457.37 341.837 461.85 346.317 461.85 351.837V364.707Z" fill="#FF7EB7"/>
<path d="M426.98 455.077H414.13C395.28 435.167 367.65 429.447 331.92 438.077C313.01 442.637 296.43 450.297 287.19 455.077H269.49C271.33 453.107 273.25 451.397 274.22 450.807C275.22 450.197 299.03 435.777 329.34 428.407C370.43 418.417 403.39 426.527 424.65 451.857C425.2 452.517 426.09 453.697 426.98 455.077Z" fill="#FF5BA7"/>
<path d="M202.65 413.567C193.71 417.677 180.95 419.267 166.55 419.267C121.44 419.267 60.28 403.657 50.15 400.967V390.597C50.65 390.747 51.09 390.877 51.45 390.977C51.73 391.057 79.88 398.607 112.18 403.967C154.2 410.937 184.05 411.117 198.48 404.487C200.07 403.747 203.78 401.817 203.68 399.777C203.59 397.967 200.81 387.857 154.56 366.917C129.35 355.497 103.9 346.647 103.64 346.557C101.42 345.787 96.98 343.957 92.25 341.837H119.86C129.81 345.587 144.26 351.267 158.63 357.777C207.22 379.777 213.31 392.007 213.67 399.287C213.87 403.397 212.12 409.217 202.65 413.567Z" fill="#FF5BA7"/>
<path d="M461.85 412.857V423.027C461.41 423.027 460.97 422.967 460.52 422.847C459.43 422.547 350.73 393.177 260.99 422.777C220.39 436.177 175.12 439.607 139.38 439.607C132.54 439.607 126.05 439.487 120.01 439.277C83.22 438.027 55.35 433.637 50.15 432.767V422.697C50.44 422.697 50.73 422.727 51.02 422.777C52.18 422.977 167.87 442.967 257.86 413.287C284.63 404.457 330.28 395.267 395.73 401.637C430.43 405.027 455.83 411.287 461.85 412.857Z" fill="#FF5BA7"/>
<path d="M461.85 387.577V397.577C461.63 397.577 461.02 397.587 460.08 397.587C445.08 397.587 342.86 396.117 263.65 357.617C263.09 357.347 262.14 356.777 261.01 356.027C263.98 354.087 267.39 352.117 271.55 350.297C354.16 388.957 460.68 387.597 461.76 387.577H461.85Z" fill="#FF5BA7"/>
<path d="M461.85 364.707V374.737C455.04 375.567 448.19 375.937 441.39 375.937C381.83 375.937 325.06 347.637 322.41 346.297C321.51 345.847 318.3 344.147 314.63 342.027C317.79 341.907 321.13 341.837 324.66 341.837H336.73C358.29 351.067 411.8 370.917 461.23 364.747C461.44 364.717 461.64 364.707 461.85 364.707Z" fill="#FF5BA7"/>
<path d="M120.421 393.161C115.572 393.161 110.132 392.535 104.61 391.318C96.896 389.619 89.808 386.942 84.652 383.78C76.129 378.552 75.218 373.466 75.956 370.119C78.116 360.31 95.044 359.435 110.865 362.92C118.58 364.619 125.668 367.296 130.823 370.459C139.345 375.686 140.257 380.772 139.519 384.119C138.783 387.465 135.82 391.699 125.889 392.863C124.182 393.062 122.348 393.161 120.421 393.161ZM86.202 372.377C88.049 374.537 94.823 378.924 106.761 381.553C118.699 384.181 126.69 383.046 129.274 381.863C127.426 379.704 120.653 375.316 108.714 372.687C96.775 370.058 88.786 371.194 86.202 372.377Z" fill="#FF5BA7"/>
<path d="M97.065 173.016C94.304 173.016 92.065 170.777 92.065 168.016V167.901C92.065 165.14 94.304 162.901 97.065 162.901C99.826 162.901 102.065 165.14 102.065 167.901V168.016C102.065 170.777 99.827 173.016 97.065 173.016Z" fill="#FFA7CE"/>
<path d="M371.199 323.744C368.437 323.744 366.199 321.505 366.199 318.744V318.629C366.199 315.868 368.437 313.629 371.199 313.629C373.961 313.629 376.199 315.868 376.199 318.629V318.744C376.199 321.506 373.961 323.744 371.199 323.744Z" fill="#FFA7CE"/>
<path d="M253.629 100.568H235.539C232.778 100.568 230.539 98.3291 230.539 95.5681C230.539 92.8071 232.778 90.5681 235.539 90.5681H253.629C256.39 90.5681 258.629 92.8071 258.629 95.5681C258.629 98.3291 256.39 100.568 253.629 100.568Z" fill="#6582FD"/>
<path d="M446.133 317.902C438.958 317.902 433.12 312.065 433.12 304.89C433.12 297.715 438.958 291.878 446.133 291.878C453.308 291.878 459.145 297.715 459.145 304.89C459.145 312.065 453.308 317.902 446.133 317.902ZM446.133 301.878C444.472 301.878 443.12 303.229 443.12 304.89C443.12 306.551 444.472 307.902 446.133 307.902C447.794 307.902 449.145 306.551 449.145 304.89C449.145 303.229 447.794 301.878 446.133 301.878Z" fill="#01EBA4"/>
<path d="M70.73 67.086C63.555 67.086 57.718 61.249 57.718 54.074C57.718 46.899 63.555 41.062 70.73 41.062C77.905 41.062 83.742 46.899 83.742 54.074C83.742 61.249 77.905 67.086 70.73 67.086ZM70.73 51.062C69.069 51.062 67.718 52.413 67.718 54.074C67.718 55.735 69.069 57.086 70.73 57.086C72.391 57.086 73.742 55.735 73.742 54.074C73.742 52.413 72.391 51.062 70.73 51.062Z" fill="#FF7EB7"/>
<path d="M379.119 55.5271C376.357 55.5271 374.119 53.2881 374.119 50.5271C374.119 47.4941 371.651 45.0271 368.619 45.0271C365.857 45.0271 363.619 42.7881 363.619 40.0271C363.619 37.2661 365.857 35.0271 368.619 35.0271C371.651 35.0271 374.119 32.5601 374.119 29.5271C374.119 26.7661 376.357 24.5271 379.119 24.5271C381.881 24.5271 384.119 26.7661 384.119 29.5271C384.119 32.5601 386.587 35.0271 389.619 35.0271C392.381 35.0271 394.619 37.2661 394.619 40.0271C394.619 42.7881 392.381 45.0271 389.619 45.0271C386.587 45.0271 384.119 47.4941 384.119 50.5271C384.119 53.2881 381.881 55.5271 379.119 55.5271Z" fill="#8298FD"/>
<path d="M105.081 114.976C102.32 114.976 100.081 112.737 100.081 109.976C100.081 106.943 97.614 104.476 94.581 104.476C91.82 104.476 89.581 102.237 89.581 99.4761C89.581 96.7151 91.82 94.4761 94.581 94.4761C97.614 94.4761 100.081 92.0091 100.081 88.9761C100.081 86.2151 102.32 83.9761 105.081 83.9761C107.842 83.9761 110.081 86.2151 110.081 88.9761C110.081 92.0091 112.548 94.4761 115.581 94.4761C118.342 94.4761 120.581 96.7151 120.581 99.4761C120.581 102.237 118.342 104.476 115.581 104.476C112.548 104.476 110.081 106.943 110.081 109.976C110.081 112.738 107.842 114.976 105.081 114.976Z" fill="#8298FD"/>
<path d="M430.348 206.734C427.586 206.734 425.348 204.495 425.348 201.734C425.348 198.701 422.88 196.234 419.848 196.234C417.086 196.234 414.848 193.995 414.848 191.234C414.848 188.473 417.086 186.234 419.848 186.234C422.88 186.234 425.348 183.767 425.348 180.734C425.348 177.973 427.586 175.734 430.348 175.734C433.11 175.734 435.348 177.973 435.348 180.734C435.348 183.767 437.816 186.234 440.848 186.234C443.61 186.234 445.848 188.473 445.848 191.234C445.848 193.995 443.61 196.234 440.848 196.234C437.816 196.234 435.348 198.701 435.348 201.734C435.348 204.495 433.109 206.734 430.348 206.734Z" fill="#FF7EB7"/>
</svg>
