<svg width="512" height="512" viewBox="0 0 512 512" fill="none" xmlns="http://www.w3.org/2000/svg">
<path d="M73.7471 119.473C76.5091 119.473 78.7471 117.235 78.7471 114.473V102.057C78.7471 99.2954 76.5091 97.0574 73.7471 97.0574C70.9851 97.0574 68.7471 99.2954 68.7471 102.057V114.473C68.7471 117.234 70.9851 119.473 73.7471 119.473Z" fill="#FF9393"/>
<path d="M68.7471 154.397C68.7471 157.159 70.9851 159.397 73.7471 159.397C76.5091 159.397 78.7471 157.159 78.7471 154.397V141.981C78.7471 139.219 76.5091 136.981 73.7471 136.981C70.9851 136.981 68.7471 139.219 68.7471 141.981V154.397Z" fill="#FF9393"/>
<path d="M68.7471 194.321C68.7471 197.083 70.9851 199.321 73.7471 199.321C76.5091 199.321 78.7471 197.083 78.7471 194.321V181.905C78.7471 179.143 76.5091 176.905 73.7471 176.905C70.9851 176.905 68.7471 179.143 68.7471 181.905V194.321Z" fill="#FF9393"/>
<path d="M68.7471 234.246C68.7471 237.008 70.9851 239.246 73.7471 239.246C76.5091 239.246 78.7471 237.008 78.7471 234.246V221.83C78.7471 219.068 76.5091 216.83 73.7471 216.83C70.9851 216.83 68.7471 219.068 68.7471 221.83V234.246Z" fill="#FF9393"/>
<path d="M68.7471 274.17C68.7471 276.932 70.9851 279.17 73.7471 279.17C76.5091 279.17 78.7471 276.932 78.7471 274.17V261.754C78.7471 258.992 76.5091 256.754 73.7471 256.754C70.9851 256.754 68.7471 258.992 68.7471 261.754V274.17Z" fill="#FF9393"/>
<path d="M68.7471 314.095C68.7471 316.857 70.9851 319.095 73.7471 319.095C76.5091 319.095 78.7471 316.857 78.7471 314.095V301.679C78.7471 298.917 76.5091 296.679 73.7471 296.679C70.9851 296.679 68.7471 298.917 68.7471 301.679V314.095Z" fill="#FF9393"/>
<path d="M68.7471 354.019C68.7471 356.781 70.9851 359.019 73.7471 359.019C76.5091 359.019 78.7471 356.781 78.7471 354.019V341.603C78.7471 338.841 76.5091 336.603 73.7471 336.603C70.9851 336.603 68.7471 338.841 68.7471 341.603V354.019Z" fill="#FF9393"/>
<path d="M68.7471 393.943C68.7471 396.705 70.9851 398.943 73.7471 398.943C76.5091 398.943 78.7471 396.705 78.7471 393.943V381.527C78.7471 378.765 76.5091 376.527 73.7471 376.527C70.9851 376.527 68.7471 378.765 68.7471 381.527V393.943Z" fill="#FF9393"/>
<path d="M429.451 70.7473H433.253V74.5493C433.253 77.3113 435.491 79.5493 438.253 79.5493C441.015 79.5493 443.253 77.3113 443.253 74.5493V70.7473H459.939C462.701 70.7473 464.939 68.5093 464.939 65.7473C464.939 62.9853 462.701 60.7473 459.939 60.7473H443.253V44.0623C443.253 41.3003 441.015 39.0623 438.253 39.0623C435.491 39.0623 433.253 41.3003 433.253 44.0623V60.7483H429.451C426.689 60.7483 424.451 62.9863 424.451 65.7483C424.451 68.5103 426.689 70.7473 429.451 70.7473Z" fill="#FF9393"/>
<path d="M401.943 60.7473H389.527C386.765 60.7473 384.527 62.9853 384.527 65.7473C384.527 68.5093 386.765 70.7473 389.527 70.7473H401.943C404.705 70.7473 406.943 68.5093 406.943 65.7473C406.943 62.9853 404.705 60.7473 401.943 60.7473Z" fill="#FF9393"/>
<path d="M362.019 60.7473H349.603C346.841 60.7473 344.603 62.9853 344.603 65.7473C344.603 68.5093 346.841 70.7473 349.603 70.7473H362.019C364.781 70.7473 367.019 68.5093 367.019 65.7473C367.019 62.9853 364.78 60.7473 362.019 60.7473Z" fill="#FF9393"/>
<path d="M322.095 60.7473H309.679C306.917 60.7473 304.679 62.9853 304.679 65.7473C304.679 68.5093 306.917 70.7473 309.679 70.7473H322.095C324.857 70.7473 327.095 68.5093 327.095 65.7473C327.095 62.9853 324.856 60.7473 322.095 60.7473Z" fill="#FF9393"/>
<path d="M282.17 60.7473H269.754C266.992 60.7473 264.754 62.9853 264.754 65.7473C264.754 68.5093 266.992 70.7473 269.754 70.7473H282.17C284.932 70.7473 287.17 68.5093 287.17 65.7473C287.17 62.9853 284.932 60.7473 282.17 60.7473Z" fill="#FF9393"/>
<path d="M242.246 60.7473H229.83C227.068 60.7473 224.83 62.9853 224.83 65.7473C224.83 68.5093 227.068 70.7473 229.83 70.7473H242.246C245.008 70.7473 247.246 68.5093 247.246 65.7473C247.246 62.9853 245.008 60.7473 242.246 60.7473Z" fill="#FF9393"/>
<path d="M202.321 60.7473H189.905C187.143 60.7473 184.905 62.9853 184.905 65.7473C184.905 68.5093 187.143 70.7473 189.905 70.7473H202.321C205.083 70.7473 207.321 68.5093 207.321 65.7473C207.321 62.9853 205.083 60.7473 202.321 60.7473Z" fill="#FF9393"/>
<path d="M162.397 60.7473H149.981C147.219 60.7473 144.981 62.9853 144.981 65.7473C144.981 68.5093 147.219 70.7473 149.981 70.7473H162.397C165.159 70.7473 167.397 68.5093 167.397 65.7473C167.397 62.9853 165.159 60.7473 162.397 60.7473Z" fill="#FF9393"/>
<path d="M122.473 60.7473H110.057C107.295 60.7473 105.057 62.9853 105.057 65.7473C105.057 68.5093 107.295 70.7473 110.057 70.7473H122.473C125.235 70.7473 127.473 68.5093 127.473 65.7473C127.473 62.9853 125.234 60.7473 122.473 60.7473Z" fill="#FF9393"/>
<path d="M82.549 60.7473H78.747V44.0623C78.747 41.3003 76.509 39.0623 73.747 39.0623C70.985 39.0623 68.747 41.3003 68.747 44.0623V60.7483H52.062C49.3 60.7483 47.062 62.9863 47.062 65.7483C47.062 68.5103 49.3 70.7483 52.062 70.7483H68.748V74.5503C68.748 77.3123 70.986 79.5503 73.748 79.5503C76.51 79.5503 78.748 77.3123 78.748 74.5503V70.7483H82.55C85.312 70.7483 87.55 68.5103 87.55 65.7483C87.55 62.9863 85.311 60.7473 82.549 60.7473Z" fill="#FF9393"/>
<path d="M438.253 376.527C435.491 376.527 433.253 378.765 433.253 381.527V393.943C433.253 396.705 435.491 398.943 438.253 398.943C441.015 398.943 443.253 396.705 443.253 393.943V381.527C443.253 378.766 441.015 376.527 438.253 376.527Z" fill="#FF9393"/>
<path d="M443.253 341.603C443.253 338.841 441.015 336.603 438.253 336.603C435.491 336.603 433.253 338.841 433.253 341.603V354.019C433.253 356.781 435.491 359.019 438.253 359.019C441.015 359.019 443.253 356.781 443.253 354.019V341.603Z" fill="#FF9393"/>
<path d="M443.253 301.679C443.253 298.917 441.015 296.679 438.253 296.679C435.491 296.679 433.253 298.917 433.253 301.679V314.095C433.253 316.857 435.491 319.095 438.253 319.095C441.015 319.095 443.253 316.857 443.253 314.095V301.679Z" fill="#FF9393"/>
<path d="M443.253 261.754C443.253 258.992 441.015 256.754 438.253 256.754C435.491 256.754 433.253 258.992 433.253 261.754V274.17C433.253 276.932 435.491 279.17 438.253 279.17C441.015 279.17 443.253 276.932 443.253 274.17V261.754Z" fill="#FF9393"/>
<path d="M443.253 221.83C443.253 219.068 441.015 216.83 438.253 216.83C435.491 216.83 433.253 219.068 433.253 221.83V234.246C433.253 237.008 435.491 239.246 438.253 239.246C441.015 239.246 443.253 237.008 443.253 234.246V221.83Z" fill="#FF9393"/>
<path d="M443.253 181.905C443.253 179.143 441.015 176.905 438.253 176.905C435.491 176.905 433.253 179.143 433.253 181.905V194.321C433.253 197.083 435.491 199.321 438.253 199.321C441.015 199.321 443.253 197.083 443.253 194.321V181.905Z" fill="#FF9393"/>
<path d="M443.253 141.981C443.253 139.219 441.015 136.981 438.253 136.981C435.491 136.981 433.253 139.219 433.253 141.981V154.397C433.253 157.159 435.491 159.397 438.253 159.397C441.015 159.397 443.253 157.159 443.253 154.397V141.981Z" fill="#FF9393"/>
<path d="M443.253 102.057C443.253 99.2954 441.015 97.0574 438.253 97.0574C435.491 97.0574 433.253 99.2954 433.253 102.057V114.473C433.253 117.235 435.491 119.473 438.253 119.473C441.015 119.473 443.253 117.235 443.253 114.473V102.057Z" fill="#FF9393"/>
<path d="M82.549 425.253H78.747V421.451C78.747 418.689 76.509 416.451 73.747 416.451C70.985 416.451 68.747 418.689 68.747 421.451V425.253H52.062C49.3 425.253 47.062 427.491 47.062 430.253C47.062 433.015 49.3 435.253 52.062 435.253H68.748V451.939C68.748 454.701 70.986 456.939 73.748 456.939C76.51 456.939 78.748 454.701 78.748 451.939V435.253H82.55C85.312 435.253 87.55 433.015 87.55 430.253C87.55 427.491 85.311 425.253 82.549 425.253Z" fill="#FF9393"/>
<path d="M122.473 425.253H110.057C107.295 425.253 105.057 427.491 105.057 430.253C105.057 433.015 107.295 435.253 110.057 435.253H122.473C125.235 435.253 127.473 433.015 127.473 430.253C127.473 427.491 125.234 425.253 122.473 425.253Z" fill="#FF9393"/>
<path d="M162.397 425.253H149.981C147.219 425.253 144.981 427.491 144.981 430.253C144.981 433.015 147.219 435.253 149.981 435.253H162.397C165.159 435.253 167.397 433.015 167.397 430.253C167.397 427.491 165.159 425.253 162.397 425.253Z" fill="#FF9393"/>
<path d="M202.321 425.253H189.905C187.143 425.253 184.905 427.491 184.905 430.253C184.905 433.015 187.143 435.253 189.905 435.253H202.321C205.083 435.253 207.321 433.015 207.321 430.253C207.321 427.491 205.083 425.253 202.321 425.253Z" fill="#FF9393"/>
<path d="M242.246 425.253H229.83C227.068 425.253 224.83 427.491 224.83 430.253C224.83 433.015 227.068 435.253 229.83 435.253H242.246C245.008 435.253 247.246 433.015 247.246 430.253C247.246 427.491 245.008 425.253 242.246 425.253Z" fill="#FF9393"/>
<path d="M282.17 425.253H269.754C266.992 425.253 264.754 427.491 264.754 430.253C264.754 433.015 266.992 435.253 269.754 435.253H282.17C284.932 435.253 287.17 433.015 287.17 430.253C287.17 427.491 284.932 425.253 282.17 425.253Z" fill="#FF9393"/>
<path d="M322.095 425.253H309.679C306.917 425.253 304.679 427.491 304.679 430.253C304.679 433.015 306.917 435.253 309.679 435.253H322.095C324.857 435.253 327.095 433.015 327.095 430.253C327.095 427.491 324.856 425.253 322.095 425.253Z" fill="#FF9393"/>
<path d="M362.019 425.253H349.603C346.841 425.253 344.603 427.491 344.603 430.253C344.603 433.015 346.841 435.253 349.603 435.253H362.019C364.781 435.253 367.019 433.015 367.019 430.253C367.019 427.491 364.78 425.253 362.019 425.253Z" fill="#FF9393"/>
<path d="M401.943 425.253H389.527C386.765 425.253 384.527 427.491 384.527 430.253C384.527 433.015 386.765 435.253 389.527 435.253H401.943C404.705 435.253 406.943 433.015 406.943 430.253C406.943 427.491 404.705 425.253 401.943 425.253Z" fill="#FF9393"/>
<path d="M459.938 425.253H443.252V421.451C443.252 418.689 441.014 416.451 438.252 416.451C435.49 416.451 433.252 418.689 433.252 421.451V425.253H429.45C426.688 425.253 424.45 427.491 424.45 430.253C424.45 433.015 426.688 435.253 429.45 435.253H433.252V451.939C433.252 454.701 435.49 456.939 438.252 456.939C441.014 456.939 443.252 454.701 443.252 451.939V435.253H459.938C462.7 435.253 464.938 433.015 464.938 430.253C464.938 427.491 462.7 425.253 459.938 425.253Z" fill="#FF9393"/>
<path d="M379.646 389.004H132.354C129.592 389.004 127.354 386.766 127.354 384.004C127.354 381.242 129.592 379.004 132.354 379.004H379.647C382.409 379.004 384.647 381.242 384.647 384.004C384.647 386.766 382.408 389.004 379.646 389.004Z" fill="#8282FF"/>
<path d="M256 389.004C196.799 389.004 148.636 340.841 148.636 281.64C148.636 278.878 150.874 276.64 153.636 276.64C156.398 276.64 158.636 278.878 158.636 281.64C158.636 335.327 202.314 379.004 256 379.004C309.686 379.004 353.364 335.326 353.364 281.64C353.364 278.878 355.602 276.64 358.364 276.64C361.126 276.64 363.364 278.878 363.364 281.64C363.364 340.841 315.201 389.004 256 389.004Z" fill="#8282FF"/>
<path d="M265.339 398.343H246.661C243.9 398.343 241.661 396.104 241.661 393.343V374.665C241.661 371.904 243.9 369.665 246.661 369.665H265.339C268.1 369.665 270.339 371.904 270.339 374.665V393.343C270.339 396.104 268.101 398.343 265.339 398.343Z" fill="#FF9C33"/>
<path d="M127.354 398.343H108.676C105.915 398.343 103.676 396.104 103.676 393.343V374.665C103.676 371.904 105.915 369.665 108.676 369.665H127.354C130.115 369.665 132.354 371.904 132.354 374.665V393.343C132.354 396.104 130.115 398.343 127.354 398.343Z" fill="#FF9C33"/>
<path d="M403.325 398.343H384.647C381.886 398.343 379.647 396.104 379.647 393.343V374.665C379.647 371.904 381.886 369.665 384.647 369.665H403.325C406.086 369.665 408.325 371.904 408.325 374.665V393.343C408.325 396.104 406.086 398.343 403.325 398.343Z" fill="#FF9C33"/>
<path d="M162.975 295.979H144.297C141.536 295.979 139.297 293.74 139.297 290.979V272.3C139.297 269.539 141.536 267.3 144.297 267.3H162.975C165.736 267.3 167.975 269.539 167.975 272.3V290.978C167.975 293.74 165.736 295.979 162.975 295.979Z" fill="#FF9C33"/>
<path d="M367.704 295.979H349.026C346.265 295.979 344.026 293.74 344.026 290.979V272.3C344.026 269.539 346.265 267.3 349.026 267.3H367.704C370.465 267.3 372.704 269.539 372.704 272.3V290.978C372.704 293.74 370.465 295.979 367.704 295.979Z" fill="#FF9C33"/>
<path d="M311 359.69V459.69C311 462.45 308.76 464.69 306 464.69H206C203.24 464.69 201 462.45 201 459.69V359.69C201 356.93 203.24 354.69 206 354.69H306C308.76 354.69 311 356.93 311 359.69Z" fill="#FF6C6C"/>
<path d="M269.57 354.69L258.82 376.92C257.68 379.28 254.32 379.28 253.18 376.92L242.43 354.69H269.57Z" fill="#FF4D4D"/>
<path d="M303.289 454.892C302.999 453.905 301.789 453.454 300.89 454.012C299.232 455.043 297.764 455.557 296.486 455.557C294.997 455.557 293.997 455.011 293.482 453.916C292.967 452.824 292.71 450.962 292.71 448.336V406.76C292.71 400.744 292.28 395.985 291.423 392.482C290.565 388.982 288.875 386.028 286.359 383.62C283.613 380.994 280.179 379.135 276.059 378.04C267.113 375.662 257.559 375.715 248.499 377.483C240.976 378.951 232.65 381.658 228.081 387.969C222.248 396.026 227.609 408.401 238.294 408.401C251.571 408.401 256.787 392.05 245.329 385.265C248.446 384.07 254.379 382.418 260.263 384.18C264.84 385.55 267.98 389.634 267.991 394.219V394.287V407.088C267.991 410.042 266.532 412.368 263.614 414.063C251.544 421.074 234.632 421.612 225.335 432.772C220.713 438.321 220.003 446.464 222.652 453.023C226.038 461.405 234.127 464.693 243.101 464.693C254.199 464.693 262.611 460.262 268.334 451.4C268.446 455.449 269.763 458.678 272.282 461.083C274.798 463.491 279.205 464.693 285.5 464.693C292.525 464.693 298.53 462.888 303.514 459.277C304.041 458.895 304.272 458.245 304.094 457.636L303.289 454.892ZM267.991 441.336C264.67 445.823 261.721 448.412 256.833 449.407C253.338 450.119 245.675 448.948 245.675 441.06C245.675 433.484 254.773 429.899 259.235 427.162C263.698 424.536 266.616 422.131 267.99 419.941V441.336H267.991Z" fill="#FFB2B2"/>
<path d="M218.524 377.069C215.762 377.069 213.524 374.831 213.524 372.069V371.938C213.524 369.176 215.762 366.938 218.524 366.938C221.286 366.938 223.524 369.176 223.524 371.938V372.069C223.524 374.831 221.286 377.069 218.524 377.069Z" fill="white"/>
<path d="M325.31 215.44L258.82 352.92C258.25 354.1 257.12 354.69 256 354.69L253 236.978L256 144.59H279.71C282.28 159.97 291.49 192.74 324.03 211.35C325.46 212.17 326.03 213.95 325.31 215.44Z" fill="#B2B2FF"/>
<path d="M256 189.15V144.58H279.71C281.42 154.83 286.08 172.8 298.62 189.15H256Z" fill="#9393FF"/>
<path d="M256.003 354.692V144.586H232.287C229.716 159.968 220.511 192.739 187.966 211.35C186.536 212.171 185.972 213.952 186.693 215.439L253.175 352.918C253.745 354.103 254.874 354.692 256.003 354.692Z" fill="#D8D8FF"/>
<path d="M256.001 144.582V189.152H213.381C225.921 172.802 230.581 154.832 232.291 144.582H256.001Z" fill="#B2B2FF"/>
<path d="M256.001 239.936C267.525 239.936 276.867 230.594 276.867 219.07C276.867 207.546 267.525 198.204 256.001 198.204C244.477 198.204 235.135 207.546 235.135 219.07C235.135 230.594 244.477 239.936 256.001 239.936Z" fill="#8282FF"/>
<path d="M256.001 228.502C261.21 228.502 265.433 224.279 265.433 219.07C265.433 213.861 261.21 209.638 256.001 209.638C250.792 209.638 246.569 213.861 246.569 219.07C246.569 224.279 250.792 228.502 256.001 228.502Z" fill="#6C6CFF"/>
<path d="M212.194 109.041L218.083 159.611C218.451 162.772 221.129 165.157 224.312 165.157H287.688C290.871 165.157 293.549 162.773 293.917 159.612L299.806 109.042C300.152 106.071 297.83 103.464 294.84 103.464H217.162C214.17 103.462 211.848 106.07 212.194 109.041Z" fill="#FF9C33"/>
<path d="M256 300.979C253.238 300.979 251 298.741 251 295.979V236.978C251 234.216 253.238 231.978 256 231.978C258.762 231.978 261 234.216 261 236.978V295.979C261 298.74 258.762 300.979 256 300.979Z" fill="#8282FF"/>
<path d="M267.338 146.661H244.662C241.9 146.661 239.662 144.423 239.662 141.661C239.662 138.899 241.9 136.661 244.662 136.661H267.338C270.1 136.661 272.338 138.899 272.338 141.661C272.338 144.423 270.1 146.661 267.338 146.661Z" fill="#FFC498"/>
<path d="M271.338 127.868H240.662C237.9 127.868 235.662 125.63 235.662 122.868C235.662 120.106 237.9 117.868 240.662 117.868H271.338C274.1 117.868 276.338 120.106 276.338 122.868C276.338 125.63 274.1 127.868 271.338 127.868Z" fill="#FFC498"/>
<path d="M153.636 155.309C145.365 155.309 138.636 148.58 138.636 140.309C138.636 132.038 145.365 125.309 153.636 125.309C161.907 125.309 168.636 132.038 168.636 140.309C168.636 148.58 161.907 155.309 153.636 155.309ZM153.636 135.309C150.879 135.309 148.636 137.552 148.636 140.309C148.636 143.066 150.879 145.309 153.636 145.309C156.393 145.309 158.636 143.066 158.636 140.309C158.636 137.552 156.393 135.309 153.636 135.309Z" fill="#8282FF"/>
<path d="M137.473 499.302C129.202 499.302 122.473 492.573 122.473 484.302C122.473 476.031 129.202 469.302 137.473 469.302C145.744 469.302 152.473 476.031 152.473 484.302C152.473 492.573 145.744 499.302 137.473 499.302ZM137.473 479.302C134.716 479.302 132.473 481.545 132.473 484.302C132.473 487.059 134.716 489.302 137.473 489.302C140.23 489.302 142.473 487.059 142.473 484.302C142.473 481.545 140.229 479.302 137.473 479.302Z" fill="#FF6C6C"/>
<path d="M379.646 234.321C371.375 234.321 364.646 227.592 364.646 219.321C364.646 211.05 371.375 204.321 379.646 204.321C387.917 204.321 394.646 211.05 394.646 219.321C394.646 227.592 387.918 234.321 379.646 234.321ZM379.646 214.321C376.889 214.321 374.646 216.564 374.646 219.321C374.646 222.078 376.889 224.321 379.646 224.321C382.403 224.321 384.646 222.078 384.646 219.321C384.646 216.564 382.403 214.321 379.646 214.321Z" fill="#8282FF"/>
<path d="M122.473 210.321C121.194 210.321 119.913 209.833 118.938 208.856C116.985 206.904 116.985 203.738 118.938 201.786L128.938 191.786C130.889 189.833 134.057 189.833 136.008 191.786C137.961 193.738 137.961 196.904 136.008 198.856L126.008 208.856C125.032 209.833 123.752 210.321 122.473 210.321Z" fill="#FF9C33"/>
<path d="M310.887 39.4822C309.608 39.4822 308.327 38.9942 307.352 38.0172C305.399 36.0652 305.399 32.8992 307.352 30.9472L317.352 20.9472C319.303 18.9942 322.471 18.9942 324.422 20.9472C326.375 22.8992 326.375 26.0652 324.422 28.0172L314.422 38.0172C313.446 38.9942 312.166 39.4822 310.887 39.4822Z" fill="#FF6C6C"/>
</svg>
