<svg width="512" height="512" viewBox="0 0 512 512" fill="none" xmlns="http://www.w3.org/2000/svg">
<path d="M428.95 130.3V412.63C428.95 418.16 424.47 422.63 418.95 422.63H61.5699C58.7999 422.63 56.2999 421.51 54.4999 419.69C54.2699 419.47 54.0499 419.23 53.8499 418.98C53.4399 418.49 53.0799 417.96 52.7799 417.4C52.7799 417.39 52.7799 417.39 52.7799 417.39C52.5399 416.97 52.3399 416.53 52.1799 416.07C52.1799 416.06 52.1799 416.06 52.1799 416.06C52.1199 415.9 52.0699 415.75 52.0199 415.59C51.7299 414.66 51.5699 413.66 51.5699 412.62V130.3L240.257 124.3L428.95 130.3Z" fill="#4D4DFF"/>
<path d="M410.315 296.049C405.145 293.309 399.695 291.029 394.015 289.279L390.295 265.889C389.495 260.879 385.175 257.189 380.105 257.189H351.935C346.855 257.189 342.535 260.879 341.745 265.889L338.025 289.279C332.345 291.029 326.885 293.309 321.715 296.049L302.535 282.129C298.435 279.149 292.765 279.589 289.185 283.179L269.265 303.099C265.675 306.689 265.225 312.349 268.205 316.459L282.125 335.639C279.395 340.809 277.115 346.259 275.365 351.949L251.965 355.659C246.955 356.459 243.265 360.779 243.265 365.849V394.019C243.265 399.099 246.955 403.419 251.965 404.209L275.365 407.929C276.935 413.019 278.935 417.939 281.295 422.629H340.795C326.215 413.999 316.435 398.109 316.435 379.939C316.435 352.549 338.635 330.349 366.015 330.349C393.405 330.349 415.605 352.549 415.605 379.939C415.605 398.109 405.825 413.999 391.245 422.629H418.955C424.475 422.629 428.955 418.159 428.955 412.629V282.519L410.315 296.049Z" fill="#2C27FF"/>
<path d="M295.205 347.938V422.628H141.465V347.938C141.465 342.408 145.935 337.938 151.465 337.938H285.205C290.725 337.938 295.205 342.409 295.205 347.938Z" fill="#FFC599"/>
<path d="M285.205 337.938H280.955C278.735 342.418 276.855 347.098 275.365 351.948L251.965 355.658C246.955 356.458 243.265 360.778 243.265 365.848V394.018C243.265 399.098 246.955 403.418 251.965 404.208L275.365 407.928C276.935 413.018 278.935 417.938 281.295 422.628H295.205V347.938C295.205 342.409 290.725 337.938 285.205 337.938Z" fill="#FFAB66"/>
<path d="M110.53 130.3V422.62H61.5699C58.7999 422.62 56.2999 421.5 54.4999 419.69C54.2699 419.47 54.0499 419.23 53.8499 418.98C53.4499 418.49 53.0899 417.96 52.7799 417.4C52.7799 417.39 52.7799 417.39 52.7799 417.39C52.5499 416.96 52.3499 416.52 52.1799 416.07C52.1799 416.06 52.1799 416.06 52.1799 416.06C52.1199 415.9 52.0699 415.75 52.0199 415.59C51.7299 414.66 51.5699 413.66 51.5699 412.62V130.3H110.53Z" fill="#B3B3FF"/>
<path d="M90.019 172.657H76.079C73.318 172.657 71.079 170.418 71.079 167.657V153.717C71.079 150.956 73.318 148.717 76.079 148.717H90.019C92.78 148.717 95.019 150.956 95.019 153.717V167.657C95.019 170.419 92.78 172.657 90.019 172.657Z" fill="#FFC599"/>
<path d="M90.019 217.175H76.079C73.318 217.175 71.079 214.936 71.079 212.175V198.235C71.079 195.474 73.318 193.235 76.079 193.235H90.019C92.78 193.235 95.019 195.474 95.019 198.235V212.175C95.019 214.936 92.78 217.175 90.019 217.175Z" fill="#FFC599"/>
<path d="M90.019 261.693H76.079C73.318 261.693 71.079 259.454 71.079 256.693V242.753C71.079 239.992 73.318 237.753 76.079 237.753H90.019C92.78 237.753 95.019 239.992 95.019 242.753V256.693C95.019 259.454 92.78 261.693 90.019 261.693Z" fill="#FFC599"/>
<path d="M428.948 130.301V63.5439C428.948 58.0209 424.471 53.5439 418.948 53.5439H61.566C56.043 53.5439 51.566 58.0209 51.566 63.5439V130.301H428.948Z" fill="#FF9D33"/>
<path d="M329.047 107.419H92.604C89.843 107.419 87.604 105.18 87.604 102.419V83.426C87.604 80.665 89.843 78.426 92.604 78.426H329.046C331.807 78.426 334.046 80.665 334.046 83.426V102.419C334.047 105.18 331.808 107.419 329.047 107.419Z" fill="#FFC599"/>
<path d="M361.832 88.426C364.593 88.426 366.832 86.1874 366.832 83.426C366.832 80.6646 364.593 78.426 361.832 78.426C359.071 78.426 356.832 80.6646 356.832 83.426C356.832 86.1874 359.071 88.426 361.832 88.426Z" fill="white"/>
<path d="M361.832 107.419C364.593 107.419 366.832 105.18 366.832 102.419C366.832 99.6575 364.593 97.4189 361.832 97.4189C359.071 97.4189 356.832 99.6575 356.832 102.419C356.832 105.18 359.071 107.419 361.832 107.419Z" fill="white"/>
<path d="M379.135 88.426C381.896 88.426 384.135 86.1874 384.135 83.426C384.135 80.6646 381.896 78.426 379.135 78.426C376.374 78.426 374.135 80.6646 374.135 83.426C374.135 86.1874 376.374 88.426 379.135 88.426Z" fill="white"/>
<path d="M379.135 107.419C381.896 107.419 384.135 105.18 384.135 102.419C384.135 99.6575 381.896 97.4189 379.135 97.4189C376.374 97.4189 374.135 99.6575 374.135 102.419C374.135 105.18 376.374 107.419 379.135 107.419Z" fill="white"/>
<path d="M396.438 88.426C399.199 88.426 401.438 86.1874 401.438 83.426C401.438 80.6646 399.199 78.426 396.438 78.426C393.677 78.426 391.438 80.6646 391.438 83.426C391.438 86.1874 393.677 88.426 396.438 88.426Z" fill="white"/>
<path d="M396.438 107.419C399.199 107.419 401.438 105.18 401.438 102.419C401.438 99.6575 399.199 97.4189 396.438 97.4189C393.677 97.4189 391.438 99.6575 391.438 102.419C391.438 105.18 393.677 107.419 396.438 107.419Z" fill="white"/>
<path d="M480.066 331.66L456.673 327.944C454.92 322.261 452.644 316.808 449.907 311.636L463.828 292.457C466.808 288.351 466.361 282.688 462.774 279.101L442.853 259.18C439.266 255.593 433.602 255.146 429.497 258.126L410.318 272.046C405.146 269.309 399.693 267.033 394.01 265.28L390.294 241.887C389.498 236.876 385.177 233.188 380.104 233.188H351.932C346.859 233.188 342.538 236.876 341.742 241.887L338.026 265.279C332.342 267.032 326.889 269.308 321.717 272.045L302.539 258.125C298.433 255.145 292.77 255.592 289.183 259.179L269.262 279.1C265.675 282.687 265.227 288.351 268.208 292.456L282.129 311.635C279.393 316.807 277.117 322.259 275.364 327.942L251.97 331.659C246.959 332.455 243.271 336.776 243.271 341.849V370.021C243.271 375.094 246.959 379.415 251.97 380.211L275.363 383.927C277.116 389.61 279.392 395.063 282.129 400.235L268.209 419.414C265.229 423.52 265.676 429.183 269.263 432.77L289.184 452.691C292.771 456.278 298.435 456.725 302.54 453.745L321.719 439.825C326.891 442.562 332.344 444.838 338.027 446.591L341.743 469.984C342.539 474.995 346.86 478.683 351.933 478.683H380.105C385.178 478.683 389.499 474.995 390.295 469.984L394.012 446.589C399.695 444.836 405.147 442.56 410.319 439.824L429.499 453.745C433.605 456.725 439.268 456.278 442.855 452.691L462.776 432.77C466.363 429.183 466.81 423.519 463.83 419.414L449.91 400.236C452.647 395.064 454.924 389.611 456.676 383.927L480.068 380.211C485.079 379.415 488.767 375.094 488.767 370.021V341.85C488.765 336.777 485.077 332.456 480.066 331.66ZM415.605 355.942C415.605 383.322 393.404 405.523 366.011 405.523C338.631 405.523 316.43 383.322 316.43 355.942C316.43 328.55 338.631 306.348 366.011 306.348C393.404 306.348 415.605 328.55 415.605 355.942Z" fill="#9494FF"/>
<path d="M363.382 454.953L359.25 428.944C361.478 429.149 363.733 429.253 366.012 429.253C368.295 429.253 370.555 429.148 372.785 428.943L368.653 454.953H363.382ZM412.827 412.325C416.305 409.433 419.514 406.224 422.406 402.747L437.896 424.088L434.169 427.815L412.827 412.325ZM294.138 424.088L309.627 402.748C312.519 406.225 315.728 409.434 319.205 412.326L297.865 427.815L294.138 424.088ZM267 358.572V353.301L293.009 349.169C292.804 351.399 292.699 353.659 292.699 355.942C292.699 358.222 292.804 360.477 293.008 362.704L267 358.572ZM439.027 362.703C439.232 360.476 439.336 358.221 439.336 355.942C439.336 353.659 439.231 351.4 439.026 349.169L465.035 353.301V358.572L439.027 362.703ZM422.405 309.127C419.513 305.649 416.304 302.441 412.826 299.548L434.169 284.057L437.896 287.784L422.405 309.127ZM294.138 287.785L297.866 284.057L319.207 299.547C315.73 302.439 312.521 305.649 309.629 309.127L294.138 287.785ZM372.785 282.928C370.555 282.722 368.295 282.618 366.012 282.618C363.732 282.618 361.478 282.722 359.251 282.927L363.383 256.919H368.654L372.785 282.928Z" fill="#B3B3FF"/>
<path d="M165.043 160.687H146.46C143.699 160.687 141.46 158.448 141.46 155.687C141.46 152.926 143.699 150.687 146.46 150.687H165.043C167.804 150.687 170.043 152.926 170.043 155.687C170.043 158.448 167.804 160.687 165.043 160.687Z" fill="#FF6C6C"/>
<path d="M225.043 181.068H146.46C143.699 181.068 141.46 178.829 141.46 176.068C141.46 173.307 143.699 171.068 146.46 171.068H225.043C227.804 171.068 230.043 173.307 230.043 176.068C230.043 178.829 227.804 181.068 225.043 181.068Z" fill="#FFAB66"/>
<path d="M185.043 201.45H146.46C143.699 201.45 141.46 199.211 141.46 196.45C141.46 193.689 143.699 191.45 146.46 191.45H185.043C187.804 191.45 190.043 193.689 190.043 196.45C190.043 199.211 187.804 201.45 185.043 201.45Z" fill="#9494FF"/>
<path d="M333.525 181.068H248.942C246.181 181.068 243.942 178.829 243.942 176.068C243.942 173.307 246.181 171.068 248.942 171.068H333.525C336.286 171.068 338.525 173.307 338.525 176.068C338.525 178.829 336.287 181.068 333.525 181.068Z" fill="#FFAB66"/>
<path d="M293.525 201.45H208.942C206.181 201.45 203.942 199.211 203.942 196.45C203.942 193.689 206.181 191.45 208.942 191.45H293.525C296.286 191.45 298.525 193.689 298.525 196.45C298.525 199.211 296.287 201.45 293.525 201.45Z" fill="#FFAB66"/>
<path d="M225.043 221.831H146.46C143.699 221.831 141.46 219.592 141.46 216.831C141.46 214.07 143.699 211.831 146.46 211.831H225.043C227.804 211.831 230.043 214.07 230.043 216.831C230.043 219.592 227.804 221.831 225.043 221.831Z" fill="#FFAB66"/>
<path d="M185.043 242.213H146.46C143.699 242.213 141.46 239.974 141.46 237.213C141.46 234.452 143.699 232.213 146.46 232.213H185.043C187.804 232.213 190.043 234.452 190.043 237.213C190.043 239.974 187.804 242.213 185.043 242.213Z" fill="#9494FF"/>
<path d="M333.525 221.831H248.942C246.181 221.831 243.942 219.592 243.942 216.831C243.942 214.07 246.181 211.831 248.942 211.831H333.525C336.286 211.831 338.525 214.07 338.525 216.831C338.525 219.592 336.287 221.831 333.525 221.831Z" fill="#FFAB66"/>
<path d="M293.525 242.213H208.942C206.181 242.213 203.942 239.974 203.942 237.213C203.942 234.452 206.181 232.213 208.942 232.213H293.525C296.286 232.213 298.525 234.452 298.525 237.213C298.525 239.974 296.287 242.213 293.525 242.213Z" fill="#9494FF"/>
<path d="M161.962 320.568C160.683 320.568 159.402 320.08 158.427 319.103L142.925 303.601C140.972 301.649 140.972 298.483 142.925 296.531L158.427 281.029C160.378 279.076 163.546 279.076 165.497 281.029C167.45 282.981 167.45 286.147 165.497 288.099L153.531 300.066L165.497 312.033C167.45 313.985 167.45 317.151 165.497 319.103C164.522 320.08 163.241 320.568 161.962 320.568Z" fill="white"/>
<path d="M201.64 320.568C200.361 320.568 199.08 320.08 198.105 319.103C196.152 317.151 196.152 313.985 198.105 312.033L210.071 300.066L198.105 288.1C196.152 286.148 196.152 282.982 198.105 281.03C200.056 279.077 203.224 279.077 205.175 281.03L220.677 296.532C222.63 298.484 222.63 301.65 220.677 303.602L205.175 319.104C204.199 320.08 202.919 320.568 201.64 320.568Z" fill="white"/>
<path d="M40.765 45.544C38.003 45.544 35.765 43.306 35.765 40.544C35.765 37.052 32.923 34.211 29.431 34.211C26.669 34.211 24.431 31.973 24.431 29.211C24.431 26.449 26.669 24.211 29.431 24.211C32.923 24.211 35.765 21.369 35.765 17.877C35.765 15.115 38.003 12.877 40.765 12.877C43.527 12.877 45.765 15.115 45.765 17.877C45.765 21.369 48.606 24.211 52.098 24.211C54.86 24.211 57.098 26.449 57.098 29.211C57.098 31.973 54.86 34.211 52.098 34.211C48.606 34.211 45.765 37.052 45.765 40.544C45.765 43.306 43.526 45.544 40.765 45.544Z" fill="#8383FF"/>
<path d="M465.034 146.635C462.272 146.635 460.034 144.397 460.034 141.635C460.034 138.143 457.193 135.301 453.701 135.301C450.939 135.301 448.701 133.063 448.701 130.301C448.701 127.539 450.939 125.301 453.701 125.301C457.193 125.301 460.034 122.46 460.034 118.968C460.034 116.206 462.272 113.968 465.034 113.968C467.796 113.968 470.034 116.206 470.034 118.968C470.034 122.46 472.876 125.301 476.368 125.301C479.13 125.301 481.368 127.539 481.368 130.301C481.368 133.063 479.13 135.301 476.368 135.301C472.876 135.301 470.034 138.143 470.034 141.635C470.034 144.396 467.796 146.635 465.034 146.635Z" fill="#FF6C6C"/>
<path d="M249.265 470.646C247.986 470.646 246.705 470.158 245.73 469.181L240.265 463.717L234.8 469.181C232.849 471.134 229.681 471.134 227.73 469.181C225.777 467.229 225.777 464.063 227.73 462.111L236.73 453.111C238.681 451.158 241.849 451.158 243.8 453.111L252.8 462.111C254.753 464.063 254.753 467.229 252.8 469.181C251.824 470.158 250.544 470.646 249.265 470.646Z" fill="#FFAB66"/>
<path d="M476.368 248.763C475.089 248.763 473.808 248.275 472.833 247.298L467.368 241.834L461.903 247.298C459.952 249.251 456.784 249.251 454.833 247.298C452.88 245.346 452.88 242.18 454.833 240.228L463.833 231.228C465.784 229.275 468.952 229.275 470.903 231.228L479.903 240.228C481.856 242.18 481.856 245.346 479.903 247.298C478.928 248.274 477.647 248.763 476.368 248.763Z" fill="#FF6C6C"/>
<path d="M199.043 483.685C197.764 483.685 196.483 483.197 195.508 482.22L190.043 476.756L184.578 482.22C182.627 484.173 179.459 484.173 177.508 482.22C175.555 480.268 175.555 477.102 177.508 475.15L186.508 466.15C188.459 464.197 191.627 464.197 193.578 466.15L202.578 475.15C204.531 477.102 204.531 480.268 202.578 482.22C201.603 483.196 200.322 483.685 199.043 483.685Z" fill="#8383FF"/>
</svg>
