<svg width="512" height="512" viewBox="0 0 512 512" fill="none" xmlns="http://www.w3.org/2000/svg">
<path d="M388.521 278.982L256 303.73L123.479 278.982L117.479 233.91V166.585H394.521V233.91L388.521 278.982Z" fill="#4369FC"/>
<path d="M394.521 166.585H117.479V196.599L254.11 252.382C255.321 252.877 256.678 252.877 257.89 252.382L394.521 196.599V166.585Z" fill="#2D58DF"/>
<path d="M394.525 233.91V268.986C394.525 268.986 394.525 323.727 256 323.727C117.475 323.727 117.475 268.986 117.475 268.986V233.91C117.475 233.91 117.475 295.593 256 295.593C394.525 295.593 394.525 233.91 394.525 233.91Z" fill="#FF7EB7"/>
<path d="M53.714 120.057V146.565L256 229.153V120.057H53.714Z" fill="#8298FD"/>
<path d="M258.61 132.88C258.84 135.64 256.8 138.06 254.05 138.29L122.39 149.42C117.24 149.86 113.35 154.09 113.35 159.27V170.92L103.35 166.83V159.27C103.35 148.86 111.18 140.34 121.55 139.45L253.21 128.32C255.94 128.1 258.38 130.13 258.61 132.88Z" fill="#6582FD"/>
<path d="M256 120.06V229.15L458.29 146.57V120.06H256Z" fill="#4369FC"/>
<path d="M256 37.469L53.714 120.057L256 202.645L458.286 120.057L256 37.469Z" fill="#6582FD"/>
<path d="M256 117.652C244.385 117.652 234.689 122.982 232.395 130.08L121.55 139.45C117.596 139.789 114.016 141.244 111.093 143.484L125.077 149.193L234.166 139.971C238.022 145.288 246.346 148.971 255.999 148.971C269.321 148.971 280.121 141.96 280.121 133.312C280.122 124.663 269.322 117.652 256 117.652Z" fill="#4369FC"/>
<path d="M484.743 230.754L275.783 439.714C271.878 443.619 265.546 443.619 261.641 439.714L231.569 409.641C227.664 405.736 227.664 399.404 231.569 395.499L440.529 186.539C444.434 182.634 450.766 182.634 454.671 186.539L484.744 216.611C488.648 220.517 488.648 226.849 484.743 230.754Z" fill="#FF7EB7"/>
<path d="M444.66 288.65L302.88 430.43C298.98 434.33 292.65 434.33 288.74 430.43L240.86 382.54C236.95 378.64 236.95 372.3 240.86 368.4L260.645 348.616L282.433 334.83L299.087 310.177L310.782 298.483L341.598 275.669L361.126 248.143L382.64 226.63L417.239 254.229L444.66 288.65Z" fill="#02FFB2"/>
<path d="M386.994 286.397C389.755 286.397 391.994 284.159 391.994 281.397C391.994 278.636 389.755 276.397 386.994 276.397C384.233 276.397 381.994 278.636 381.994 281.397C381.994 284.159 384.233 286.397 386.994 286.397Z" fill="white"/>
<path d="M375.153 297.418C377.914 297.418 380.153 295.18 380.153 292.418C380.153 289.657 377.914 287.418 375.153 287.418C372.392 287.418 370.153 289.657 370.153 292.418C370.153 295.18 372.392 297.418 375.153 297.418Z" fill="white"/>
<path d="M363.312 308.439C366.073 308.439 368.312 306.201 368.312 303.439C368.312 300.678 366.073 298.439 363.312 298.439C360.551 298.439 358.312 300.678 358.312 303.439C358.312 306.201 360.551 308.439 363.312 308.439Z" fill="white"/>
<path d="M336.09 316.65L379.326 273.414C381.279 271.461 381.279 268.296 379.326 266.343L361.122 248.139L310.78 298.481C316.87 304.53 322.952 310.586 329.025 316.651C330.977 318.601 334.139 318.601 336.09 316.65Z" fill="#FF7EB7"/>
<path d="M273.39 335.86L299.08 310.17L335.87 346.96C337.82 348.91 337.82 352.08 335.87 354.03L313.72 376.19L290.241 360.711L273.39 335.86Z" fill="#8298FD"/>
<path d="M273.394 335.862L260.643 348.613L297.428 385.398C299.381 387.351 302.546 387.351 304.499 385.398L313.715 376.182L273.394 335.862Z" fill="white"/>
<path d="M368.355 240.85L382.562 226.642L444.583 288.663L430.375 302.871L368.355 240.85Z" fill="#01EBA4"/>
<path d="M413.428 195.828L382.632 226.624L444.659 288.651L475.455 257.855C479.36 253.95 479.36 247.618 475.455 243.713L427.57 195.828C423.665 191.922 417.333 191.922 413.428 195.828Z" fill="#96FFD1"/>
<path d="M310.985 348.983C309.032 350.936 305.867 350.936 303.914 348.983L293.986 339.055C292.033 337.102 292.033 333.937 293.986 331.984C295.939 330.031 299.104 330.031 301.057 331.984L310.985 341.912C312.938 343.865 312.938 347.031 310.985 348.983Z" fill="#4369FC"/>
<path d="M88.725 307.269C85.963 307.269 83.725 305.031 83.725 302.269V148.021C83.725 137.611 91.546 129.092 101.918 128.207L255.574 115.076C258.313 114.83 260.746 116.881 260.981 119.632C261.216 122.383 259.176 124.805 256.425 125.039L102.77 138.169C97.614 138.61 93.725 142.845 93.725 148.021V302.269C93.725 305.03 91.486 307.269 88.725 307.269Z" fill="#2D58DF"/>
<path d="M256 133.311C267.277 133.311 276.418 127.377 276.418 120.057C276.418 112.737 267.277 106.803 256 106.803C244.723 106.803 235.582 112.737 235.582 120.057C235.582 127.377 244.723 133.311 256 133.311Z" fill="#02FFB2"/>
<path d="M88.724 342.167C100.609 342.167 110.244 332.532 110.244 320.647C110.244 308.762 100.609 299.127 88.724 299.127C76.8388 299.127 67.204 308.762 67.204 320.647C67.204 332.532 76.8388 342.167 88.724 342.167Z" fill="#02FFB2"/>
<path d="M110.244 373.48C110.244 361.334 100.182 351.539 87.94 351.974C76.279 352.389 67.205 362.327 67.205 373.996V421.235C67.205 423.996 69.444 426.235 72.205 426.235H105.244C108.005 426.235 110.244 423.996 110.244 421.235V373.48Z" fill="#02FFB2"/>
<path d="M109.642 368.432C107.311 358.741 98.429 351.601 87.94 351.974C78.193 352.321 70.276 359.329 67.932 368.432H109.642Z" fill="#01EBA4"/>
<path d="M88.725 389.296C85.963 389.296 83.725 387.058 83.725 384.296V356.96C83.725 354.198 85.963 351.96 88.725 351.96C91.487 351.96 93.725 354.198 93.725 356.96V384.296C93.725 387.058 91.486 389.296 88.725 389.296Z" fill="#00D78F"/>
<path d="M100.739 354.872H76.71C71.46 354.872 67.205 350.616 67.205 345.367C67.205 340.117 71.461 335.862 76.71 335.862H100.739C105.989 335.862 110.244 340.118 110.244 345.367C110.244 350.616 105.989 354.872 100.739 354.872Z" fill="#FF7EB7"/>
<path d="M44.813 219.735C42.051 219.735 39.813 217.497 39.813 214.735C39.813 211.243 36.971 208.401 33.479 208.401C30.717 208.401 28.479 206.163 28.479 203.401C28.479 200.639 30.717 198.401 33.479 198.401C36.971 198.401 39.813 195.56 39.813 192.068C39.813 189.306 42.051 187.068 44.813 187.068C47.575 187.068 49.813 189.306 49.813 192.068C49.813 195.56 52.654 198.401 56.146 198.401C58.908 198.401 61.146 200.639 61.146 203.401C61.146 206.163 58.908 208.401 56.146 208.401C52.654 208.401 49.813 211.243 49.813 214.735C49.813 217.497 47.575 219.735 44.813 219.735Z" fill="#FF5BA7"/>
<path d="M151.944 446.108C149.182 446.108 146.944 443.87 146.944 441.108C146.944 437.616 144.102 434.774 140.61 434.774C137.848 434.774 135.61 432.536 135.61 429.774C135.61 427.012 137.848 424.774 140.61 424.774C144.102 424.774 146.944 421.933 146.944 418.441C146.944 415.679 149.182 413.441 151.944 413.441C154.706 413.441 156.944 415.679 156.944 418.441C156.944 421.933 159.785 424.774 163.277 424.774C166.039 424.774 168.277 427.012 168.277 429.774C168.277 432.536 166.039 434.774 163.277 434.774C159.785 434.774 156.944 437.616 156.944 441.108C156.944 443.87 154.706 446.108 151.944 446.108Z" fill="#6582FD"/>
<path d="M180.989 394.2C178.227 394.2 175.989 391.962 175.989 389.2C175.989 385.708 173.147 382.867 169.655 382.867C166.893 382.867 164.655 380.629 164.655 377.867C164.655 375.105 166.893 372.867 169.655 372.867C173.147 372.867 175.989 370.025 175.989 366.533C175.989 363.771 178.227 361.533 180.989 361.533C183.751 361.533 185.989 363.771 185.989 366.533C185.989 370.025 188.83 372.867 192.322 372.867C195.084 372.867 197.322 375.105 197.322 377.867C197.322 380.629 195.084 382.867 192.322 382.867C188.83 382.867 185.989 385.708 185.989 389.2C185.989 391.962 183.751 394.2 180.989 394.2Z" fill="#01EBA4"/>
<path d="M412.93 57.8179C412.085 57.8179 411.23 57.6039 410.445 57.1529L410.346 57.0959C407.951 55.7209 407.125 52.6639 408.5 50.2699C409.875 47.8759 412.932 47.0469 415.326 48.4239L415.425 48.4809C417.82 49.8559 418.646 52.9129 417.271 55.3069C416.346 56.9169 414.662 57.8179 412.93 57.8179Z" fill="#6582FD"/>
<path d="M437.831 72.1949C436.986 72.1949 436.131 71.9809 435.346 71.5299L435.247 71.4729C432.852 70.0979 432.026 67.0409 433.401 64.6469C434.776 62.2529 437.833 61.4238 440.227 62.8008L440.326 62.8579C442.721 64.2329 443.547 67.2898 442.172 69.6838C441.247 71.2938 439.563 72.1949 437.831 72.1949Z" fill="#6582FD"/>
<path d="M437.742 57.818C436.01 57.818 434.326 56.917 433.401 55.307C432.026 52.912 432.852 49.856 435.247 48.481L435.346 48.424C437.743 47.049 440.797 47.877 442.172 50.27C443.547 52.665 442.721 55.721 440.326 57.096L440.227 57.153C439.442 57.604 438.586 57.818 437.742 57.818Z" fill="#6582FD"/>
<path d="M412.841 72.195C411.109 72.195 409.425 71.294 408.5 69.684C407.125 67.289 407.951 64.233 410.346 62.858L410.445 62.801C412.841 61.427 415.896 62.253 417.271 64.647C418.646 67.042 417.82 70.098 415.425 71.473L415.326 71.53C414.541 71.98 413.685 72.195 412.841 72.195Z" fill="#6582FD"/>
<path d="M437.742 57.818C436.01 57.818 434.326 56.917 433.401 55.307C432.026 52.912 432.852 49.856 435.247 48.481L435.346 48.424C437.743 47.049 440.797 47.877 442.172 50.27C443.547 52.665 442.721 55.721 440.326 57.096L440.227 57.153C439.442 57.604 438.586 57.818 437.742 57.818Z" fill="#6582FD"/>
<path d="M412.841 72.195C411.109 72.195 409.425 71.294 408.5 69.684C407.125 67.289 407.951 64.233 410.346 62.858L410.445 62.801C412.841 61.427 415.896 62.253 417.271 64.647C418.646 67.042 417.82 70.098 415.425 71.473L415.326 71.53C414.541 71.98 413.685 72.195 412.841 72.195Z" fill="#6582FD"/>
<path d="M425.336 50.6569C422.574 50.6569 420.336 48.4189 420.336 45.6569V45.5439C420.336 42.7819 422.574 40.5439 425.336 40.5439C428.098 40.5439 430.336 42.7819 430.336 45.5439V45.6569C430.336 48.4189 428.098 50.6569 425.336 50.6569Z" fill="#6582FD"/>
<path d="M425.336 79.4109C422.574 79.4109 420.336 77.1729 420.336 74.4109V74.2969C420.336 71.5349 422.574 69.2969 425.336 69.2969C428.098 69.2969 430.336 71.5349 430.336 74.2969V74.4109C430.336 77.1729 428.098 79.4109 425.336 79.4109Z" fill="#6582FD"/>
<path d="M430.095 388.274C429.25 388.274 428.395 388.06 427.61 387.609L427.511 387.552C425.116 386.177 424.29 383.12 425.665 380.726C427.04 378.332 430.097 377.503 432.491 378.88L432.59 378.937C434.985 380.312 435.811 383.369 434.436 385.763C433.511 387.373 431.827 388.274 430.095 388.274Z" fill="#FF5BA7"/>
<path d="M454.996 402.651C454.151 402.651 453.296 402.437 452.511 401.986L452.412 401.929C450.017 400.554 449.191 397.497 450.566 395.103C451.942 392.709 454.998 391.88 457.392 393.257L457.491 393.314C459.886 394.689 460.712 397.746 459.337 400.14C458.412 401.75 456.729 402.651 454.996 402.651Z" fill="#FF5BA7"/>
<path d="M454.907 388.274C453.175 388.274 451.491 387.373 450.566 385.763C449.191 383.368 450.017 380.312 452.412 378.937L452.511 378.88C454.908 377.506 457.961 378.332 459.337 380.726C460.712 383.121 459.886 386.177 457.491 387.552L457.392 387.609C456.607 388.059 455.751 388.274 454.907 388.274Z" fill="#FF5BA7"/>
<path d="M430.006 402.651C428.274 402.651 426.59 401.75 425.665 400.14C424.29 397.745 425.116 394.689 427.511 393.314L427.61 393.257C430.007 391.882 433.061 392.709 434.436 395.103C435.811 397.498 434.985 400.554 432.59 401.929L432.491 401.986C431.706 402.436 430.85 402.651 430.006 402.651Z" fill="#FF5BA7"/>
<path d="M454.907 388.274C453.175 388.274 451.491 387.373 450.566 385.763C449.191 383.368 450.017 380.312 452.412 378.937L452.511 378.88C454.908 377.506 457.961 378.332 459.337 380.726C460.712 383.121 459.886 386.177 457.491 387.552L457.392 387.609C456.607 388.059 455.751 388.274 454.907 388.274Z" fill="#FF5BA7"/>
<path d="M430.006 402.651C428.274 402.651 426.59 401.75 425.665 400.14C424.29 397.745 425.116 394.689 427.511 393.314L427.61 393.257C430.007 391.882 433.061 392.709 434.436 395.103C435.811 397.498 434.985 400.554 432.59 401.929L432.491 401.986C431.706 402.436 430.85 402.651 430.006 402.651Z" fill="#FF5BA7"/>
<path d="M442.501 381.113C439.739 381.113 437.501 378.875 437.501 376.113V376C437.501 373.238 439.739 371 442.501 371C445.263 371 447.501 373.238 447.501 376V376.113C447.501 378.875 445.263 381.113 442.501 381.113Z" fill="#FF5BA7"/>
<path d="M442.501 409.867C439.739 409.867 437.501 407.629 437.501 404.867V404.754C437.501 401.992 439.739 399.754 442.501 399.754C445.263 399.754 447.501 401.992 447.501 404.754V404.867C447.501 407.629 445.263 409.867 442.501 409.867Z" fill="#FF5BA7"/>
</svg>
