<svg width="512" height="512" viewBox="0 0 512 512" fill="none" xmlns="http://www.w3.org/2000/svg">
<path d="M165.761 243.005L71.135 269.954C64.582 271.82 57.545 269.645 53.189 264.406L47.486 257.547C46.1 255.88 46.886 253.338 48.971 252.744L175.531 216.7C177.616 216.106 179.624 217.853 179.324 220L178.09 228.835C177.149 235.583 172.314 241.139 165.761 243.005Z" fill="#FFDAEC"/>
<path d="M342.306 75.259C339.938 75.259 337.834 73.57 337.393 71.156C336.896 68.44 338.697 65.835 341.413 65.339L357.711 62.362C360.428 61.866 363.032 63.665 363.528 66.382C364.025 69.098 362.224 71.703 359.508 72.199L343.21 75.176C342.907 75.232 342.605 75.259 342.306 75.259Z" fill="#FF5BA7"/>
<path d="M345.689 68.242C344.883 64.479 341.189 62.076 337.422 62.862L295.824 71.543C273.047 76.289 254.686 92.1771 246.72 114.063L265.514 120.903C271.051 105.689 284.061 94.4191 299.905 91.1191L348.57 80.958C347.565 76.728 346.6 72.49 345.689 68.242Z" fill="#FF7EB7"/>
<path d="M323.144 95.587L303.906 100.362L295.878 68.018C295.137 65.033 296.956 62.012 299.942 61.271L308.369 59.179C311.354 58.438 314.375 60.257 315.116 63.243L323.144 95.587Z" fill="#FFDAEC"/>
<path d="M390.46 96.12L336.12 107.82C324.22 110.38 314.47 118.88 310.31 130.33L305.25 144.22L293.95 148.34L296.61 167.97L281.45 209.61L234.76 305.39L208.25 410.73L206.57 415.35C193.61 450.94 154.27 469.28 118.69 456.33L114.93 454.96C97.15 448.49 83.66 435.42 76.24 419.51C68.82 403.62 67.48 384.89 73.96 367.09C83.19 341.72 84.3 314.45 77.64 288.89L77.65 288.9L109.12 268.57L168.39 263.05C171.52 284.56 169.27 306.54 161.83 327L143.57 377.16C142.3 380.66 142.56 384.34 144.02 387.46C145.47 390.59 148.12 393.16 151.62 394.43C157.63 396.62 164.2 394.26 167.52 389.1L178.22 380.92L176.54 365.34L182.86 347.96H182.87L193.52 338.56L191.58 324.02L197.9 306.65L197.91 306.64L207.7 298.45L206.62 282.69L212.94 265.33L212.95 265.32L223.16 255.12L221.66 241.37L227.98 224H227.99L236.69 213.15L236.7 200.05L253.99 152.55L268.1 143.03L262.67 128.71L265.51 120.91C271.05 105.69 284.05 94.42 299.9 91.12L385.56 73.24L390.46 96.12Z" fill="#FFA7CE"/>
<path d="M281.455 209.601L269.548 205.277C266.953 204.333 264.084 205.67 263.139 208.265L260.036 216.791L244.796 211.234C244.539 211.141 244.279 211.086 244.019 211.037C244.132 206.151 241.765 201.825 237.702 200.346C237.372 200.226 237.038 200.129 236.702 200.051L227.987 223.995C228.294 224.152 228.613 224.292 228.943 224.412C233.006 225.891 237.6 224.098 240.654 220.282C240.885 220.411 241.119 220.537 241.376 220.63L256.616 226.187L244.997 258.111L229.757 252.554C229.5 252.461 229.24 252.406 228.98 252.357C229.093 247.471 226.726 243.145 222.663 241.666C222.333 241.546 221.999 241.449 221.663 241.371L212.948 265.315C213.255 265.472 213.574 265.612 213.904 265.732C217.967 267.211 222.561 265.418 225.615 261.602C225.846 261.731 226.08 261.857 226.337 261.95L241.577 267.507L229.957 299.431L214.717 293.874C214.46 293.781 214.2 293.726 213.94 293.677C214.053 288.791 211.686 284.465 207.623 282.986C207.293 282.866 206.959 282.768 206.623 282.691L197.908 306.635C198.215 306.792 198.534 306.932 198.864 307.052C202.927 308.531 207.521 306.738 210.575 302.922C210.806 303.051 211.04 303.177 211.297 303.27L226.537 308.827L214.917 340.751L199.677 335.194C199.42 335.101 199.16 335.046 198.9 334.997C199.013 330.111 196.646 325.785 192.584 324.306C192.254 324.186 191.92 324.089 191.584 324.011L182.869 347.955C183.176 348.112 183.495 348.252 183.825 348.372C187.888 349.851 192.482 348.058 195.536 344.243C195.767 344.372 196.001 344.498 196.258 344.591L211.498 350.148L199.879 382.072L184.639 376.515C184.382 376.422 184.122 376.368 183.862 376.318C183.975 371.432 181.608 367.106 177.546 365.627C177.216 365.507 176.882 365.409 176.546 365.332L168.887 386.374C168.531 387.353 168.064 388.257 167.521 389.095C167.925 389.323 168.342 389.531 168.787 389.693C172.849 391.172 177.444 389.379 180.498 385.564C180.729 385.693 180.963 385.819 181.22 385.912L196.46 391.469L193.353 400C192.409 402.595 193.747 405.464 196.341 406.409L208.248 410.733L281.455 209.601Z" fill="#FF7EB7"/>
<path d="M305.253 144.215L296.607 167.97C296.192 167.883 295.777 167.764 295.364 167.613L253.989 152.554L262.666 128.714L305.253 144.215Z" fill="#FF7EB7"/>
<path d="M168.4 263.051L77.646 288.9C75.968 282.458 73.794 276.122 71.134 269.95L165.755 243.008L167.742 258.981C167.984 260.335 168.203 261.692 168.4 263.051Z" fill="#FF7EB7"/>
<path d="M283.86 184.94L259.88 275.82L210.66 386.07L204.41 383.8C201.82 382.85 200.48 379.98 201.42 377.39L271.21 185.65C272.15 183.06 275.02 181.72 277.62 182.66L283.86 184.94Z" fill="#FFDAEC"/>
<path d="M293.696 188.516L283.864 184.937L210.658 386.069L220.49 389.648C223.085 390.592 225.954 389.255 226.899 386.66L296.685 194.925C297.629 192.33 296.291 189.461 293.696 188.516Z" fill="#FFC3DE"/>
<path d="M252.031 193.551C254.449 186.903 252.038 179.923 246.644 177.961C241.251 175.999 234.918 179.797 232.499 186.444C230.081 193.092 232.492 200.072 237.886 202.034C243.279 203.997 249.612 200.198 252.031 193.551Z" fill="#FFDAEC"/>
<path d="M291.871 213.151C291.303 213.151 290.726 213.053 290.162 212.848L250.266 198.327C247.671 197.383 246.333 194.514 247.278 191.919C248.222 189.324 251.091 187.986 253.686 188.931L293.582 203.452C296.177 204.396 297.515 207.265 296.57 209.86C295.831 211.89 293.913 213.151 291.871 213.151Z" fill="#FF5BA7"/>
<path d="M237.005 234.875C239.424 228.228 237.012 221.248 231.619 219.286C226.225 217.323 219.892 221.122 217.474 227.769C215.055 234.417 217.467 241.397 222.86 243.359C228.253 245.321 234.586 241.523 237.005 234.875Z" fill="#FFDAEC"/>
<path d="M276.831 254.472C276.263 254.472 275.686 254.374 275.122 254.169L235.226 239.648C232.631 238.704 231.293 235.835 232.238 233.24C233.182 230.645 236.051 229.306 238.646 230.252L278.542 244.773C281.137 245.717 282.475 248.586 281.53 251.181C280.791 253.211 278.873 254.472 276.831 254.472Z" fill="#FF5BA7"/>
<path d="M221.978 276.201C224.397 269.553 221.985 262.573 216.592 260.611C211.198 258.649 204.865 262.447 202.447 269.095C200.028 275.742 202.44 282.722 207.833 284.684C213.227 286.647 219.559 282.848 221.978 276.201Z" fill="#FFDAEC"/>
<path d="M261.791 295.793C261.223 295.793 260.646 295.695 260.082 295.49L220.186 280.969C217.591 280.025 216.253 277.156 217.198 274.561C218.142 271.966 221.01 270.629 223.606 271.573L263.502 286.094C266.097 287.038 267.435 289.907 266.49 292.502C265.751 294.532 263.833 295.793 261.791 295.793Z" fill="#FF5BA7"/>
<path d="M206.951 317.525C209.37 310.877 206.958 303.898 201.565 301.935C196.171 299.973 189.838 303.771 187.42 310.419C185.001 317.067 187.413 324.047 192.806 326.009C198.2 327.971 204.533 324.173 206.951 317.525Z" fill="#FFDAEC"/>
<path d="M246.751 337.115C246.183 337.115 245.606 337.017 245.042 336.812L205.146 322.291C202.551 321.347 201.213 318.478 202.158 315.883C203.102 313.288 205.972 311.951 208.566 312.895L248.462 327.416C251.057 328.36 252.395 331.229 251.45 333.824C250.711 335.854 248.794 337.115 246.751 337.115Z" fill="#FF5BA7"/>
<path d="M191.925 358.849C194.343 352.202 191.932 345.222 186.538 343.26C181.145 341.297 174.812 345.096 172.393 351.743C169.975 358.391 172.386 365.371 177.78 367.333C183.173 369.295 189.506 365.497 191.925 358.849Z" fill="#FFDAEC"/>
<path d="M231.712 378.436C231.144 378.436 230.567 378.338 230.003 378.133L190.107 363.612C187.512 362.668 186.174 359.799 187.119 357.204C188.063 354.609 190.932 353.272 193.527 354.216L233.423 368.737C236.018 369.681 237.356 372.55 236.411 375.145C235.672 377.175 233.754 378.436 231.712 378.436Z" fill="#FF5BA7"/>
<path d="M95.0801 350.676C103.62 350.676 110.543 343.753 110.543 335.213C110.543 326.673 103.62 319.75 95.0801 319.75C86.5401 319.75 79.6171 326.673 79.6171 335.213C79.6171 343.753 86.5401 350.676 95.0801 350.676Z" fill="#8298FD"/>
<path d="M90.1581 395.494C98.698 395.494 105.621 388.571 105.621 380.031C105.621 371.491 98.698 364.568 90.1581 364.568C81.6181 364.568 74.6951 371.491 74.6951 380.031C74.6951 388.571 81.6181 395.494 90.1581 395.494Z" fill="#8298FD"/>
<path d="M91.83 316.16L89.8 334.63L82.3 353.91L84.87 379.45L84.88 379.44L82.85 397.92C82.67 399.57 81.18 400.76 79.54 400.58L74.16 399.98C67.1 399.21 62.01 392.86 62.79 385.81L63.74 377.13V377.12L76.77 358.45L68.66 332.33L69.62 323.63C70.39 316.58 76.74 311.49 83.79 312.26L89.17 312.85C90.82 313.03 92.01 314.52 91.83 316.16Z" fill="#FFDAEC"/>
<path d="M68.7154 332.293L89.8498 334.611L84.9353 379.427L63.8009 377.11L68.7154 332.293Z" fill="#FFC3DE"/>
<path d="M163.613 457.391C173.31 457.391 181.17 449.531 181.17 439.834C181.17 430.138 173.31 422.277 163.613 422.277C153.917 422.277 146.056 430.138 146.056 439.834C146.056 449.531 153.917 457.391 163.613 457.391Z" fill="#8298FD"/>
<path d="M163.613 445.138C166.542 445.138 168.917 442.763 168.917 439.834C168.917 436.905 166.542 434.53 163.613 434.53C160.684 434.53 158.309 436.905 158.309 439.834C158.309 442.763 160.684 445.138 163.613 445.138Z" fill="#4369FC"/>
<path d="M145.79 449.66C143.232 450.073 142.07 453.065 143.644 455.124C150.658 464.303 163.34 467.707 174.241 462.624C185.142 457.541 190.686 445.638 188.163 434.364C187.597 431.835 184.558 430.801 182.598 432.496L175.378 438.736C169.658 443.68 162.675 446.936 155.211 448.14L145.79 449.66Z" fill="#B6C4FF"/>
<path d="M404.721 70.9899L432.394 65.0659C435.769 64.3439 439.268 64.5009 442.56 65.5399C446.46 66.7709 452.562 68.1199 459.384 67.5059C461.881 67.2809 464.134 69.0179 464.659 71.4689L465.097 73.5149C465.675 76.2149 463.955 78.8729 461.254 79.4509L408.929 90.6509L404.721 70.9899Z" fill="#FF5BA7"/>
<path d="M406.254 96.3009L383.901 101.086C381.201 101.664 378.543 99.9438 377.965 97.2428L373.692 77.2789C373.114 74.5789 374.834 71.9209 377.535 71.3429L399.888 66.5579C402.588 65.9799 405.246 67.6999 405.824 70.4009L410.097 90.3649C410.675 93.0649 408.954 95.7229 406.254 96.3009Z" fill="#FFDAEC"/>
<path d="M317.88 134.98L316.387 139.082C314.498 144.272 308.76 146.948 303.57 145.059L241.423 122.439C238.828 121.495 237.49 118.625 238.435 116.03L241.638 107.23C242.582 104.635 245.452 103.297 248.047 104.242L314.893 128.572C317.486 129.516 318.824 132.385 317.88 134.98Z" fill="#FFDAEC"/>
<path d="M330.479 271.599H318.53C311.363 271.599 305.533 277.43 305.533 284.596V305.968C305.533 308.729 307.772 310.968 310.533 310.968C313.294 310.968 315.533 308.729 315.533 305.968C315.533 304.316 316.877 302.971 318.53 302.971H328.831V329.522C326.15 328.074 323.086 327.249 319.831 327.249C309.354 327.249 300.831 335.772 300.831 346.249C300.831 356.726 309.354 365.249 319.831 365.249C330.308 365.249 338.831 356.726 338.831 346.249V294.619V279.951C338.831 275.346 335.084 271.599 330.479 271.599Z" fill="#01EBA4"/>
<path d="M310.533 281.857C307.772 281.857 305.533 284.096 305.533 286.857C305.533 288.509 304.189 289.854 302.536 289.854H287.458C283.047 289.854 279.458 293.443 279.458 297.854V298.109V316.226V342.394C276.777 340.946 273.713 340.121 270.458 340.121C259.981 340.121 251.458 348.644 251.458 359.121C251.458 369.598 259.981 378.121 270.458 378.121C280.935 378.121 289.458 369.598 289.458 359.121V321.226H302.536C309.703 321.226 315.533 315.396 315.533 308.229V286.857C315.533 284.096 313.294 281.857 310.533 281.857Z" fill="#96FFD1"/>
<path d="M196.448 84.644H184.498C177.331 84.644 171.501 90.474 171.501 97.641V119.013C171.501 121.774 173.74 124.013 176.501 124.013C179.262 124.013 181.501 121.774 181.501 119.013C181.501 117.361 182.845 116.016 184.498 116.016H194.8V142.567C192.119 141.119 189.055 140.294 185.8 140.294C175.323 140.294 166.8 148.817 166.8 159.294C166.8 169.771 175.323 178.294 185.8 178.294C196.277 178.294 204.8 169.771 204.8 159.294V107.665V92.996C204.8 88.391 201.053 84.644 196.448 84.644Z" fill="#01EBA4"/>
<path d="M176.502 94.9011C173.741 94.9011 171.502 97.1401 171.502 99.9011C171.502 101.553 170.158 102.898 168.505 102.898H153.427C149.016 102.898 145.427 106.487 145.427 110.898V111.153V155.437C142.746 153.989 139.682 153.164 136.427 153.164C125.95 153.164 117.427 161.687 117.427 172.164C117.427 182.641 125.95 191.164 136.427 191.164C146.904 191.164 155.427 182.641 155.427 172.164V134.27H168.505C175.672 134.27 181.502 128.439 181.502 121.273V99.9011C181.502 97.1401 179.263 94.9011 176.502 94.9011Z" fill="#96FFD1"/>
<path d="M284.458 447.541C277.283 447.541 271.446 441.704 271.446 434.529C271.446 427.354 277.283 421.517 284.458 421.517C291.633 421.517 297.47 427.354 297.47 434.529C297.47 441.704 291.633 447.541 284.458 447.541ZM284.458 431.517C282.797 431.517 281.446 432.868 281.446 434.529C281.446 436.19 282.797 437.541 284.458 437.541C286.119 437.541 287.47 436.19 287.47 434.529C287.47 432.868 286.119 431.517 284.458 431.517Z" fill="#01EBA4"/>
<path d="M72.079 197.949C64.904 197.949 59.067 192.112 59.067 184.937C59.067 177.762 64.904 171.925 72.079 171.925C79.254 171.925 85.091 177.762 85.091 184.937C85.091 192.112 79.253 197.949 72.079 197.949ZM72.079 181.926C70.418 181.926 69.067 183.277 69.067 184.938C69.067 186.599 70.418 187.95 72.079 187.95C73.74 187.95 75.091 186.599 75.091 184.938C75.091 183.277 73.74 181.926 72.079 181.926Z" fill="#8298FD"/>
<path d="M362.336 178.735C355.161 178.735 349.324 172.898 349.324 165.723C349.324 158.548 355.161 152.711 362.336 152.711C369.511 152.711 375.348 158.548 375.348 165.723C375.348 172.898 369.511 178.735 362.336 178.735ZM362.336 162.712C360.675 162.712 359.324 164.063 359.324 165.724C359.324 167.385 360.675 168.736 362.336 168.736C363.997 168.736 365.348 167.385 365.348 165.724C365.348 164.063 363.997 162.712 362.336 162.712Z" fill="#8298FD"/>
<path d="M211.378 64.311C208.617 64.311 206.378 62.072 206.378 59.311C206.378 56.278 203.911 53.811 200.878 53.811C198.117 53.811 195.878 51.572 195.878 48.811C195.878 46.05 198.117 43.811 200.878 43.811C203.911 43.811 206.378 41.344 206.378 38.311C206.378 35.55 208.617 33.311 211.378 33.311C214.139 33.311 216.378 35.55 216.378 38.311C216.378 41.344 218.845 43.811 221.878 43.811C224.639 43.811 226.878 46.05 226.878 48.811C226.878 51.572 224.639 53.811 221.878 53.811C218.845 53.811 216.378 56.278 216.378 59.311C216.378 62.072 214.139 64.311 211.378 64.311Z" fill="#01EBA4"/>
<path d="M338.831 423.663C336.07 423.663 333.831 421.424 333.831 418.663C333.831 415.63 331.364 413.163 328.331 413.163C325.57 413.163 323.331 410.924 323.331 408.163C323.331 405.402 325.57 403.163 328.331 403.163C331.364 403.163 333.831 400.696 333.831 397.663C333.831 394.902 336.07 392.663 338.831 392.663C341.592 392.663 343.831 394.902 343.831 397.663C343.831 400.696 346.298 403.163 349.331 403.163C352.092 403.163 354.331 405.402 354.331 408.163C354.331 410.924 352.092 413.163 349.331 413.163C346.298 413.163 343.831 415.63 343.831 418.663C343.831 421.424 341.592 423.663 338.831 423.663Z" fill="#FF7EB7"/>
</svg>
