<svg width="512" height="512" viewBox="0 0 512 512" fill="none" xmlns="http://www.w3.org/2000/svg">
<path d="M195.75 91.6401C195.75 117.75 181.45 140.53 160.25 152.55H91.25C70.05 140.53 55.75 117.75 55.75 91.6401C55.75 52.9801 87.09 21.6401 125.75 21.6401C164.41 21.6401 195.75 52.9801 195.75 91.6401Z" fill="#FF4D4D"/>
<path d="M125.747 161.641C138.29 161.641 150.052 158.326 160.233 152.548L146.496 146.39C141.267 144.046 137.902 138.849 137.902 133.119V111.634H113.591V133.119C113.591 138.849 110.226 144.046 104.997 146.39L91.26 152.548C101.443 158.326 113.204 161.641 125.747 161.641Z" fill="#FFD8D8"/>
<path d="M105.372 92.8449C105.372 99.6139 99.884 105.102 93.115 105.102C86.346 105.102 80.858 99.6139 80.858 92.8449C80.858 86.0759 86.346 80.5879 93.115 80.5879C99.885 80.5879 105.372 86.0759 105.372 92.8449Z" fill="#FFD8D8"/>
<path d="M158.38 105.102C165.149 105.102 170.637 99.6142 170.637 92.8449C170.637 86.0755 165.149 80.5879 158.38 80.5879C151.611 80.5879 146.123 86.0755 146.123 92.8449C146.123 99.6142 151.611 105.102 158.38 105.102Z" fill="#FFD8D8"/>
<path d="M137.903 111.635V133.12C137.903 136.126 138.836 138.98 140.471 141.357C136.117 143.874 131.08 145.305 125.748 145.305C120.415 145.305 115.378 143.873 111.025 141.357C112.66 138.98 113.593 136.126 113.593 133.12V111.635H137.903Z" fill="#FFB2B2"/>
<path d="M93.3741 82.7219L96.6381 103.923C98.8501 118.29 111.212 128.895 125.748 128.895C140.284 128.895 152.647 118.29 154.858 103.923L158.122 82.7219C161.177 62.8789 145.824 44.9829 125.748 44.9829C105.671 44.9839 90.3191 62.8799 93.3741 82.7219Z" fill="#FFEDED"/>
<path d="M139.783 93.5151C137.752 93.5151 136.105 91.8691 136.105 89.8371V88.2561C136.105 86.2251 137.752 84.5781 139.783 84.5781C141.814 84.5781 143.461 86.2241 143.461 88.2561V89.8371C143.461 91.8691 141.814 93.5151 139.783 93.5151Z" fill="#8282FF"/>
<path d="M111.712 93.5151C109.681 93.5151 108.034 91.8691 108.034 89.8371V88.2561C108.034 86.2251 109.681 84.5781 111.712 84.5781C113.743 84.5781 115.39 86.2241 115.39 88.2561V89.8371C115.389 91.8691 113.743 93.5151 111.712 93.5151Z" fill="#8282FF"/>
<path d="M197.592 403.651H313.973V428.22H197.592V403.651Z" fill="#FF8A00"/>
<path d="M313.079 458.271H198.486C195.725 458.271 193.486 456.032 193.486 453.271C193.486 450.51 195.725 448.271 198.486 448.271H313.079C315.841 448.271 318.079 450.51 318.079 453.271C318.079 456.032 315.841 458.271 313.079 458.271Z" fill="#FF8A00"/>
<path d="M200.22 476.314L219.701 310.406H188.871L169.527 475.147C169.178 478.119 171.5 480.73 174.493 480.73H195.254C197.79 480.731 199.924 478.833 200.22 476.314Z" fill="#FFAA66"/>
<path d="M219.705 310.409L212.595 370.969C202.235 367.409 192.455 362.599 183.435 356.709L188.875 310.409H219.705Z" fill="#FF9C33"/>
<path d="M342.038 475.148L322.694 310.407H291.864L311.345 476.315C311.641 478.834 313.775 480.732 316.311 480.732H337.072C340.064 480.731 342.387 478.12 342.038 475.148Z" fill="#FFAA66"/>
<path d="M328.135 356.709C319.115 362.589 309.335 367.409 298.975 370.969L291.865 310.409H322.695L328.135 356.709Z" fill="#FF9C33"/>
<path d="M125.75 161.641C164.41 161.641 195.75 130.301 195.75 91.6411C195.75 52.9812 164.41 21.6411 125.75 21.6411C87.0901 21.6411 55.75 52.9812 55.75 91.6411C55.75 130.301 87.0901 161.641 125.75 161.641Z" fill="url(#paint0_linear_13_647)"/>
<path d="M255.782 354.164C329.069 354.164 388.479 294.754 388.479 221.467C388.479 148.18 329.069 88.77 255.782 88.77C182.495 88.77 123.085 148.18 123.085 221.467C123.085 294.754 182.495 354.164 255.782 354.164Z" fill="#FF6C6C"/>
<path d="M388.48 221.47C388.48 254.8 376.19 285.26 355.9 308.57H355.89C332.44 297.26 316.25 273.25 316.25 245.47C316.25 208.79 344.47 178.69 380.38 175.71C385.62 189.97 388.48 205.39 388.48 221.47Z" fill="#FF4D4D"/>
<path d="M242.26 252.91L196.91 293.58C190.47 299.35 180.23 294.78 180.23 286.13V268.52H131.68C126.23 254.18 123.21 238.64 123.1 222.41H180.23V204.8C180.23 196.15 190.47 191.58 196.91 197.35L242.26 238.02C246.7 242 246.7 248.94 242.26 252.91Z" fill="#FF4D4D"/>
<path d="M328.338 294.078C368.437 253.978 368.437 188.964 328.338 148.864C288.238 108.765 223.224 108.765 183.124 148.864C143.025 188.964 143.025 253.978 183.124 294.078C223.224 334.178 288.238 334.178 328.338 294.078Z" fill="white"/>
<path d="M358.48 221.47C358.48 247.77 348.54 271.78 332.23 289.97C322.24 277.87 316.25 262.37 316.25 245.47C316.25 219.41 330.5 196.67 351.63 184.62C356.06 196.06 358.48 208.49 358.48 221.47Z" fill="#D8D8FF"/>
<path d="M242.26 252.91L196.91 293.58C190.47 299.35 180.23 294.78 180.23 286.13V268.52H164.52C157.35 254.68 153.24 239.01 153.1 222.41H180.23V204.8C180.23 196.15 190.47 191.58 196.91 197.35L242.26 238.02C246.7 242 246.7 248.94 242.26 252.91Z" fill="#D8D8FF"/>
<path d="M283.725 288.585C320.823 273.208 338.432 230.668 323.054 193.57C307.677 156.472 265.138 138.864 228.039 154.241C190.941 169.618 173.333 212.158 188.71 249.256C204.088 286.354 246.627 303.962 283.725 288.585Z" fill="#FF6C6C"/>
<path d="M242.26 252.91L212.35 279.73C194.6 266.46 183.09 245.29 183.09 221.47C183.09 212.15 184.85 203.23 188.07 195.04C191.01 194.36 194.28 194.99 196.91 197.35L242.26 238.02C246.7 242 246.7 248.94 242.26 252.91Z" fill="#FF4D4D"/>
<path d="M328.48 221.47C328.48 235.43 324.53 248.48 317.67 259.56C316.74 255.01 316.25 250.3 316.25 245.47C316.25 231.63 320.27 218.73 327.2 207.87C328.04 212.28 328.48 216.82 328.48 221.47Z" fill="#FF4D4D"/>
<path d="M272.235 260.865C294.024 251.834 304.366 226.849 295.334 205.06C286.303 183.271 261.318 172.93 239.529 181.961C217.741 190.993 207.399 215.977 216.43 237.766C225.462 259.555 250.447 269.897 272.235 260.865Z" fill="white"/>
<path d="M255.782 234.164C248.781 234.164 243.085 228.468 243.085 221.467C243.085 214.466 248.781 208.77 255.782 208.77C262.783 208.77 268.479 214.466 268.479 221.467C268.479 228.468 262.783 234.164 255.782 234.164Z" fill="#FF6C6C"/>
<path d="M242.26 238.02L214 212.676C213.404 215.514 213.085 218.454 213.085 221.467C213.085 237.657 222.143 251.771 235.458 259.009L242.26 252.91C246.7 248.94 246.7 242 242.26 238.02Z" fill="#D8D8FF"/>
<path d="M319.47 420.935H319.355C316.593 420.935 314.355 418.696 314.355 415.935C314.355 413.174 316.593 410.935 319.355 410.935H319.47C322.232 410.935 324.47 413.174 324.47 415.935C324.47 418.696 322.231 420.935 319.47 420.935Z" fill="#FF8A00"/>
<path d="M192.21 420.935H192.095C189.334 420.935 187.095 418.696 187.095 415.935C187.095 413.174 189.334 410.935 192.095 410.935H192.21C194.971 410.935 197.21 413.174 197.21 415.935C197.21 418.696 194.972 420.935 192.21 420.935Z" fill="#FF8A00"/>
<path d="M196.91 269.58L242.264 228.913C246.696 224.939 246.696 217.997 242.264 214.023L196.91 173.356C190.471 167.582 180.234 172.152 180.234 180.801V198.412H65.379C62.618 198.412 60.379 200.651 60.379 203.412V239.525C60.379 242.286 62.618 244.525 65.379 244.525H180.234V262.136C180.234 270.784 190.471 275.354 196.91 269.58Z" fill="#FFAA66"/>
<path d="M163.665 226.59H89.646C86.885 226.59 84.646 224.351 84.646 221.59C84.646 218.829 86.885 216.59 89.646 216.59H163.665C166.426 216.59 168.665 218.829 168.665 221.59C168.665 224.351 166.426 226.59 163.665 226.59Z" fill="#FFD5BA"/>
<path d="M434.38 393.677C433.349 393.677 432.318 393.359 431.441 392.722L427.583 389.918L423.723 392.722C421.971 393.995 419.598 393.995 417.846 392.722C416.093 391.449 415.36 389.192 416.03 387.132L417.504 382.594L413.646 379.79C411.893 378.517 411.16 376.26 411.83 374.2C412.499 372.14 414.419 370.745 416.585 370.745H421.356L422.831 366.208C423.5 364.148 425.42 362.753 427.586 362.753C429.752 362.753 431.672 364.148 432.341 366.208L433.816 370.745H438.587C440.753 370.745 442.673 372.14 443.342 374.2C444.012 376.26 443.279 378.517 441.526 379.79L437.667 382.594L439.141 387.131C439.811 389.191 439.078 391.448 437.325 392.721C436.442 393.359 435.411 393.677 434.38 393.677Z" fill="#FF6C6C"/>
<path d="M61.989 300.095C60.958 300.095 59.927 299.777 59.05 299.14L55.19 296.336L51.331 299.14C49.579 300.413 47.206 300.413 45.453 299.14C43.701 297.867 42.967 295.61 43.637 293.55L45.112 289.013L41.252 286.209C39.5 284.936 38.766 282.679 39.436 280.619C40.106 278.559 42.025 277.164 44.191 277.164H48.962L50.436 272.627C51.105 270.567 53.025 269.172 55.191 269.172C57.357 269.172 59.277 270.567 59.946 272.627L61.42 277.164H66.191C68.357 277.164 70.277 278.559 70.946 280.619C71.615 282.679 70.882 284.936 69.13 286.209L65.271 289.013L66.746 293.55C67.415 295.61 66.682 297.867 64.93 299.14C64.052 299.777 63.02 300.095 61.989 300.095Z" fill="#FF6C6C"/>
<path d="M385.896 96.05C384.865 96.05 383.834 95.732 382.957 95.095L379.099 92.291L375.239 95.095C373.487 96.368 371.114 96.368 369.362 95.095C367.609 93.822 366.876 91.565 367.546 89.505L369.02 84.967L365.161 82.163C363.409 80.89 362.676 78.633 363.346 76.573C364.015 74.513 365.935 73.118 368.101 73.118H372.872L374.347 68.581C375.016 66.521 376.936 65.126 379.102 65.126C381.268 65.126 383.188 66.521 383.857 68.581L385.332 73.118H390.103C392.269 73.118 394.189 74.513 394.858 76.573C395.528 78.633 394.795 80.89 393.042 82.163L389.183 84.968L390.657 89.505C391.327 91.565 390.594 93.822 388.841 95.095C387.958 95.731 386.927 96.05 385.896 96.05Z" fill="#FF9C33"/>
<path d="M121.395 398.401C113.124 398.401 106.395 391.672 106.395 383.401C106.395 375.13 113.124 368.401 121.395 368.401C129.666 368.401 136.395 375.13 136.395 383.401C136.395 391.672 129.666 398.401 121.395 398.401ZM121.395 378.401C118.638 378.401 116.395 380.644 116.395 383.401C116.395 386.158 118.638 388.401 121.395 388.401C124.152 388.401 126.395 386.158 126.395 383.401C126.395 380.644 124.151 378.401 121.395 378.401Z" fill="#8282FF"/>
<path d="M459.089 338.338C450.818 338.338 444.089 331.609 444.089 323.338C444.089 315.067 450.818 308.338 459.089 308.338C467.36 308.338 474.089 315.067 474.089 323.338C474.089 331.609 467.36 338.338 459.089 338.338ZM459.089 318.338C456.332 318.338 454.089 320.581 454.089 323.338C454.089 326.095 456.332 328.338 459.089 328.338C461.846 328.338 464.089 326.095 464.089 323.338C464.089 320.581 461.846 318.338 459.089 318.338Z" fill="#FF9C33"/>
<defs>
<linearGradient id="paint0_linear_13_647" x1="125.75" y1="168.784" x2="125.75" y2="14.7311" gradientUnits="userSpaceOnUse">
<stop stop-color="#FF4D4D" stop-opacity="0.4"/>
<stop offset="0.1463" stop-color="#FF4D4D" stop-opacity="0.342"/>
<stop offset="1" stop-color="#FF4D4D" stop-opacity="0"/>
</linearGradient>
</defs>
</svg>
