<svg width="512" height="512" viewBox="0 0 512 512" fill="none" xmlns="http://www.w3.org/2000/svg">
<path d="M252.688 414.703C165.179 414.703 93.985 343.509 93.985 256C93.985 168.491 165.179 97.2974 252.688 97.2974C340.197 97.2974 411.39 168.491 411.39 256C411.39 343.509 340.196 414.703 252.688 414.703ZM252.688 133.536C185.161 133.536 130.224 188.473 130.224 256C130.224 323.527 185.161 378.464 252.688 378.464C320.215 378.464 375.152 323.527 375.152 256C375.152 188.473 320.214 133.536 252.688 133.536Z" fill="#FF7EB8"/>
<path d="M136.176 218.289H98.526C95.568 230.381 93.987 243.008 93.987 256C93.987 277.25 98.187 297.54 105.797 316.07H145.997C135.957 298.31 130.227 277.81 130.227 256C130.228 242.846 132.32 230.174 136.176 218.289Z" fill="#FF5BA8"/>
<path d="M430.158 236.54V422.81C430.158 432.26 422.498 439.92 413.048 439.92H226.778C217.328 439.92 209.668 432.26 209.668 422.81V236.54C209.668 227.09 217.328 219.43 226.778 219.43H413.048C422.498 219.43 430.158 227.09 430.158 236.54Z" fill="#01ECA5"/>
<path d="M238.296 260.2C243.858 260.2 248.367 255.691 248.367 250.129C248.367 244.567 243.858 240.058 238.296 240.058C232.734 240.058 228.225 244.567 228.225 250.129C228.225 255.691 232.734 260.2 238.296 260.2Z" fill="#FFA8CF"/>
<path d="M401.529 260.2C407.091 260.2 411.6 255.691 411.6 250.129C411.6 244.567 407.091 240.058 401.529 240.058C395.967 240.058 391.458 244.567 391.458 250.129C391.458 255.691 395.967 260.2 401.529 260.2Z" fill="#02FFB3"/>
<path d="M289.178 219.43V298.96C289.178 308.41 281.528 316.07 272.078 316.07H209.668V236.54C209.668 227.09 217.328 219.43 226.778 219.43H289.178Z" fill="#00D890"/>
<path d="M322.851 399.574C363.581 399.574 396.6 366.556 396.6 325.825C396.6 285.095 363.581 252.076 322.851 252.076C282.121 252.076 249.102 285.095 249.102 325.825C249.102 366.556 282.121 399.574 322.851 399.574Z" fill="#02FFB3"/>
<path d="M289.178 260.2V298.96C289.178 308.41 281.528 316.07 272.078 316.07H249.738C252.958 291.66 268.128 271.02 289.178 260.2Z" fill="#01ECA5"/>
<path d="M272.839 265.881H314.691C320.229 265.881 324.719 261.391 324.719 255.853C324.719 250.315 320.229 245.825 314.691 245.825H272.839C267.301 245.825 262.811 250.315 262.811 255.853C262.811 261.391 267.301 265.881 272.839 265.881Z" fill="white"/>
<path d="M351.86 286.9C351.86 281.362 347.37 276.872 341.832 276.872H245.699C240.161 276.872 235.671 281.362 235.671 286.9C235.671 292.438 240.161 296.928 245.699 296.928H341.832C347.37 296.928 351.86 292.439 351.86 286.9Z" fill="white"/>
<path d="M289.178 276.87V296.93H245.698C240.158 296.93 235.668 292.44 235.668 286.9C235.668 281.36 240.158 276.87 245.698 276.87H289.178Z" fill="#D2DEFF"/>
<path d="M368.719 385.769H282.867V376.614C282.867 371.076 278.377 366.586 272.839 366.586C267.301 366.586 262.811 371.076 262.811 376.614V395.797C262.811 401.335 267.301 405.825 272.839 405.825H368.719C374.257 405.825 378.747 401.335 378.747 395.797C378.747 390.259 374.257 385.769 368.719 385.769Z" fill="white"/>
<path d="M383.938 306.368H378.747V255.853C378.747 250.315 374.257 245.825 368.719 245.825C363.181 245.825 358.691 250.315 358.691 255.853V365.359C358.691 370.897 363.181 375.387 368.719 375.387C374.257 375.387 378.747 370.897 378.747 365.359V326.423H383.938C389.476 326.423 393.966 321.933 393.966 316.395C393.966 310.857 389.476 306.368 383.938 306.368Z" fill="white"/>
<path d="M331.328 333.583C331.328 318.188 314.637 306.579 292.504 306.579C270.371 306.579 253.68 318.188 253.68 333.583C253.68 348.978 270.371 360.588 292.504 360.588C314.637 360.587 331.328 348.978 331.328 333.583ZM273.736 333.583C273.736 331.908 280.599 326.634 292.505 326.634C304.411 326.634 311.274 331.907 311.274 333.583C311.274 335.258 304.411 340.532 292.505 340.532C280.599 340.532 273.736 335.258 273.736 333.583Z" fill="white"/>
<path d="M262.488 316.07H272.078C278.698 316.07 284.428 312.31 287.278 306.81C277.158 307.67 268.488 311.04 262.488 316.07Z" fill="#D2DEFF"/>
<path d="M272.075 292.072H85.802C76.354 292.072 68.695 284.413 68.695 274.965V88.6915C68.695 79.2435 76.354 71.5845 85.802 71.5845H272.076C281.524 71.5845 289.183 79.2435 289.183 88.6915V274.965C289.183 284.413 281.523 292.072 272.075 292.072Z" fill="#6583FE"/>
<path d="M178.939 255.578C219.669 255.578 252.688 222.559 252.688 181.829C252.688 141.098 219.669 108.08 178.939 108.08C138.209 108.08 105.19 141.098 105.19 181.829C105.19 222.559 138.209 255.578 178.939 255.578Z" fill="#8399FE"/>
<path d="M245.122 245.009L190.276 109.473C188.406 104.854 183.921 101.83 178.938 101.83C173.955 101.83 169.47 104.854 167.601 109.473L112.754 245.009C110.22 251.27 113.242 258.4 119.503 260.934C125.761 263.468 132.894 260.446 135.428 254.185L148.311 222.35H209.564L222.447 254.185C224.373 258.944 228.952 261.831 233.789 261.831C235.316 261.831 236.87 261.543 238.372 260.935C244.634 258.4 247.656 251.27 245.122 245.009ZM158.211 197.888L178.939 146.665L199.667 197.888H158.211Z" fill="white"/>
<path d="M385.621 104.548L422.447 128.302C425.774 130.448 430.157 128.06 430.157 124.1V76.5923C430.157 72.6333 425.774 70.2443 422.447 72.3903L385.621 96.1443C382.568 98.1143 382.568 102.579 385.621 104.548Z" fill="#00D890"/>
<path d="M113.231 406.955L76.405 383.201C73.078 381.055 68.695 383.443 68.695 387.403V434.912C68.695 438.871 73.078 441.26 76.405 439.114L113.231 415.36C116.284 413.39 116.284 408.925 113.231 406.955Z" fill="#00D890"/>
<path d="M97.322 111.9C102.884 111.9 107.393 107.391 107.393 101.829C107.393 96.2672 102.884 91.7583 97.322 91.7583C91.7599 91.7583 87.251 96.2672 87.251 101.829C87.251 107.391 91.7599 111.9 97.322 111.9Z" fill="#8399FE"/>
<path d="M260.555 111.9C266.117 111.9 270.626 107.391 270.626 101.829C270.626 96.2672 266.117 91.7583 260.555 91.7583C254.993 91.7583 250.484 96.2672 250.484 101.829C250.484 107.391 254.993 111.9 260.555 111.9Z" fill="#8399FE"/>
<path d="M68.694 359.583C67.414 359.583 66.135 359.095 65.158 358.119L54.658 347.619C52.705 345.666 52.705 342.5 54.658 340.548L65.158 330.048C67.111 328.096 70.276 328.096 72.229 330.048L82.729 340.548C84.682 342.501 84.682 345.667 82.729 347.619L72.229 358.119C71.254 359.095 69.974 359.583 68.694 359.583ZM65.266 344.083L68.695 347.512L72.124 344.083L68.695 340.654L65.266 344.083Z" fill="#01ECA5"/>
<path d="M438.639 483.368C437.359 483.368 436.08 482.88 435.103 481.904L424.603 471.404C422.65 469.451 422.65 466.285 424.603 464.333L435.103 453.833C437.056 451.881 440.221 451.881 442.174 453.833L452.674 464.333C454.627 466.286 454.627 469.452 452.674 471.404L442.174 481.904C441.198 482.879 439.919 483.368 438.639 483.368ZM435.21 467.868L438.639 471.297L442.068 467.868L438.639 464.439L435.21 467.868Z" fill="#01ECA5"/>
<path d="M287.277 53.0981C285.997 53.0981 284.718 52.6101 283.741 51.6341L273.241 41.1341C271.288 39.1811 271.288 36.0151 273.241 34.0631L283.741 23.5631C285.694 21.6111 288.859 21.6111 290.812 23.5631L301.312 34.0631C303.265 36.0161 303.265 39.1821 301.312 41.1341L290.812 51.6341C289.837 52.6091 288.557 53.0981 287.277 53.0981ZM283.849 37.5981L287.278 41.0271L290.707 37.5981L287.278 34.1691L283.849 37.5981Z" fill="#01ECA5"/>
<path d="M449.604 187.737C448.573 187.737 447.542 187.419 446.665 186.782L442.806 183.978L438.947 186.782C437.195 188.055 434.822 188.055 433.069 186.782C431.317 185.509 430.583 183.252 431.253 181.192L432.727 176.654L428.868 173.85C427.116 172.577 426.382 170.32 427.052 168.26C427.722 166.2 429.641 164.805 431.807 164.805H436.578L438.052 160.268C438.721 158.208 440.641 156.813 442.807 156.813C444.973 156.813 446.893 158.208 447.562 160.268L449.036 164.805H453.807C455.973 164.805 457.893 166.2 458.562 168.26C459.231 170.32 458.498 172.577 456.746 173.85L452.887 176.654L454.361 181.192C455.03 183.252 454.297 185.509 452.545 186.782C451.666 187.419 450.635 187.737 449.604 187.737Z" fill="#FF7EB8"/>
<path d="M352.476 63.5212C351.445 63.5212 350.414 63.2032 349.537 62.5662L345.678 59.7622L341.819 62.5662C340.067 63.8392 337.694 63.8392 335.941 62.5662C334.189 61.2932 333.455 59.0362 334.125 56.9762L335.599 52.4382L331.74 49.6342C329.988 48.3612 329.254 46.1042 329.924 44.0442C330.594 41.9842 332.513 40.5892 334.679 40.5892H339.45L340.924 36.0522C341.593 33.9922 343.513 32.5972 345.679 32.5972C347.845 32.5972 349.765 33.9922 350.434 36.0522L351.908 40.5892H356.679C358.845 40.5892 360.765 41.9842 361.434 44.0442C362.103 46.1042 361.37 48.3612 359.618 49.6342L355.759 52.4382L357.233 56.9762C357.902 59.0362 357.169 61.2932 355.417 62.5662C354.538 63.2032 353.507 63.5212 352.476 63.5212Z" fill="#8399FE"/>
</svg>
