<svg width="32" height="32" viewBox="0 0 32 32" fill="#767676" xmlns="http://www.w3.org/2000/svg">
<g clip-path="url(#clip0_519_751)">
<path d="M17.3333 27.3333C17.3333 27.7013 17.0347 28 16.6667 28H6C2.692 28 0 25.308 0 22V6C0 2.692 2.692 0 6 0H22C25.308 0 28 2.692 28 6V16.6667C28 17.0347 27.7013 17.3333 27.3333 17.3333C26.9653 17.3333 26.6667 17.0347 26.6667 16.6667V6C26.6667 3.42667 24.5733 1.33333 22 1.33333H6C3.42667 1.33333 1.33333 3.42667 1.33333 6V17.1147L6.41467 12.0333C8.17733 10.2707 11.252 10.2707 13.0147 12.0333L22.4733 21.5293C22.7333 21.7893 22.732 22.212 22.4733 22.472C22.3427 22.6013 22.172 22.6667 22.0027 22.6667C21.832 22.6667 21.6613 22.6013 21.5307 22.4707L12.072 12.976C10.8147 11.7187 8.61733 11.7173 7.35867 12.976L1.33333 19V22C1.33333 24.5733 3.42667 26.6667 6 26.6667H16.6667C17.0347 26.6667 17.3333 26.9653 17.3333 27.3333ZM22.6667 7.33333C22.6667 9.172 21.1707 10.6667 19.3333 10.6667C17.496 10.6667 16 9.172 16 7.33333C16 5.49467 17.496 4 19.3333 4C21.1707 4 22.6667 5.49467 22.6667 7.33333ZM21.3333 7.33333C21.3333 6.23067 20.436 5.33333 19.3333 5.33333C18.2307 5.33333 17.3333 6.23067 17.3333 7.33333C17.3333 8.436 18.2307 9.33333 19.3333 9.33333C20.436 9.33333 21.3333 8.436 21.3333 7.33333ZM31.3333 25.3333H26.6667V20.6667C26.6667 20.2987 26.368 20 26 20C25.632 20 25.3333 20.2987 25.3333 20.6667V25.3333H20.6667C20.2987 25.3333 20 25.632 20 26C20 26.368 20.2987 26.6667 20.6667 26.6667H25.3333V31.3333C25.3333 31.7013 25.632 32 26 32C26.368 32 26.6667 31.7013 26.6667 31.3333V26.6667H31.3333C31.7013 26.6667 32 26.368 32 26C32 25.632 31.7013 25.3333 31.3333 25.3333Z" />
</g>
<defs>
<clipPath id="clip0_519_751">
<rect width="32" height="32" />
</clipPath>
</defs>
</svg>
