<svg xmlns="http://www.w3.org/2000/svg" width="16" height="16" viewBox="0 0 16 16" fill="none">
    <path d="M12.667 0C13.5506 0.00114708 14.3976 0.352727 15.0225 0.977539C15.6473 1.60235 15.9989 2.4494 16 3.33301V10.8955C16.0011 11.3333 15.9157 11.7674 15.748 12.1719C15.5804 12.5763 15.3338 12.9433 15.0234 13.252L13.2529 15.0244C12.9441 15.3348 12.5764 15.5805 12.1719 15.748C11.7673 15.9156 11.3334 16.0012 10.8955 16H3.33301C2.4494 15.9989 1.60235 15.6473 0.977539 15.0225C0.352727 14.3976 0.00114708 13.5506 0 12.667V3.33301C0.00114381 2.4494 0.352724 1.60235 0.977539 0.977539C1.60235 0.352724 2.4494 0.00114381 3.33301 0H12.667ZM3.33301 1.33301C2.80269 1.33309 2.29394 1.54395 1.91895 1.91895C1.54395 2.29394 1.33309 2.80269 1.33301 3.33301V12.667C1.3331 13.1973 1.54395 13.7061 1.91895 14.0811C2.29394 14.456 2.80269 14.6669 3.33301 14.667H10V12C10 11.4696 10.2109 10.961 10.5859 10.5859C10.961 10.2109 11.4696 10 12 10H14.667V3.33301C14.6669 2.80269 14.456 2.29394 14.0811 1.91895C13.7061 1.54395 13.1973 1.3331 12.667 1.33301H3.33301ZM12 11.333C11.8232 11.333 11.6533 11.4033 11.5283 11.5283C11.4033 11.6533 11.333 11.8232 11.333 12V14.6143C11.7028 14.5333 12.0416 14.3484 12.3096 14.0811L14.083 12.3096C14.349 12.0409 14.5337 11.702 14.6162 11.333H12ZM5.28906 3.0293C5.42759 3.02973 5.56294 3.07188 5.67773 3.14941C5.79243 3.2269 5.88146 3.33662 5.93359 3.46484L7.77637 8.34961C7.8035 8.42166 7.81694 8.49824 7.81445 8.5752C7.81196 8.65206 7.79436 8.72777 7.7627 8.79785C7.73093 8.86804 7.68511 8.93168 7.62891 8.98438C7.57275 9.03697 7.50657 9.07833 7.43457 9.10547C7.36257 9.13256 7.28587 9.14506 7.20898 9.14258C7.1321 9.1401 7.05643 9.12249 6.98633 9.09082C6.91614 9.05906 6.8525 9.01324 6.7998 8.95703C6.74723 8.90088 6.70584 8.83467 6.67871 8.7627L6.36426 7.93066H4.19629L3.87793 8.76465C3.83517 8.8751 3.75978 8.97013 3.66211 9.03711C3.56437 9.10406 3.44854 9.14062 3.33008 9.14062C3.25891 9.14025 3.18771 9.12663 3.12109 9.10156C3.04933 9.07423 2.98364 9.03312 2.92773 8.98047C2.87174 8.92767 2.82646 8.86414 2.79492 8.79395C2.76337 8.72361 2.74537 8.64737 2.74316 8.57031C2.74097 8.49329 2.75477 8.41672 2.78223 8.34473L4.63672 3.47754C4.68782 3.34607 4.77728 3.23219 4.89355 3.15234C5.00986 3.07252 5.148 3.02973 5.28906 3.0293ZM9.42188 3.0293C9.57742 3.0293 9.72693 3.09119 9.83691 3.20117C9.94685 3.31115 10.0088 3.4607 10.0088 3.61621V8.55371C10.0088 8.70922 9.94686 8.85877 9.83691 8.96875C9.72693 9.07874 9.57742 9.14062 9.42188 9.14062C9.26633 9.14062 9.11682 9.07874 9.00684 8.96875C8.89689 8.85877 8.83496 8.70923 8.83496 8.55371V3.61621C8.83521 3.46074 8.89788 3.31111 9.00781 3.20117C9.11771 3.0915 9.2666 3.02954 9.42188 3.0293ZM4.64258 6.75488H5.92188L5.28418 5.06543L4.64258 6.75488Z" fill="url(#paint0_linear_40_157)"/>
    <defs>
        <linearGradient id="paint0_linear_40_157" x1="0" y1="8" x2="16" y2="8" gradientUnits="userSpaceOnUse">
            <stop stop-color="#8298FD"/>
            <stop offset="0.5" stop-color="#6C6CFF"/>
            <stop offset="1" stop-color="#FF2D55"/>
        </linearGradient>
    </defs>
</svg>
