<svg width="81" height="72" viewBox="0 0 81 72" fill="none" xmlns="http://www.w3.org/2000/svg">
<path d="M34.5179 3.45485L0.926401 61.6328C0.31962 62.6834 0.000112302 63.8753 2.9599e-08 65.0885C-0.000112243 66.3017 0.319175 67.4936 0.925762 68.5444C1.53235 69.5951 2.40486 70.4676 3.45557 71.0742C4.50629 71.6808 5.69818 72.0001 6.91143 72H74.089C75.3023 72.0001 76.4942 71.6808 77.5449 71.0742C78.5956 70.4676 79.4681 69.5951 80.0747 68.5444C80.6813 67.4936 81.0006 66.3017 81.0004 65.0885C81.0003 63.8753 80.6808 62.6834 80.074 61.6328L46.4861 3.45485C45.8797 2.40444 45.0074 1.53217 43.9569 0.92572C42.9065 0.319269 41.7149 0 40.502 0C39.2891 0 38.0975 0.319269 37.0471 0.92572C35.9967 1.53217 35.1244 2.40444 34.5179 3.45485Z" fill="#FF2D55"/>
<path d="M40.9401 21.3979H40.0639C37.9066 21.3979 36.1577 23.1468 36.1577 25.3041V43.975C36.1577 46.1323 37.9066 47.8812 40.0639 47.8812H40.9401C43.0975 47.8812 44.8463 46.1323 44.8463 43.975V25.3041C44.8463 23.1468 43.0975 21.3979 40.9401 21.3979Z" fill="#FFCC00"/>
<path d="M40.502 62.6891C42.9013 62.6891 44.8463 60.7441 44.8463 58.3448C44.8463 55.9455 42.9013 54.0005 40.502 54.0005C38.1027 54.0005 36.1577 55.9455 36.1577 58.3448C36.1577 60.7441 38.1027 62.6891 40.502 62.6891Z" fill="#FFCC00"/>
</svg>
