<svg width="32" height="32" viewBox="0 0 32 32" fill="black" xmlns="http://www.w3.org/2000/svg">
<path d="M25.333 0C29.009 0 32 2.99099 32 6.66699V19.9053C32 22.0413 31.1679 24.0492 29.6572 25.5625L25.5615 29.6562C24.0523 31.1682 22.0428 31.9999 19.9043 32H6.66699C2.99099 32 0 29.009 0 25.333V6.66699C0 2.99099 2.99099 0 6.66699 0H25.333ZM6.66699 2.66699C4.46166 2.66699 2.66699 4.46166 2.66699 6.66699V25.333C2.66699 27.5383 4.46166 29.333 6.66699 29.333C6.74259 29.333 19.9679 29.332 20 29.332V24C20 21.7947 21.7947 20 24 20H29.332V6.66699C29.332 4.46167 27.5374 2.66701 25.332 2.66699H6.66699ZM24 22.667C23.2653 22.667 22.667 23.264 22.667 24V28.5654C23.0295 28.3455 23.3679 28.0803 23.6758 27.7725L27.7725 23.6787V23.6777C28.0804 23.3698 28.3455 23.0296 28.5654 22.667H24ZM15.9482 9.33301C16.6841 9.33314 17.2812 9.92974 17.2812 10.667V14.667H21.2812C22.0172 14.667 22.6143 15.2627 22.6143 16C22.6143 16.7373 22.0173 17.333 21.2812 17.333H17.2812V21.333C17.2812 22.0703 16.6841 22.6669 15.9482 22.667C15.2122 22.667 14.6143 22.0703 14.6143 21.333V17.333H10.6143C9.87845 17.3328 9.28125 16.7372 9.28125 16C9.28125 15.2628 9.87845 14.6672 10.6143 14.667H14.6143V10.667C14.6143 9.92966 15.2122 9.33301 15.9482 9.33301Z" />
</svg>
