<svg xmlns="http://www.w3.org/2000/svg" width="20" height="20" viewBox="0 0 20 20" fill="none"  stroke="#FF2D55" >
    <path d="M14.1665 8.33301C15.5472 8.33301 16.6665 7.21372 16.6665 5.83301C16.6665 4.4523 15.5472 3.33301 14.1665 3.33301C12.7858 3.33301 11.6665 4.4523 11.6665 5.83301C11.6665 7.21372 12.7858 8.33301 14.1665 8.33301Z" stroke-width="1.66667" stroke-linecap="round" stroke-linejoin="round"/>
    <path d="M5.8335 16.667C7.21421 16.667 8.3335 15.5477 8.3335 14.167C8.3335 12.7863 7.21421 11.667 5.8335 11.667C4.45278 11.667 3.3335 12.7863 3.3335 14.167C3.3335 15.5477 4.45278 16.667 5.8335 16.667Z" stroke-width="1.66667" stroke-linecap="round" stroke-linejoin="round"/>
    <path d="M11.6668 11.6663H16.6668V15.833C16.6668 16.054 16.579 16.266 16.4228 16.4223C16.2665 16.5785 16.0545 16.6663 15.8335 16.6663H12.5002C12.2791 16.6663 12.0672 16.5785 11.9109 16.4223C11.7546 16.266 11.6668 16.054 11.6668 15.833V11.6663ZM3.3335 3.33301H8.3335V7.49967C8.3335 7.72069 8.2457 7.93265 8.08942 8.08893C7.93314 8.24521 7.72118 8.33301 7.50016 8.33301H4.16683C3.94582 8.33301 3.73385 8.24521 3.57757 8.08893C3.42129 7.93265 3.3335 7.72069 3.3335 7.49967V3.33301Z" stroke-width="1.66667" stroke-linecap="round" stroke-linejoin="round"/>
</svg>
