<svg width="24" height="24" viewBox="0 0 24 24" fill="black" xmlns="http://www.w3.org/2000/svg">
<path d="M13.665 15.7578C14.862 14.561 16.6909 14.2458 18.2178 14.9756C18.7156 15.2135 18.9271 15.8107 18.6895 16.3086C18.4515 16.8074 17.8534 17.0169 17.3564 16.7803C16.5945 16.4173 15.6801 16.573 15.0801 17.1709L13.666 18.5859C13.288 18.9639 13.0801 19.466 13.0801 20C13.0801 20.534 13.288 21.0361 13.666 21.4141C14.359 22.108 15.4403 22.1978 16.2383 21.6309L16.2363 21.6318C16.6863 21.3111 17.3099 21.4163 17.6309 21.8662C17.9517 22.3161 17.8471 22.9407 17.3975 23.2607C16.6975 23.7607 15.8861 24.001 15.0791 24.001C14.0501 24.001 13.028 23.6071 12.251 22.8291C11.495 22.0741 11.0791 21.069 11.0791 20.001C11.0791 18.933 11.495 17.9278 12.251 17.1729L13.665 15.7578ZM9.51465 0C11.3846 0 13.1419 0.727916 14.4648 2.0498L17.9502 5.53516C18.8381 6.42313 19.4712 7.53503 19.7832 8.75195C19.8602 9.05095 19.7935 9.36928 19.6035 9.61328C19.4136 9.85691 19.1231 9.99986 18.8145 10H13.001C11.347 9.99999 10.001 8.65399 10.001 7V2.02344C9.84098 2.00844 9.67863 2 9.51562 2H5C3.346 2 2 3.346 2 5V19C2 20.654 3.346 22 5 22H9C9.552 22 10 22.448 10 23C10 23.552 9.552 24 9 24H5C2.243 24 0 21.757 0 19V5C0 2.243 2.243 0 5 0H9.51465ZM17.6807 11.7598C19.2767 10.6238 21.4411 10.8044 22.8281 12.1924H22.8291C23.5849 12.9484 24.001 13.9536 24.001 15.0215C24.0009 16.0892 23.5848 17.0938 22.8291 17.8486L21.415 19.2637C20.648 20.0297 19.622 20.4346 18.582 20.4346C17.9981 20.4346 17.4112 20.3069 16.8623 20.0449C16.3643 19.8069 16.1527 19.2099 16.3906 18.7119C16.6286 18.213 17.2257 18.0044 17.7236 18.2412C18.4866 18.6062 19.401 18.4486 20 17.8496L21.4141 16.4346C21.7918 16.0567 21.9999 15.5562 22 15.0215C22 14.4866 21.7919 13.9844 21.4141 13.6064C20.7191 12.9125 19.6378 12.8207 18.8418 13.3887C18.3909 13.7096 17.7683 13.605 17.4473 13.1553C17.1273 12.7053 17.2308 12.0808 17.6807 11.7598ZM8.5 16C9.052 16 9.5 16.448 9.5 17C9.5 17.552 9.052 18 8.5 18H6C5.448 18 5 17.552 5 17C5 16.448 5.448 16 6 16H8.5ZM12.5 12C13.052 12 13.5 12.448 13.5 13C13.5 13.552 13.052 14 12.5 14H6C5.448 14 5 13.552 5 13C5 12.448 5.448 12 6 12H12.5ZM12 7C12 7.551 12.449 8 13 8H17.3379C17.1189 7.61809 16.8491 7.26414 16.5352 6.9502L13.0498 3.46484C12.7319 3.14694 12.3789 2.87813 12 2.65918V7Z" />
</svg>
