<svg width="37" height="32" viewBox="0 0 37 32" fill="none" xmlns="http://www.w3.org/2000/svg">
<path d="M16.8823 24.8276C17.2133 25.1586 17.6547 25.3793 18.0961 25.3793C18.5375 25.3793 18.9788 25.1586 19.3099 24.8276L27.5857 16.1103C28.0271 15.669 28.0271 15.0069 27.5857 14.5655C27.1444 14.1241 26.4823 14.1241 26.0409 14.5655L19.1995 21.7379V1.10345C19.1995 0.441379 18.7582 0 18.0961 0C17.434 0 16.9926 0.441379 16.9926 1.10345V21.7379L10.2616 14.5655C9.82022 14.1241 9.15816 14.1241 8.71678 14.5655C8.2754 15.0069 8.2754 15.669 8.71678 16.1103L16.8823 24.8276Z" fill="#FF2D55"/>
<path d="M35.0897 23.2827C34.4276 23.2827 33.9862 23.7241 33.9862 24.3862V26.5931C33.9862 28.3586 32.5517 29.7931 30.7862 29.7931H5.4069C3.64138 29.7931 2.2069 28.3586 2.2069 26.5931V24.3862C2.2069 23.7241 1.76552 23.2827 1.10345 23.2827C0.44138 23.2827 0 23.7241 0 24.3862V26.5931C0 29.5724 2.42759 32 5.4069 32H30.6759C33.6552 32 36.0828 29.5724 36.0828 26.5931V24.3862C36.1931 23.7241 35.6414 23.2827 35.0897 23.2827Z" fill="#767676"/>
</svg>
