<svg xmlns="http://www.w3.org/2000/svg" width="16" height="16" viewBox="0 0 16 16" fill="none">
    <path d="M2.22504 9.37642V11.4701C2.22504 12.014 2.53115 12.5207 3.02093 12.7815L6.8473 14.8156C7.30647 15.0615 7.85747 15.0615 8.31663 14.8156L12.143 12.7815C12.6328 12.5207 12.9389 12.014 12.9389 11.4701V9.37642L8.31663 11.8352C7.85747 12.0811 7.30647 12.0811 6.8473 11.8352L2.22504 9.37642ZM6.8473 2.17882L0.39603 5.60625C-0.13201 5.88938 -0.13201 6.63447 0.39603 6.91761L6.8473 10.345C7.30647 10.5909 7.85747 10.5909 8.31663 10.345L14.4694 7.07408V11.4776C14.4694 11.8874 14.8138 12.2227 15.2347 12.2227C15.6556 12.2227 16 11.8874 16 11.4776V6.70153C16 6.42585 15.8469 6.17997 15.6021 6.04585L8.31663 2.17882C8.09053 2.06141 7.83822 2 7.58197 2C7.32572 2 7.07341 2.06141 6.8473 2.17882Z" fill="#D1D1D6"/>
</svg>
