<svg width="32" height="32" viewBox="0 0 32 32" fill="#767676" xmlns="http://www.w3.org/2000/svg">
<path d="M26.7946 7.18533L22.148 2.53867C20.5106 0.901333 18.3346 0 16.02 0H8.66663C5.35863 0 2.66663 2.692 2.66663 6V26C2.66663 29.308 5.35863 32 8.66663 32H23.3333C26.6413 32 29.3333 29.308 29.3333 26V13.3133C29.3333 10.9987 28.432 8.82133 26.7946 7.18533ZM25.852 8.128C26.5866 8.86267 27.1453 9.72533 27.5093 10.6667H20.6666C19.564 10.6667 18.6666 9.76933 18.6666 8.66667V1.824C19.608 2.188 20.4706 2.74667 21.2053 3.48133L25.852 8.128ZM28 26C28 28.5733 25.9066 30.6667 23.3333 30.6667H8.66663C6.09329 30.6667 3.99996 28.5733 3.99996 26V6C3.99996 3.42667 6.09329 1.33333 8.66663 1.33333H16.02C16.4653 1.33333 16.904 1.37333 17.3333 1.45067V8.66667C17.3333 10.504 18.8293 12 20.6666 12H27.8826C27.96 12.4293 28 12.868 28 13.3133V26ZM21.2173 18.8667C21.4746 19.1293 21.4693 19.552 21.2066 19.8093C21.0773 19.936 20.908 20 20.74 20C20.5666 20 20.3946 19.9333 20.264 19.8L16.9106 16.3733C16.836 16.2987 16.7546 16.236 16.6666 16.184V26.0013C16.6666 26.3693 16.368 26.668 16 26.668C15.632 26.668 15.3333 26.3693 15.3333 26.0013V16.1853C15.2453 16.2387 15.1613 16.3027 15.084 16.38L11.736 19.8013C11.4786 20.0653 11.0573 20.0707 10.7933 19.812C10.5306 19.5547 10.5253 19.132 10.7826 18.8693L14.136 15.4427C14.648 14.9307 15.3173 14.6733 15.9866 14.6693C15.9906 14.6693 15.9946 14.6693 15.9986 14.6693C16.0026 14.6693 16.0066 14.6693 16.0106 14.6693C16.68 14.672 17.348 14.928 17.856 15.4373L21.2146 18.8693L21.2173 18.8667Z" />
</svg>
