<svg height="512" viewBox="0 0 24 24" width="512" xmlns="http://www.w3.org/2000/svg"><g id="Layer_2" data-name="Layer 2"><path d="m21.75 9.09v9.91a3.751 3.751 0 0 1 -3.75 3.75h-12a3.751 3.751 0 0 1 -3.75-3.75v-14a3.751 3.751 0 0 1 3.75-3.75h8.59a3.6 3.6 0 0 1 .66.06 3.726 3.726 0 0 1 2.23 1.29l3.4 4.09a3.721 3.721 0 0 1 .86 2.06c0 .11.01.23.01.34z" fill="#699efa"/><path d="m16 12.75h-8a.75.75 0 0 1 0-1.5h8a.75.75 0 0 1 0 1.5z" fill="#bedcfe"/><path d="m12 16.75h-4a.75.75 0 0 1 0-1.5h4a.75.75 0 0 1 0 1.5z" fill="#bedcfe"/><path d="m21.74 8.75h-3.74a2.748 2.748 0 0 1 -2.75-2.75v-4.69a3.726 3.726 0 0 1 2.23 1.29l3.4 4.09a3.721 3.721 0 0 1 .86 2.06z" fill="#4d87db"/></g></svg>