<svg xmlns="http://www.w3.org/2000/svg" width="170" height="72" viewBox="0 0 170 72" fill="none">
    <path d="M164.307 16.8338L154.039 28.8007C161.258 30.5253 170 37.9284 170 49.0836C170 62.7751 158.513 72 143.77 72C134.417 72 124.554 68.8577 119.573 58.7163C117.743 53.9504 120.387 48.2718 126.181 48.2718C129.943 48.2718 132.283 50.5051 133.198 52.4279C136.348 58.4095 142.244 58.2075 143.77 58.2075C145.297 58.2075 153.836 57.7025 153.836 49.0799C153.836 41.5757 144.584 39.9522 142.146 38.8374C139.097 38.2314 136.859 35.2874 136.859 32.5491C136.859 30.1175 138.79 28.292 140.721 25.6547L150.176 13.7887H128.117C124.355 13.7887 121.1 10.7474 121.1 6.89438C121.1 3.04131 124.351 0 128.117 0H154.549C164.206 0 170.206 9.32966 164.307 16.8338Z" fill="#FF2D55"/>
    <path d="M44.9698 42.8893C48.8421 42.8893 52 45.7492 52 49.4266C52 53.1041 48.8421 56.0656 44.9698 56.0656H43.4435V64.0309C43.4435 68.526 39.7743 72 35.2892 72C30.8042 72 27.2365 68.526 27.2365 64.0309V56.0656H10.8302C0.435334 56.0656 -2.82787 48.5073 2.57447 40.9489L28.4583 4.38535C33.5524 -2.86782 43.4397 -0.720127 43.4397 7.85934V42.8931H44.9661L44.9698 42.8893ZM17.2514 42.8893H27.2402V28.4885L17.2514 42.8893Z" fill="#FF2D55"/>
    <path d="M115 34.7858V37.2142C115 60.7753 99.7153 72 85.4492 72C71.1832 72 56 60.7753 56 37.2142V34.7858C56 11.3254 71.4877 0 85.4492 0C99.4108 0 115 11.3254 115 34.7858ZM72.3035 34.7858V37.2142C72.3035 45.1003 74.2394 58.2461 85.4492 58.2461C96.6591 58.2461 98.6965 45.1003 98.6965 37.2142V34.7858C98.6965 26.8997 96.6591 13.7539 85.4492 13.7539C74.2394 13.7539 72.3035 26.8997 72.3035 34.7858Z" fill="#FFCC00"/>
</svg>
