<svg xmlns="http://www.w3.org/2000/svg" width="36" height="36" viewBox="0 0 36 36" fill="#767676">
    <path d="M28.5 0C30.4884 0.00238179 32.3948 0.793212 33.8008 2.19922C35.2068 3.60523 35.9976 5.51161 36 7.5V28.5C35.9976 30.4884 35.2068 32.3948 33.8008 33.8008C32.3948 35.2068 30.4884 35.9976 28.5 36H7.5C5.51161 35.9976 3.60523 35.2068 2.19922 33.8008C0.793212 32.3948 0.00238179 30.4884 0 28.5V7.5C0.00238179 5.51161 0.793212 3.60523 2.19922 2.19922C3.60523 0.793212 5.51161 0.00238179 7.5 0H28.5ZM13.5 17.4854C12.9088 17.4854 12.3235 17.6018 11.7773 17.8281C11.2314 18.0544 10.7352 18.3857 10.3174 18.8037L3 26.1211V28.5C3 29.6935 3.47445 30.8377 4.31836 31.6816C5.16227 32.5256 6.30653 33 7.5 33H28.5C29.1682 32.9974 29.8274 32.8434 30.4277 32.5498L16.6826 18.8037C16.2648 18.3857 15.7686 18.0544 15.2227 17.8281C14.6765 17.6018 14.0912 17.4854 13.5 17.4854ZM7.5 3C6.30653 3 5.16227 3.47445 4.31836 4.31836C3.47445 5.16227 3 6.30653 3 7.5V21.8789L8.19727 16.6826C8.89371 15.986 9.72083 15.4337 10.6309 15.0566C11.5409 14.6796 12.5169 14.4854 13.502 14.4854C14.4869 14.4854 15.4621 14.6797 16.3721 15.0566C17.2821 15.4337 18.1092 15.986 18.8057 16.6826L32.5498 30.4277C32.8434 29.8274 32.9974 29.1682 33 28.5V7.5C33 6.30653 32.5256 5.16227 31.6816 4.31836C30.8377 3.47445 29.6935 3 28.5 3H7.5ZM21.9902 5.64941C22.9494 5.25212 24.0052 5.14815 25.0234 5.35059C26.0418 5.55316 26.9777 6.05386 27.7119 6.78809C28.446 7.5222 28.9458 8.45739 29.1484 9.47559C29.351 10.4939 29.2469 11.5495 28.8496 12.5088C28.4522 13.4681 27.7794 14.2884 26.916 14.8652C26.0528 15.442 25.0382 15.7499 24 15.75C22.6077 15.75 21.2717 15.1974 20.2871 14.2129C19.3025 13.2283 18.75 11.8924 18.75 10.5C18.75 9.46171 19.0579 8.44632 19.6348 7.58301C20.2116 6.71991 21.0311 6.04671 21.9902 5.64941ZM24 8.25C23.4033 8.25 22.8302 8.48722 22.4082 8.90918C21.9864 9.33107 21.75 9.90343 21.75 10.5C21.75 10.945 21.8817 11.38 22.1289 11.75C22.3761 12.12 22.7275 12.4088 23.1387 12.5791C23.5497 12.7493 24.0021 12.7938 24.4385 12.707C24.8749 12.6202 25.2762 12.4055 25.5908 12.0908C25.9053 11.7763 26.1192 11.3756 26.2061 10.9395C26.2929 10.503 26.2484 10.0498 26.0781 9.63867C25.9078 9.22775 25.6199 8.87604 25.25 8.62891C24.8801 8.38174 24.4449 8.25007 24 8.25Z" />
</svg>
