<svg xmlns="http://www.w3.org/2000/svg" width="16" height="16" viewBox="0 0 16 16" fill="none">
    <path d="M1.33333 2H14.6667C15.3667 2 16 2.63333 16 3.33333V12.6667C16 13.3667 15.3667 14 14.6667 14H1.33333C0.633333 14 0 13.3667 0 12.6667V3.33333C0 2.63333 0.633333 2 1.33333 2ZM9.33333 4V4.66667H14.6667V4H9.33333ZM9.33333 5.33333V6H14.6667V5.33333H9.33333ZM9.33333 6.66667V7.33333H14V6.66667H9.33333ZM5.33333 9.27333C4 9.27333 1.33333 10 1.33333 11.3333V12H9.33333V11.3333C9.33333 10 6.66667 9.27333 5.33333 9.27333ZM5.33333 4C4.8029 4 4.29419 4.21071 3.91912 4.58579C3.54405 4.96086 3.33333 5.46957 3.33333 6C3.33333 6.53043 3.54405 7.03914 3.91912 7.41421C4.29419 7.78929 4.8029 8 5.33333 8C5.86377 8 6.37247 7.78929 6.74755 7.41421C7.12262 7.03914 7.33333 6.53043 7.33333 6C7.33333 5.46957 7.12262 4.96086 6.74755 4.58579C6.37247 4.21071 5.86377 4 5.33333 4Z" fill="#D1D1D6"/>
</svg>
