<svg width="32" height="32" viewBox="0 0 32 32" fill="black" xmlns="http://www.w3.org/2000/svg">
<path d="M25.333 0C27.1005 0.00211714 28.7951 0.705295 30.0449 1.95508C31.2947 3.20486 31.9979 4.89953 32 6.66699V25.333C31.9979 27.1005 31.2947 28.7951 30.0449 30.0449C28.7951 31.2947 27.1005 31.9979 25.333 32H6.66699C4.89953 31.9979 3.20486 31.2947 1.95508 30.0449C0.705295 28.7951 0.00211714 27.1005 0 25.333V6.66699C0.00211714 4.89953 0.705294 3.20486 1.95508 1.95508C3.20486 0.705294 4.89953 0.00211714 6.66699 0H25.333ZM12 15.542C11.4746 15.542 10.9542 15.6455 10.4688 15.8467C9.98329 16.0479 9.54236 16.3432 9.1709 16.7148L2.66699 23.2188V25.333C2.66699 26.3939 3.08775 27.412 3.83789 28.1621C4.58804 28.9123 5.60613 29.333 6.66699 29.333H25.333C25.927 29.3307 26.5133 29.1945 27.0469 28.9336L14.8291 16.7148C14.4576 16.3432 14.0167 16.0479 13.5312 15.8467C13.0458 15.6455 12.5254 15.542 12 15.542ZM6.66699 2.66699C5.60613 2.66699 4.58804 3.08775 3.83789 3.83789C3.08775 4.58804 2.66699 5.60613 2.66699 6.66699V19.4482L7.28711 14.8291C7.90601 14.2101 8.64059 13.7189 9.44922 13.3838C10.2581 13.0487 11.1255 12.876 12.001 12.876C12.8765 12.876 13.7438 13.0487 14.5527 13.3838C15.3616 13.7189 16.0968 14.21 16.7158 14.8291L28.9336 27.0469C29.1945 26.5133 29.3307 25.927 29.333 25.333V6.66699C29.333 5.60613 28.9123 4.58804 28.1621 3.83789C27.412 3.08775 26.3939 2.66699 25.333 2.66699H6.66699ZM19.5479 5.02148C20.4005 4.66832 21.3389 4.5758 22.2441 4.75586C23.1494 4.93592 23.9811 5.38056 24.6338 6.0332C25.2864 6.68584 25.7311 7.51764 25.9111 8.42285C26.0911 9.32802 25.9987 10.2665 25.6455 11.1191C25.2924 11.9717 24.6939 12.7001 23.9268 13.2129C23.1594 13.7256 22.2569 13.9999 21.334 14C20.0963 14 18.9093 13.5079 18.0342 12.6328C17.159 11.7576 16.667 10.5707 16.667 9.33301C16.667 8.41009 16.9404 7.50762 17.4531 6.74023C17.9659 5.97282 18.6951 5.37469 19.5479 5.02148ZM21.334 7.33301C20.8037 7.33301 20.295 7.54403 19.9199 7.91895C19.5449 8.29398 19.334 8.80263 19.334 9.33301C19.334 9.72857 19.4511 10.1154 19.6709 10.4443C19.8907 10.7732 20.203 11.0293 20.5684 11.1807C20.9337 11.332 21.3357 11.372 21.7236 11.2949C22.1116 11.2178 22.4683 11.0268 22.748 10.7471C23.0275 10.4675 23.2177 10.1114 23.2949 9.72363C23.3721 9.33567 23.333 8.93284 23.1816 8.56738C23.0303 8.20205 22.7731 7.88963 22.4443 7.66992C22.1156 7.45042 21.7292 7.33307 21.334 7.33301Z" />
</svg>
