<svg xmlns="http://www.w3.org/2000/svg" width="17" height="17" viewBox="0 0 17 17" fill="none">
    <path d="M13.457 7.79232H9.20703V3.54232C9.20703 3.35446 9.1324 3.17429 8.99957 3.04145C8.86673 2.90861 8.68656 2.83398 8.4987 2.83398C8.31084 2.83398 8.13067 2.90861 7.99783 3.04145C7.86499 3.17429 7.79036 3.35446 7.79036 3.54232V7.79232H3.54036C3.3525 7.79232 3.17234 7.86695 3.0395 7.99978C2.90666 8.13262 2.83203 8.31279 2.83203 8.50065C2.83203 8.68851 2.90666 8.86868 3.0395 9.00152C3.17234 9.13436 3.3525 9.20898 3.54036 9.20898H7.79036V13.459C7.79036 13.6468 7.86499 13.827 7.99783 13.9599C8.13067 14.0927 8.31084 14.1673 8.4987 14.1673C8.68656 14.1673 8.86673 14.0927 8.99957 13.9599C9.1324 13.827 9.20703 13.6468 9.20703 13.459V9.20898H13.457C13.6449 9.20898 13.8251 9.13436 13.9579 9.00152C14.0907 8.86868 14.1654 8.68851 14.1654 8.50065C14.1654 8.31279 14.0907 8.13262 13.9579 7.99978C13.8251 7.86695 13.6449 7.79232 13.457 7.79232Z" fill="#8E8E93"/>
</svg>
