<svg width="32" height="32" viewBox="0 0 32 32" fill="#767676" xmlns="http://www.w3.org/2000/svg">
<g clip-path="url(#clip0_520_753)">
<path d="M12 6.66667C12 5.93333 12.6 5.33333 13.3333 5.33333C14.0667 5.33333 14.6667 5.93333 14.6667 6.66667C14.6667 7.4 14.0667 8 13.3333 8C12.6 8 12 7.4 12 6.66667ZM32 6V15.3333C32 18.64 29.3067 21.3333 26 21.3333H12.6667C9.35999 21.3333 6.66665 18.64 6.66665 15.3333V6C6.66665 2.69333 9.35999 0 12.6667 0H26C29.3067 0 32 2.69333 32 6ZM9.17332 18.4267L17.4 10.2C18.4933 9.10667 20.2667 9.10667 21.36 10.2L22.7467 11.5867C23.3067 12.1333 24.2667 12.1467 24.8133 11.5867L30.6667 5.73333C30.5333 3.28 28.4933 1.33333 26.0133 1.33333H12.6667C10.0933 1.33333 7.99999 3.42667 7.99999 6V15.3333C7.99999 16.52 8.43999 17.6 9.17332 18.4267ZM30.6667 15.3333V7.61333L25.7467 12.5333C24.6933 13.5867 22.84 13.5867 21.7867 12.5333L20.4 11.1467C19.8267 10.5733 18.8933 10.5733 18.3333 11.1467L10.1867 19.2933C10.9067 19.7467 11.76 20.0133 12.6667 20.0133H26C28.5733 20.0133 30.6667 17.92 30.6667 15.3467V15.3333ZM24.8533 24.04C24.4933 23.9467 24.1333 24.16 24.04 24.52L23.3467 27.24C22.6667 29.72 20.0933 31.1867 17.6133 30.5067L4.77332 27.0267C2.29332 26.3467 0.826654 23.7733 1.50665 21.2933L3.95999 12.1867C4.05332 11.8267 3.83999 11.4667 3.49332 11.3733C3.14665 11.28 2.77332 11.48 2.67999 11.84L0.213321 20.9333C-0.213346 22.48 -0.013346 24.0933 0.786654 25.4933C1.58665 26.8933 2.86665 27.88 4.41332 28.3067L17.2533 31.7867C17.7867 31.9333 18.32 32 18.84 32C21.48 32 23.8933 30.2533 24.6267 27.5733L25.3333 24.8533C25.4267 24.4933 25.2133 24.1333 24.8533 24.04Z" />
</g>
<defs>
<clipPath id="clip0_520_753">
<rect width="32" height="32" />
</clipPath>
</defs>
</svg>
