<svg width="32" height="32" viewBox="0 0 32 32" fill="black" xmlns="http://www.w3.org/2000/svg">
<path d="M30.8218 1.1752C30.3437 0.691375 29.749 0.339012 29.095 0.15216C28.441 -0.0346918 27.7499 -0.0497163 27.0884 0.108538L5.7551 4.60187C4.52654 4.77036 3.36941 5.27851 2.41404 6.06909C1.45866 6.85967 0.742984 7.90128 0.347599 9.07662C-0.0477847 10.252 -0.107171 11.5144 0.176129 12.7216C0.459429 13.9289 1.07416 15.0331 1.9511 15.9099L4.24177 18.1992C4.36575 18.3231 4.46407 18.4703 4.5311 18.6323C4.59814 18.7943 4.63257 18.9679 4.63243 19.1432V23.3672C4.63538 23.9611 4.77209 24.5467 5.03243 25.0805L5.02177 25.0899L5.05643 25.1245C5.44712 25.91 6.08521 26.5453 6.87243 26.9325L6.9071 26.9672L6.91643 26.9565C7.45025 27.2169 8.03586 27.3536 8.62977 27.3565H12.8538C13.2072 27.3563 13.5462 27.4963 13.7964 27.7459L16.0858 30.0352C16.6998 30.656 17.4306 31.1492 18.2361 31.4863C19.0417 31.8234 19.9059 31.9977 20.7791 31.9992C21.5068 31.9983 22.2295 31.8794 22.9191 31.6472C24.0837 31.2648 25.1183 30.5646 25.9061 29.6255C26.6939 28.6864 27.2036 27.5459 27.3778 26.3325L31.8778 4.95254C32.0442 4.28539 32.0344 3.58643 31.8493 2.92422C31.6642 2.26201 31.3101 1.6593 30.8218 1.1752ZM6.12977 16.3165L3.83777 14.0272C3.30406 13.5064 2.93 12.8441 2.75948 12.1181C2.58897 11.3921 2.62908 10.6325 2.8751 9.92854C3.11363 9.2063 3.55457 8.56777 4.1455 8.08889C4.73642 7.61001 5.45245 7.31092 6.20843 7.2272L27.3298 2.78054L7.29643 22.8165V19.1432C7.29845 18.6183 7.19638 18.0982 6.99613 17.6131C6.79587 17.1279 6.50141 16.6872 6.12977 16.3165ZM24.7578 25.8765C24.6554 26.613 24.3498 27.3063 23.8752 27.8787C23.4007 28.4511 22.776 28.8799 22.0713 29.117C21.3666 29.3541 20.6097 29.39 19.8857 29.2209C19.1617 29.0517 18.4991 28.684 17.9724 28.1592L15.6791 25.8659C15.3089 25.4937 14.8686 25.1986 14.3837 24.9976C13.8987 24.7967 13.3787 24.6939 12.8538 24.6952H9.18043L29.2164 4.66587L24.7578 25.8765Z" />
</svg>
