<svg xmlns="http://www.w3.org/2000/svg" width="36" height="36" viewBox="0 0 36 36" fill="#767676">
    <path d="M3 24V31.5C3 31.8978 3.15815 32.2793 3.43945 32.5606C3.72076 32.8419 4.10218 33 4.5 33H31.5C31.8978 33 32.2792 32.8419 32.5605 32.5606C32.8418 32.2793 33 31.8978 33 31.5V24H36V31.5C36 32.6935 35.5255 33.8377 34.6816 34.6817C33.8377 35.5256 32.6935 36 31.5 36H4.5C3.30653 36 2.16227 35.5256 1.31836 34.6817C0.47445 33.8377 3.97786e-06 32.6935 0 31.5V24H3ZM17.9502 1.65898e-05C18.5406 -0.00157812 19.126 0.112969 19.6719 0.337907C20.2177 0.562832 20.7139 0.893548 21.1318 1.31056L27.0107 7.18947L24.8896 9.31056L19.4609 3.88185L19.5 28.5H16.5L16.4609 3.86134L11.0098 9.31056L8.88867 7.18947L14.7676 1.31056C15.1857 0.893538 15.6825 0.562815 16.2285 0.337907C16.7745 0.11307 17.3597 -0.00158695 17.9502 1.65898e-05Z" />
</svg>
