<svg xmlns="http://www.w3.org/2000/svg" width="14" height="14" viewBox="0 0 14 14" fill="#767676">
    <path d="M11.083 0C12.6913 0 14 1.30874 14 2.91699V11.083C14 12.6913 12.6913 14 11.083 14H2.91699C1.30874 14 0 12.6913 0 11.083V2.91699C0 1.30874 1.30874 0 2.91699 0H11.083ZM2.91699 1.16699C1.95216 1.16699 1.16699 1.95216 1.16699 2.91699V11.083C1.16699 12.0478 1.95216 12.833 2.91699 12.833H11.083C12.0478 12.833 12.833 12.0478 12.833 11.083V2.91699C12.833 1.95216 12.0478 1.16699 11.083 1.16699H2.91699ZM7 4.08301C7.322 4.08301 7.58301 4.34441 7.58301 4.66699V6.41699H9.33301C9.65501 6.41699 9.91699 6.67742 9.91699 7C9.91699 7.32258 9.65501 7.58301 9.33301 7.58301H7.58301V9.33301C7.58301 9.65559 7.322 9.91699 7 9.91699C6.678 9.91699 6.41699 9.65559 6.41699 9.33301V7.58301H4.66699C4.34499 7.58301 4.08301 7.32258 4.08301 7C4.08301 6.67742 4.34499 6.41699 4.66699 6.41699H6.41699V4.66699C6.41699 4.34441 6.678 4.08301 7 4.08301Z" />
</svg>
