<svg xmlns="http://www.w3.org/2000/svg" width="16" height="16" viewBox="0 0 16 16" fill="#FF2D55">
    <path d="M2.45784 6.18177C2.39419 6.12163 2.31932 6.07461 2.2375 6.0434C2.15568 6.01219 2.06852 5.9974 1.98098 5.99987C1.89345 6.00235 1.80726 6.02204 1.72734 6.05783C1.64741 6.09361 1.57532 6.14479 1.51517 6.20844C1.45503 6.27209 1.40801 6.34696 1.3768 6.42878C1.34559 6.51059 1.3308 6.59776 1.33327 6.68529C1.33575 6.77283 1.35544 6.85902 1.39123 6.93894C1.42702 7.01887 1.47819 7.09096 1.54184 7.15111L7.54184 12.8178C7.66562 12.9348 7.8295 13 7.99984 13C8.17018 13 8.33406 12.9348 8.45784 12.8178L14.4585 7.1511C14.5235 7.09136 14.5761 7.01928 14.613 6.93906C14.65 6.85884 14.6706 6.77208 14.6737 6.68382C14.6769 6.59556 14.6624 6.50755 14.6313 6.42491C14.6001 6.34228 14.5528 6.26665 14.4922 6.20244C14.4316 6.13823 14.3588 6.0867 14.2781 6.05086C14.1973 6.01501 14.1103 5.99556 14.022 5.99364C13.9337 5.99172 13.8459 6.00736 13.7637 6.03965C13.6815 6.07195 13.6065 6.12026 13.5432 6.18177L7.99984 11.4164L2.45784 6.18177Z" />
</svg>
