<svg xmlns="http://www.w3.org/2000/svg" width="16" height="16" viewBox="0 0 16 16" fill="none">
    <path d="M9.1875 5.9H12.9688L9.1875 2.05V5.9ZM4.375 1H9.875L14 5.2V13.6C14 13.9713 13.8551 14.3274 13.5973 14.5899C13.3394 14.8525 12.9897 15 12.625 15H4.375C4.01033 15 3.66059 14.8525 3.40273 14.5899C3.14487 14.3274 3 13.9713 3 13.6V2.4C3 1.623 3.61187 1 4.375 1ZM9.875 13.6V12.9C9.875 11.969 8.03938 11.5 7.125 11.5C6.21062 11.5 4.375 11.969 4.375 12.9V13.6H9.875ZM7.125 8C6.76033 8 6.41059 8.1475 6.15273 8.41005C5.89487 8.6726 5.75 9.0287 5.75 9.4C5.75 9.7713 5.89487 10.1274 6.15273 10.3899C6.41059 10.6525 6.76033 10.8 7.125 10.8C7.48967 10.8 7.83941 10.6525 8.09727 10.3899C8.35513 10.1274 8.5 9.7713 8.5 9.4C8.5 9.0287 8.35513 8.6726 8.09727 8.41005C7.83941 8.1475 7.48967 8 7.125 8Z" fill="#D1D1D6"/>
</svg>
