<svg xmlns="http://www.w3.org/2000/svg" width="52" height="60" viewBox="0 0 52 60" fill="none">
    <path d="M42.0504 40.6499L32.0001 38C32.0001 40.21 29.3102 42 26.0001 42C22.6901 42 20.0001 40.21 20.0001 38L9.95032 40.6499C4.67493 42.0303 0.996706 46.7974 1.00012 52.25V59H51.0001V52.25C51.0035 46.7974 47.3253 42.0303 42.0504 40.6499Z" fill="#F2F2F7"/>
    <path d="M26.0001 0.999512C20.4391 1.00195 15.3356 4.08105 12.7404 8.99951H39.2604C36.6652 4.08105 31.5616 1.00195 26.0001 0.999512Z" fill="#F2F2F7"/>
    <path d="M40 9.00049H12C10.8955 9.00049 10 9.896 10 11.0005V13.0005C10 14.105 10.8955 15.0005 12 15.0005H40C41.1045 15.0005 42 14.105 42 13.0005V11.0005C42 9.896 41.1045 9.00049 40 9.00049Z" fill="#F2F2F7"/>
    <path d="M42.3052 39.6841L33 37.229V34.106C36.3994 32.1382 38.8184 28.835 39.668 25H40C42.209 25 44 23.2095 44 21C44 18.791 42.209 17 40 17V16C41.6567 16 43 14.6572 43 13V11C43 9.34326 41.6567 8 40 8H39.8379C36.9883 3.05029 31.7114 0 26 0C20.2886 0 15.0122 3.05029 12.1621 8H12C10.3433 8 9 9.34326 9 11V13C9 14.6572 10.3433 16 12 16V17C9.79102 17 8 18.791 8 21C8 23.2095 9.79102 25 12 25H12.332C13.1821 28.835 15.6006 32.1382 19 34.106V37.229L9.7002 39.6831C3.98535 41.1792 -0.000488236 46.3428 4.48573e-08 52.25V59C4.48573e-08 59.5522 0.447754 60 1 60H51C51.5522 60 52 59.5522 52 59V52.25C52.001 46.3442 48.0176 41.1816 42.3052 39.6841ZM33.7358 39.4922C32.8398 42.0781 29.646 44 26 44C22.354 44 19.1602 42.0781 18.2642 39.4922L19.2173 39.2402C19.9722 41.4243 22.6782 43 26 43C29.3223 43 32.0278 41.4243 32.7832 39.2402L33.7358 39.4922ZM42 21C42 22.1045 41.1045 23 40 23V19C41.1045 19 42 19.8955 42 21ZM26 2C30.5771 1.99854 34.8643 4.24072 37.4751 8H14.5249C17.1357 4.24072 21.4229 1.99854 26 2ZM11 13V11C11 10.4478 11.4478 10 12 10H40C40.5522 10 41 10.4478 41 11V13C41 13.5522 40.5522 14 40 14H39V12H37V14H35V12H33V14H31V12H29V14H27V12H25V14H23V12H21V14H19V12H17V14H15V12H13V14H12C11.4478 14 11 13.5522 11 13ZM12 23C10.8955 23 10 22.1045 10 21C10 19.8955 10.8955 19 12 19V23ZM14 22V16H38V22C38 28.6274 32.6274 34 26 34C19.3726 34 14 28.6274 14 22ZM26 36C27.7104 35.9976 29.4053 35.6792 31 35.061V38C31 39.626 28.71 41 26 41C23.29 41 21 39.626 21 38V35.061C22.5947 35.6792 24.29 35.9976 26 36ZM50 58H41V51H39V58H13V51H11V58H2V52.25C1.99854 47.2539 5.36768 42.8857 10.2002 41.6172L16.3271 40C17.437 43.4844 21.373 46 26 46C30.627 46 34.563 43.4873 35.6729 40L41.8003 41.6182C46.6323 42.8862 50.0015 47.2544 50 52.25V58Z" fill="#AEAEB2"/>
    <path d="M26 25C27.6567 25 29 23.6572 29 22V18H27V22C27 22.5522 26.5522 23 26 23C25.4478 23 25 22.5522 25 22V18H23V22C23 23.6572 24.3433 25 26 25Z" fill="#AEAEB2"/>
    <path d="M31.6203 18.9197C31.7404 18.9709 31.8698 18.9983 32.0002 18.9997C32.2653 18.9978 32.5197 18.8943 32.7101 18.7097C32.9968 18.4236 33.0798 17.9919 32.9201 17.6199C32.8718 17.4973 32.8005 17.3855 32.7101 17.2898C32.4709 17.0539 32.1296 16.9529 31.8005 17.0198C31.7375 17.031 31.6769 17.051 31.6203 17.0798C31.5563 17.1018 31.4953 17.1321 31.4391 17.1697C31.3874 17.2073 31.3376 17.2473 31.2902 17.2898C31.1999 17.3855 31.1286 17.4973 31.0803 17.6199C30.9206 17.9919 31.0041 18.4236 31.2902 18.7097C31.3874 18.7981 31.4992 18.8694 31.6203 18.9197Z" fill="#AEAEB2"/>
    <path d="M20.9999 18.0002C20.9984 17.8699 20.9711 17.7405 20.9198 17.6204C20.8715 17.4978 20.8002 17.386 20.7099 17.2903C20.309 16.9202 19.6908 16.9202 19.2899 17.2903C19.2016 17.3875 19.1307 17.4993 19.08 17.6204C18.9203 17.9949 19.0038 18.429 19.2909 18.7175C19.578 19.0061 20.0116 19.0916 20.3871 18.9343C20.7621 18.7766 21.0048 18.4075 20.9999 18.0002Z" fill="#AEAEB2"/>
    <path d="M31.9523 27.6553L30.442 26.3452C29.2521 27.4839 27.6456 28.0825 26.0001 28C24.3551 28.0825 22.7487 27.4839 21.5582 26.3452L20.048 27.6553C21.6124 29.2417 23.774 30.0937 26.0001 30C28.2262 30.0937 30.3883 29.2417 31.9523 27.6553Z" fill="#AEAEB2"/>
</svg>
