<svg xmlns="http://www.w3.org/2000/svg" width="18" height="18" viewBox="0 0 18 18" fill="none">
    <path d="M13.3164 4.22168C13.4458 4.13613 13.6214 4.1507 13.7354 4.26465C13.8493 4.3786 13.8639 4.55419 13.7783 4.68359L13.7354 4.73535L4.73535 13.7354C4.60518 13.8655 4.39482 13.8655 4.26465 13.7354C4.13447 13.6052 4.13447 13.3948 4.26465 13.2646L13.2646 4.26465L13.3164 4.22168Z" stroke-width="0.5" stroke-linecap="round" stroke-linejoin="round"/>
    <path d="M4.26465 4.26465C4.3786 4.1507 4.55419 4.13613 4.68359 4.22168L4.73535 4.26465L13.7354 13.2646L13.7783 13.3164C13.8639 13.4458 13.8493 13.6214 13.7354 13.7354C13.6214 13.8493 13.4458 13.8639 13.3164 13.7783L13.2646 13.7354L4.26465 4.73535L4.22168 4.68359C4.13613 4.55419 4.1507 4.3786 4.26465 4.26465Z" stroke-width="0.5" stroke-linecap="round" stroke-linejoin="round"/>
</svg>
