<svg xmlns="http://www.w3.org/2000/svg" width="48" height="48" viewBox="0 0 48 48" fill="#FF2D55">
    <path d="M28.2 26.4C28.2 25.6044 28.5161 24.8413 29.0787 24.2787C29.6413 23.7161 30.4044 23.4 31.2 23.4C31.9957 23.4 32.7587 23.7161 33.3213 24.2787C33.8839 24.8413 34.2 25.6044 34.2 26.4C34.2 27.1957 33.8839 27.9587 33.3213 28.5213C32.7587 29.0839 31.9957 29.4 31.2 29.4C30.4044 29.4 29.6413 29.0839 29.0787 28.5213C28.5161 27.9587 28.2 27.1957 28.2 26.4ZM48 24V48H0V24C0 10.8 10.8 0 24 0C37.2 0 48 10.8 48 24ZM4.8 24C4.8 34.584 13.416 43.2 24 43.2C34.584 43.2 43.2 34.584 43.2 24C43.2 22.104 42.912 20.28 42.408 18.576C37.7682 19.6552 32.9119 19.3249 28.4609 17.6275C24.0099 15.93 20.1669 12.9427 17.424 9.048C15.072 14.784 10.584 19.416 4.92 21.936C4.8 22.608 4.8 23.304 4.8 24ZM16.8 29.4C17.5957 29.4 18.3587 29.0839 18.9213 28.5213C19.4839 27.9587 19.8 27.1957 19.8 26.4C19.8 25.6044 19.4839 24.8413 18.9213 24.2787C18.3587 23.7161 17.5957 23.4 16.8 23.4C16.0044 23.4 15.2413 23.7161 14.6787 24.2787C14.1161 24.8413 13.8 25.6044 13.8 26.4C13.8 27.1957 14.1161 27.9587 14.6787 28.5213C15.2413 29.0839 16.0044 29.4 16.8 29.4Z" />
</svg>
