<svg xmlns="http://www.w3.org/2000/svg" width="57" height="32" viewBox="0 0 57 32" fill="none">
    <g clip-path="url(#clip0_485_30)">
        <path d="M28.5158 32H6.95287C4.04786 32 1.44898 30.2227 0.436367 27.5433C-0.576243 24.8642 0.210866 21.8477 2.40963 19.9795L9.82196 13.683H6.95287C3.11318 13.683 0.000363164 10.6201 0.000363164 6.84165C0.000363164 3.0632 3.11318 0 6.95287 0H28.5158C31.4208 0 34.0196 1.77732 35.0323 4.45672C36.0449 7.13584 35.2577 10.1523 33.059 12.0205L25.6467 18.317H28.5158C32.3557 18.317 35.4683 21.3799 35.4683 25.1586C35.4683 28.9373 32.3555 32 28.5158 32Z" fill="#AEAEB2"/>
        <path d="M55.74 21.28L50.2531 13.6179C53.9773 13.4807 56.9537 10.4871 56.9537 6.81211C56.9537 3.13709 53.8343 0 49.9867 0H28.5448C24.6971 0 21.5779 3.04991 21.5779 6.81211C21.5779 10.5743 24.6454 13.5714 28.4487 13.6221L22.8521 21.1981C20.599 24.2481 21.301 28.5062 24.4202 30.7093C27.5397 32.9122 31.8944 32.2257 34.1475 29.1757L39.3453 22.1393L44.3256 29.0941C45.681 30.9871 47.8423 32 50.0389 31.9997C51.4187 31.9997 52.8129 31.5997 54.029 30.7673C57.1812 28.6093 57.9469 24.3618 55.74 21.28Z" fill="#D1D1D6"/>
    </g>
    <defs>
        <clipPath id="clip0_485_30">
            <rect width="57" height="32" fill="white"/>
        </clipPath>
    </defs>
</svg>
