<svg xmlns="http://www.w3.org/2000/svg" width="14" height="14" viewBox="0 0 14 14" fill="#111111">
    <path d="M7 0C8.85578 0.00209494 10.635 0.740493 11.9473 2.05273C13.2595 3.36504 13.998 5.14418 14 7C14 8.38431 13.5893 9.73761 12.8203 10.8887C12.0512 12.0397 10.9576 12.937 9.67871 13.4668C8.39963 13.9966 6.99166 14.1353 5.63379 13.8652C4.27611 13.5951 3.02868 12.929 2.0498 11.9502C1.07084 10.9712 0.403886 9.7231 0.133789 8.36523C-0.136174 7.00757 0.00252852 5.60019 0.532227 4.32129C1.06201 3.04229 1.95931 1.94885 3.11035 1.17969C4.2615 0.410518 5.61553 0 7 0ZM9.23242 1.61035C8.16652 1.16884 6.99288 1.05324 5.86133 1.27832C4.72993 1.50341 3.69073 2.05934 2.875 2.875C2.05919 3.69081 1.5034 4.73075 1.27832 5.8623C1.05333 6.99376 1.16888 8.16663 1.61035 9.23242C2.05187 10.2983 2.79953 11.2096 3.75879 11.8506C4.71805 12.4915 5.84633 12.833 7 12.833C8.54645 12.8312 10.0295 12.2166 11.123 11.123C12.2165 10.0295 12.8313 8.5465 12.833 7C12.833 5.84628 12.4906 4.71808 11.8496 3.75879C11.2087 2.79977 10.2981 2.05181 9.23242 1.61035ZM7 5.83203C7.30942 5.83203 7.6064 5.95504 7.8252 6.17383C8.04399 6.39262 8.16699 6.68961 8.16699 6.99902V10.499C8.16691 10.6536 8.10541 10.8018 7.99609 10.9111C7.88678 11.0205 7.73857 11.0819 7.58398 11.082C7.42927 11.082 7.28029 11.0205 7.1709 10.9111C7.06168 10.8018 7.00009 10.6535 7 10.499V6.99902H6.41699C6.26244 6.99902 6.11425 6.93732 6.00488 6.82812C5.89549 6.71873 5.83398 6.56975 5.83398 6.41504C5.83407 6.26045 5.89556 6.11225 6.00488 6.00293C6.11426 5.89364 6.26236 5.83203 6.41699 5.83203H7ZM7 2.91797C7.4831 2.91815 7.875 3.30983 7.875 3.79297C7.875 4.27611 7.4831 4.66779 7 4.66797C6.51675 4.66797 6.125 4.27622 6.125 3.79297C6.125 3.30972 6.51675 2.91797 7 2.91797Z" />
</svg>
