<svg xmlns="http://www.w3.org/2000/svg" width="18" height="18" viewBox="0 0 18 18" fill="none">
    <path fill-rule="evenodd" clip-rule="evenodd" d="M8.4465 16.6005C8.4465 16.6005 3 12.0135 3 7.5C3 5.9087 3.63214 4.38258 4.75736 3.25736C5.88258 2.13214 7.4087 1.5 9 1.5C10.5913 1.5 12.1174 2.13214 13.2426 3.25736C14.3679 4.38258 15 5.9087 15 7.5C15 12.0135 9.5535 16.6005 9.5535 16.6005C9.2505 16.8795 8.75175 16.8765 8.4465 16.6005ZM9 10.125C9.34472 10.125 9.68606 10.0571 10.0045 9.92518C10.323 9.79327 10.6124 9.59991 10.8562 9.35616C11.0999 9.1124 11.2933 8.82302 11.4252 8.50454C11.5571 8.18606 11.625 7.84472 11.625 7.5C11.625 7.15528 11.5571 6.81394 11.4252 6.49546C11.2933 6.17698 11.0999 5.8876 10.8562 5.64384C10.6124 5.40009 10.323 5.20673 10.0045 5.07482C9.68606 4.9429 9.34472 4.875 9 4.875C8.30381 4.875 7.63613 5.15156 7.14384 5.64384C6.65156 6.13613 6.375 6.80381 6.375 7.5C6.375 8.19619 6.65156 8.86387 7.14384 9.35616C7.63613 9.84844 8.30381 10.125 9 10.125Z" stroke="#111111" stroke-width="1.5"/>
</svg>
