<svg xmlns="http://www.w3.org/2000/svg" width="128" height="73" viewBox="0 0 128 73" fill="none">
    <path d="M64.0349 72.4074H15.6133C9.08986 72.4074 3.25382 68.3858 0.979904 62.3231C-1.29401 56.2609 0.473521 49.4355 5.41106 45.2083L22.0562 30.961H15.6133C6.99095 30.961 0.000816042 24.0304 0.000816042 15.4808C0.000816042 6.9312 6.99095 0 15.6133 0H64.0349C70.5583 0 76.3943 4.0216 78.6683 10.0844C80.9422 16.1465 79.1746 22.9719 74.2371 27.1992L57.592 41.4465H64.0349C72.6578 41.4465 79.6473 48.3771 79.6473 56.9272C79.6473 65.4774 72.6572 72.408 64.0349 72.408V72.4074Z" fill="#FF2D55"/>
    <path d="M125.169 48.1509L112.848 30.8136C121.211 30.5033 127.895 23.7297 127.895 15.414C127.895 7.09839 120.89 0 112.25 0H64.1C55.4596 0 48.455 6.90113 48.455 15.414C48.455 23.9269 55.3435 30.7084 63.8841 30.8232L51.3165 47.9657C46.2569 54.8668 47.8332 64.5019 54.8377 69.487C61.8429 74.4714 71.6218 72.918 76.6814 66.0169L88.3535 50.0953L99.5372 65.8323C102.581 70.1155 107.434 72.4074 112.367 72.4068C115.465 72.4068 118.596 71.5017 121.327 69.6181C128.405 64.7353 130.125 55.1236 125.17 48.1503L125.169 48.1509Z" fill="#FFCC00"/>
</svg>
