<svg xmlns="http://www.w3.org/2000/svg" width="48" height="48" viewBox="0 0 48 48" fill="#FF2D55">
    <path d="M16.8 23.4C16.0044 23.4 15.2413 23.7161 14.6787 24.2787C14.1161 24.8413 13.8 25.6044 13.8 26.4C13.8 27.1957 14.1161 27.9587 14.6787 28.5213C15.2413 29.0839 16.0044 29.4 16.8 29.4C17.194 29.4 17.5841 29.3224 17.9481 29.1716C18.312 29.0209 18.6427 28.7999 18.9213 28.5213C19.1999 28.2427 19.4209 27.912 19.5716 27.5481C19.7224 27.1841 19.8 26.794 19.8 26.4C19.8 26.006 19.7224 25.6159 19.5716 25.252C19.4209 24.888 19.1999 24.5573 18.9213 24.2787C18.6427 24.0001 18.312 23.7791 17.9481 23.6284C17.5841 23.4776 17.194 23.4 16.8 23.4ZM31.2 23.4C30.4044 23.4 29.6413 23.7161 29.0787 24.2787C28.5161 24.8413 28.2 25.6044 28.2 26.4C28.2 27.1957 28.5161 27.9587 29.0787 28.5213C29.6413 29.0839 30.4044 29.4 31.2 29.4C31.9957 29.4 32.7587 29.0839 33.3213 28.5213C33.8839 27.9587 34.2 27.1957 34.2 26.4C34.2 25.6044 33.8839 24.8413 33.3213 24.2787C32.7587 23.7161 31.9957 23.4 31.2 23.4ZM24 0C20.8483 0 17.7274 0.620778 14.8156 1.82689C11.9038 3.033 9.25804 4.80083 7.02944 7.02944C2.52856 11.5303 0 17.6348 0 24C0 30.3652 2.52856 36.4697 7.02944 40.9706C9.25804 43.1992 11.9038 44.967 14.8156 46.1731C17.7274 47.3792 20.8483 48 24 48C30.3652 48 36.4697 45.4714 40.9706 40.9706C45.4714 36.4697 48 30.3652 48 24C48 20.8483 47.3792 17.7274 46.1731 14.8156C44.967 11.9038 43.1992 9.25804 40.9706 7.02944C38.742 4.80083 36.0962 3.033 33.1844 1.82689C30.2726 0.620778 27.1517 0 24 0ZM24 43.2C13.416 43.2 4.8 34.584 4.8 24C4.8 23.304 4.8 22.608 4.92 21.936C10.584 19.416 15.072 14.784 17.424 9.048C20.1669 12.9427 24.0099 15.93 28.4609 17.6275C32.9119 19.3249 37.7682 19.6552 42.408 18.576C42.912 20.28 43.2 22.104 43.2 24C43.2 34.584 34.584 43.2 24 43.2Z" />
</svg>
