<svg xmlns="http://www.w3.org/2000/svg" width="24" height="24" viewBox="0 0 24 24" fill="none">
    <path d="M11.9998 7.20087C12.6626 7.20087 13.1998 6.6636 13.1998 6.00083C13.1998 5.33806 12.6626 4.80078 11.9998 4.80078C11.3371 4.80078 10.7998 5.33806 10.7998 6.00083C10.7998 6.6636 11.3371 7.20087 11.9998 7.20087Z" fill="#8E8E93"/>
    <path d="M11.9998 13.2009C12.6626 13.2009 13.1998 12.6636 13.1998 12.0008C13.1998 11.3381 12.6626 10.8008 11.9998 10.8008C11.3371 10.8008 10.7998 11.3381 10.7998 12.0008C10.7998 12.6636 11.3371 13.2009 11.9998 13.2009Z" fill="#8E8E93"/>
    <path d="M11.9998 19.2009C12.6626 19.2009 13.1998 18.6636 13.1998 18.0008C13.1998 17.3381 12.6626 16.8008 11.9998 16.8008C11.3371 16.8008 10.7998 17.3381 10.7998 18.0008C10.7998 18.6636 11.3371 19.2009 11.9998 19.2009Z" fill="#8E8E93"/>
</svg>
