<svg xmlns="http://www.w3.org/2000/svg" width="171" height="72" viewBox="0 0 171 72" fill="none">
    <path d="M163.97 42.8893C167.842 42.8893 171 45.7492 171 49.4266C171 53.1041 167.842 56.0656 163.97 56.0656H162.443V64.0309C162.443 68.526 158.774 72 154.289 72C149.804 72 146.236 68.526 146.236 64.0309V56.0656H129.83C119.435 56.0656 116.172 48.5073 121.574 40.9489L147.458 4.38535C152.552 -2.86782 162.44 -0.720127 162.44 7.85934V42.8931H163.966L163.97 42.8893ZM136.251 42.8893H146.24V28.4885L136.251 42.8893Z" fill="#FF2D55"/>
    <path d="M44.9698 42.8893C48.8421 42.8893 52 45.7492 52 49.4266C52 53.1041 48.8421 56.0656 44.9698 56.0656H43.4435V64.0309C43.4435 68.526 39.7743 72 35.2892 72C30.8042 72 27.2365 68.526 27.2365 64.0309V56.0656H10.8302C0.435334 56.0656 -2.82787 48.5073 2.57447 40.9489L28.4583 4.38535C33.5524 -2.86782 43.4397 -0.720127 43.4397 7.85934V42.8931H44.9661L44.9698 42.8893ZM17.2514 42.8893H27.2402V28.4885L17.2514 42.8893Z" fill="#FF2D55"/>
    <path d="M115 34.7858V37.2142C115 60.7753 99.7153 72 85.4492 72C71.1832 72 56 60.7753 56 37.2142V34.7858C56 11.3254 71.4877 0 85.4492 0C99.4108 0 115 11.3254 115 34.7858ZM72.3035 34.7858V37.2142C72.3035 45.1003 74.2394 58.2461 85.4492 58.2461C96.6591 58.2461 98.6965 45.1003 98.6965 37.2142V34.7858C98.6965 26.8997 96.6591 13.7539 85.4492 13.7539C74.2394 13.7539 72.3035 26.8997 72.3035 34.7858Z" fill="#FFCC00"/>
</svg>
