<svg xmlns="http://www.w3.org/2000/svg" width="64" height="64" viewBox="0 0 64 64" fill="none">
    <path d="M58.6667 11.1595V8.00233C58.6667 3.59185 55.0773 0.00266656 50.6667 0.00266656C46.256 0.00266656 42.6667 3.59185 42.6667 8.00233V11.1595C39.5707 12.2635 37.3333 15.1967 37.3333 18.6686V26.6682C37.3333 31.0787 40.9227 34.6679 45.3333 34.6679H56C60.4107 34.6679 64 31.0787 64 26.6682V18.6686C64 15.1967 61.7627 12.2635 58.6667 11.1595ZM45.3333 8.00233C45.3333 5.06112 47.7253 2.66922 50.6667 2.66922C53.608 2.66922 56 5.06112 56 8.00233V10.6689H45.3333V8.00233ZM61.3333 26.6682C61.3333 29.6094 58.9413 32.0013 56 32.0013H45.3333C42.392 32.0013 40 29.6094 40 26.6682V18.6686C40 15.7273 42.392 13.3354 45.3333 13.3354H56C58.9413 13.3354 61.3333 15.7273 61.3333 18.6686V26.6682ZM52 21.3351V24.0017C52 24.7376 51.4027 25.3349 50.6667 25.3349C49.9307 25.3349 49.3333 24.7376 49.3333 24.0017V21.3351C49.3333 20.5991 49.9307 20.0018 50.6667 20.0018C51.4027 20.0018 52 20.5991 52 21.3351ZM61.96 38.7157C61.2507 38.5184 60.5173 38.9397 60.3253 39.657C58.3867 46.8567 53.8347 52.8271 47.8613 56.6696C46.872 48.79 40.144 42.6702 32 42.6702C23.856 42.6702 17.144 48.7766 16.144 56.643C8.05067 51.4165 2.66667 42.3342 2.66667 32.004C2.66667 15.8287 15.8267 2.66922 32 2.66922C33.2747 2.66922 34.5627 2.75189 35.8293 2.91721C36.544 3.01054 37.2267 2.4959 37.3227 1.76526C37.416 1.03462 36.9013 0.367985 36.1707 0.269322C34.792 0.0933295 33.3893 0 32 0C14.3547 0.00266656 0 14.3567 0 32.0013C0 49.6459 14.3547 64 32 64C46.44 64 59.1467 54.2751 62.9013 40.3477C63.0933 39.6357 62.672 38.905 61.96 38.7157ZM18.7227 58.1229C19.016 51.0299 24.8347 45.3341 32 45.3341C39.1653 45.3341 44.9893 51.0325 45.28 58.1282C41.256 60.1762 36.7333 61.3334 32 61.3334C27.2187 61.3334 22.7147 60.1602 18.7227 58.1229ZM24 26.6682C24 31.0787 27.5893 34.6679 32 34.6679C32.7787 34.6679 33.5467 34.5559 34.288 34.3372C34.9867 34.1319 35.736 34.5292 35.944 35.2385C36.152 35.9452 35.7493 36.6865 35.0427 36.8945C34.056 37.1851 33.032 37.3344 31.9973 37.3344C26.1147 37.3344 21.3307 32.5506 21.3307 26.6682C21.3307 21.3938 25.2613 16.8553 30.4747 16.1087C31.2027 16.018 31.8773 16.5086 31.984 17.2393C32.088 17.9673 31.5813 18.6446 30.8533 18.7486C26.9467 19.3085 23.9973 22.7111 23.9973 26.6682H24Z" fill="#111111"/>
</svg>
