<svg xmlns="http://www.w3.org/2000/svg" width="52" height="60" viewBox="0 0 52 60" fill="none">
    <path d="M28.0606 19.9341C28.0606 21.0405 27.164 21.9367 26.0581 21.9367C24.9522 21.9367 24.0555 21.0405 24.0555 19.9341C21.8432 19.9341 20.0504 21.7274 20.0504 23.9392V25.9418H32.0658V23.9392C32.0658 21.7274 30.2725 19.9341 28.0606 19.9341Z" fill="#FF2D55" fill-opacity="0.5"/>
    <path d="M42.1868 38.76L35.9713 37.1387C36.0577 37.457 36.1033 37.7846 36.1072 38.1136V43.083C36.1072 41.9852 35.2073 41.0952 34.0974 41.0952C32.9874 41.0952 32.0875 41.9852 32.0875 43.083V40.1014L26.058 46.0646L20.0284 40.1014V43.083C20.0284 41.9852 19.1285 41.0952 18.0186 41.0952C16.9086 41.0952 16.0087 41.9852 16.0087 43.083V38.1136C16.0126 37.7846 16.0583 37.457 16.1441 37.1387L9.92861 38.76C4.62772 40.1314 0.931382 44.8698 0.934817 50.2885V58.9849H51.1811V50.2885C51.1841 44.8698 47.4877 40.1314 42.1868 38.76Z" fill="#FF2D55" fill-opacity="0.5"/>
    <path d="M39.0293 16.1117H41.8966V11.0403C41.8966 9.92002 41.0407 9.01172 39.985 9.01172H38.0735C38.7058 10.6183 39.0307 12.3423 39.0293 14.0832V16.1117Z" fill="#FF2D55" fill-opacity="0.5"/>
    <path d="M13.0187 14.0832C13.0172 12.3423 13.3652 10.6183 14.0427 9.01172H11.9946C10.8636 9.01172 9.94653 9.92002 9.94653 11.0403V16.1117H13.0187V14.0832Z" fill="#FF2D55" fill-opacity="0.5"/>
    <path d="M42.3001 37.6829L35.9881 36.0223C35.2615 35.0364 34.198 34.3523 33.0003 34.0999V32.1062C36.3997 30.1379 38.8182 26.8352 39.6683 22.9997H40.0003C41.578 23.007 43.0116 22.0812 43.6542 20.6403C44.2972 19.1994 44.0287 17.5143 42.9691 16.3449C42.9867 16.2306 42.9969 16.1154 43.0003 15.9996V10.9996C43.0003 9.34285 41.6571 7.99958 40.0003 7.99958H38.6302C36.3211 3.11526 31.4026 0 26.0002 0C20.5973 0 15.6788 3.11526 13.3697 7.99958H12.0001C10.3429 7.99958 9.00007 9.34285 9.00007 10.9996V15.9996C9.003 16.1154 9.01374 16.2306 9.03084 16.3449C7.97174 17.5143 7.70319 19.1994 8.34577 20.6403C8.98884 22.0812 10.422 23.007 12.0001 22.9997H12.3321C13.1817 26.8352 15.6007 30.1379 19.0002 32.1062V34.0999C17.8004 34.3514 16.7355 35.035 16.0079 36.0208L9.69979 37.6829C3.9849 39.179 -0.000488209 44.3426 4.48574e-08 50.2499V59C4.48574e-08 59.5527 0.447757 60 1.00001 60H51.0004C51.5527 60 52.0004 59.5527 52.0004 59V50.2499C52.0009 44.3426 48.015 39.179 42.3001 37.6829ZM35.0003 38.9998V40.1712C34.3528 39.9432 33.6472 39.9432 33.0003 40.1712V36.1712C34.198 36.5965 34.9988 37.7288 35.0003 38.9998ZM40.0003 20.9997V16.9997C41.1048 16.9997 42.0003 17.8952 42.0003 18.9997C42.0003 20.1047 41.1048 20.9997 40.0003 20.9997ZM40.0003 9.99959C40.5526 9.99959 41.0003 10.4474 41.0003 10.9996V15.1417C40.6742 15.0519 40.3382 15.004 40.0003 14.9996V13.9996C39.9993 12.6451 39.8006 11.2975 39.41 9.99959H40.0003ZM12.0001 9.99959H12.5899C12.1998 11.2975 12.0011 12.6451 12.0001 13.9996V14.9996C11.6617 15.004 11.3258 15.0519 11.0001 15.1417V10.9996C11.0001 10.4474 11.4478 9.99959 12.0001 9.99959ZM12.0001 20.9997C10.8956 20.9997 10.0001 20.1047 10.0001 18.9997C10.0001 17.8952 10.8956 16.9997 12.0001 16.9997V20.9997ZM14.0001 19.9997V13.9996C14.0001 7.37262 19.3727 1.99953 26.0002 1.99953C32.6277 1.99953 38.0003 7.37262 38.0003 13.9996V19.9997C38.0003 26.6272 32.6277 31.9998 26.0002 31.9998C19.3727 31.9998 14.0001 26.6272 14.0001 19.9997ZM26.0002 33.9998C27.7102 33.9973 29.4055 33.679 31.0003 33.0608V39.5863L26.0002 44.5863L21.0002 39.5863V33.0608C22.5949 33.679 24.2897 33.9973 26.0002 33.9998ZM17.0001 38.9998C17.0016 37.7288 17.8024 36.5965 19.0002 36.1712V40.1712C18.3527 39.9432 17.6471 39.9432 17.0001 40.1712V38.9998ZM50.0004 58H41.0003V50.9999H39.0003V58H13.0001V50.9999H11.0001V58H2.00002V50.2499C1.99855 45.2538 5.36723 40.8856 10.1998 39.617L15.0621 38.3382C15.0265 38.557 15.006 38.7782 15.0001 38.9998V42.9999C15.0001 43.5526 15.4479 43.9999 16.0001 43.9999C16.5524 43.9999 17.0001 43.5526 17.0001 42.9999C17.0001 42.4476 17.4479 41.9999 18.0001 41.9999C18.5524 41.9999 19.0002 42.4476 19.0002 42.9999C19.0002 43.5526 19.4479 43.9999 20.0002 43.9999C20.5524 43.9999 21.0002 43.5526 21.0002 42.9999V42.4139L25.2932 46.7069C25.6838 47.0976 26.3166 47.0976 26.7072 46.7069L31.0003 42.4139V42.9999C31.0003 43.5526 31.448 43.9999 32.0003 43.9999C32.5525 43.9999 33.0003 43.5526 33.0003 42.9999C33.0003 42.4476 33.448 41.9999 34.0003 41.9999C34.5525 41.9999 35.0003 42.4476 35.0003 42.9999C35.0003 43.5526 35.448 43.9999 36.0003 43.9999C36.5525 43.9999 37.0003 43.5526 37.0003 42.9999V38.9998C36.9925 38.7777 36.97 38.5565 36.9334 38.3372L41.7972 39.617C46.6307 40.8841 50.0014 45.2528 50.0004 50.2499V58Z" fill="#353535"/>
    <path d="M31.2904 15.2899C31.2474 15.3377 31.2069 15.3875 31.1703 15.4403C31.1322 15.4959 31.1019 15.5565 31.0804 15.62C31.0511 15.6766 31.0311 15.7376 31.0204 15.8001C31.0087 15.8661 31.0018 15.9329 31.0004 15.9998C31.0018 16.1307 31.0292 16.2596 31.0804 16.3802C31.1307 16.5013 31.202 16.6126 31.2904 16.7103C31.4818 16.8924 31.7357 16.9964 32.0004 16.9998C32.1307 16.9984 32.2601 16.9715 32.3803 16.9203C32.6312 16.8289 32.8295 16.6312 32.9203 16.3802C32.9716 16.2596 32.9984 16.1307 33.0004 15.9998C32.9965 15.7352 32.893 15.4818 32.7103 15.2899C32.6132 15.202 32.5014 15.1307 32.3803 15.0799C32.0067 14.9344 31.5829 15.0159 31.2904 15.2899Z" fill="#353535"/>
    <path d="M19.2902 15.2899C18.902 15.6815 18.9035 16.3134 19.2941 16.7025C19.6843 17.0917 20.3161 17.0917 20.7063 16.7025C21.0964 16.3134 21.0983 15.6815 20.7102 15.2899C20.3083 14.9222 19.6921 14.9222 19.2902 15.2899Z" fill="#353535"/>
    <path d="M33.0002 25.9996V23.9996C32.9973 21.6246 31.3264 19.5782 29.0002 19.0996V15.9995H27.0002V19.9995C27.0002 20.5523 26.5524 20.9996 26.0002 20.9996C25.4479 20.9996 25.0002 20.5523 25.0002 19.9995V15.9995H23.0002V19.0996C20.6735 19.5782 19.0031 21.6246 19.0001 23.9996V25.9996C19.0001 26.5523 19.4479 26.9996 20.0001 26.9996H32.0002C32.5525 26.9996 33.0002 26.5523 33.0002 25.9996ZM31.0002 24.9996H21.0001V23.9996C21.006 22.648 21.9147 21.4673 23.2199 21.1158C23.674 22.2535 24.7751 23.0001 26.0002 23.0001C27.2248 23.0001 28.3264 22.2535 28.78 21.1158C30.0852 21.4673 30.9944 22.648 31.0002 23.9996V24.9996Z" fill="#353535"/>
    <path d="M18.0001 10.9995H34.0002V12.9995H18.0001V10.9995Z" fill="#353535"/>
    <path d="M22.0002 8H30.0002V10H22.0002V8Z" fill="#353535"/>
</svg>
