<svg xmlns="http://www.w3.org/2000/svg" width="7" height="8" viewBox="0 0 7 8" fill="none">
    <path d="M6.92593 6.089C6.83119 6.243 6.66614 6.328 6.49742 6.328C6.4077 6.328 6.31731 6.30433 6.23562 6.25433L4.00233 4.89267V7.5C4.00233 7.776 3.77736 8 3.50017 8C3.22297 8 2.998 7.776 2.998 7.5V4.89233L0.764378 6.25433C0.682693 6.304 0.591969 6.328 0.502584 6.328C0.333522 6.328 0.168812 6.243 0.0740704 6.089C-0.0708875 5.85367 0.0034327 5.54567 0.240119 5.40167L2.53836 4.00033L0.240119 2.59867C0.0034327 2.45433 -0.0708875 2.14667 0.0740704 1.91133C0.219028 1.67567 0.528696 1.602 0.764378 1.746L2.998 3.108V0.5C2.998 0.224 3.22297 0 3.50017 0C3.77736 0 4.00233 0.224 4.00233 0.5V3.10733L6.23562 1.74567C6.47164 1.60167 6.78131 1.67567 6.92593 1.911C7.07055 2.14633 6.99657 2.45433 6.75988 2.59833L4.46164 3.99967L6.75988 5.401C6.99657 5.54533 7.07089 5.853 6.92593 6.08833V6.089Z" fill="#FF3B30"/>
</svg>
