<svg xmlns="http://www.w3.org/2000/svg" width="24" height="24" viewBox="0 0 32 32" fill="#767676">
    <path d="M31.626 29.7422L23.6739 21.7901C25.8409 19.1397 26.9064 15.7579 26.6499 12.344C26.3934 8.93005 24.8346 5.74533 22.2958 3.44854C19.7571 1.15175 16.4326 -0.0813987 13.0102 0.00417336C9.58772 0.0897455 6.32908 1.48749 3.90828 3.90828C1.48749 6.32908 0.0897455 9.58772 0.00417336 13.0102C-0.0813987 16.4326 1.15175 19.7571 3.44854 22.2958C5.74533 24.8346 8.93005 26.3934 12.344 26.6499C15.7579 26.9064 19.1397 25.8409 21.7901 23.6739L29.7422 31.626C29.9935 31.8687 30.33 32.003 30.6793 32C31.0286 31.9969 31.3628 31.8568 31.6098 31.6098C31.8568 31.3628 31.9969 31.0286 32 30.6793C32.003 30.33 31.8687 29.9935 31.626 29.7422ZM13.365 24.0229C11.2571 24.0229 9.1965 23.3979 7.44381 22.2268C5.69113 21.0557 4.32508 19.3911 3.5184 17.4436C2.71173 15.4962 2.50067 13.3532 2.91191 11.2858C3.32315 9.21834 4.33821 7.31928 5.82875 5.82875C7.31928 4.33821 9.21834 3.32315 11.2858 2.91191C13.3532 2.50067 15.4962 2.71173 17.4436 3.5184C19.3911 4.32508 21.0557 5.69113 22.2268 7.44381C23.3979 9.1965 24.0229 11.2571 24.0229 13.365C24.0198 16.1907 22.8959 18.8997 20.8978 20.8978C18.8997 22.8959 16.1907 24.0198 13.365 24.0229Z" />
</svg>
