<svg width="512" height="512" viewBox="0 0 512 512" fill="none" xmlns="http://www.w3.org/2000/svg">
<path d="M261 419.052V391.969C261 389.207 258.762 386.969 256 386.969C253.239 386.969 251 389.207 251 391.969V419.052C241.595 421.313 234.577 429.773 234.577 439.862C234.577 451.674 244.187 461.285 256 461.285C267.812 461.285 277.423 451.675 277.423 439.862C277.423 429.773 270.404 421.313 261 419.052ZM256 451.284C249.701 451.284 244.577 446.16 244.577 439.861C244.577 433.562 249.702 428.438 256 428.438C262.298 428.438 267.423 433.562 267.423 439.861C267.423 446.16 262.299 451.284 256 451.284Z" fill="#9494FF"/>
<path d="M423.467 391.652H88.5331C83.0101 391.652 78.5331 387.175 78.5331 381.652V95.1169C78.5331 89.5939 83.0101 85.1169 88.5331 85.1169H423.468C428.991 85.1169 433.468 89.5939 433.468 95.1169V381.652C433.467 387.175 428.99 391.652 423.467 391.652Z" fill="white"/>
<path d="M244.577 142.172H406.4V331.547H244.577V142.172Z" fill="#D9D9FF"/>
<path d="M433.467 142.172H78.5331V95.1169C78.5331 89.5939 83.0101 85.1169 88.5331 85.1169H423.468C428.991 85.1169 433.468 89.5939 433.468 95.1169L433.467 142.172Z" fill="#6C6CFF"/>
<path d="M187.611 64.7161C186.331 64.7161 185.052 64.2281 184.075 63.2511L178.611 57.7871L173.147 63.2511C171.194 65.2041 168.029 65.2041 166.076 63.2511C164.123 61.2991 164.123 58.1331 166.076 56.1811L175.076 47.1811C177.029 45.2281 180.194 45.2281 182.147 47.1811L191.147 56.1811C193.1 58.1331 193.1 61.2991 191.147 63.2511C190.17 64.2281 188.891 64.7161 187.611 64.7161Z" fill="#FF6C6C"/>
<path d="M397.085 449.361C395.806 449.361 394.525 448.873 393.55 447.896L388.085 442.432L382.62 447.896C380.669 449.849 377.501 449.849 375.55 447.896C373.597 445.944 373.597 442.778 375.55 440.826L384.55 431.826C386.501 429.873 389.669 429.873 391.62 431.826L400.62 440.826C402.573 442.778 402.573 445.944 400.62 447.896C399.645 448.873 398.364 449.361 397.085 449.361Z" fill="#FF6C6C"/>
<path d="M56.212 346.2C54.932 346.2 53.653 345.712 52.676 344.735L47.212 339.271L41.748 344.735C39.795 346.688 36.63 346.688 34.677 344.735C32.724 342.783 32.724 339.617 34.677 337.665L43.677 328.665C45.63 326.712 48.795 326.712 50.748 328.665L59.748 337.665C61.701 339.617 61.701 342.783 59.748 344.735C58.771 345.712 57.492 346.2 56.212 346.2Z" fill="#FF9D33"/>
<path d="M183.611 466.284C182.331 466.284 181.052 465.796 180.075 464.819C178.122 462.867 178.122 459.701 180.075 457.749L190.075 447.749C192.028 445.796 195.193 445.796 197.146 447.749C199.099 449.701 199.099 452.867 197.146 454.819L187.146 464.819C186.17 465.796 184.891 466.284 183.611 466.284Z" fill="#6C6CFF"/>
<path d="M423.468 433.016C422.189 433.016 420.908 432.528 419.933 431.551C417.98 429.599 417.98 426.433 419.933 424.481L429.933 414.481C431.884 412.528 435.052 412.528 437.003 414.481C438.956 416.433 438.956 419.599 437.003 421.551L427.003 431.551C426.027 432.527 424.747 433.016 423.468 433.016Z" fill="#6C6CFF"/>
<path d="M162.349 283.107C129.407 283.107 102.606 256.306 102.606 223.364C102.606 190.422 129.406 163.621 162.349 163.621C195.292 163.621 222.092 190.422 222.092 223.364C222.092 256.306 195.291 283.107 162.349 283.107ZM162.349 197.944C148.333 197.944 136.929 209.347 136.929 223.364C136.929 237.381 148.333 248.784 162.349 248.784C176.366 248.784 187.769 237.381 187.769 223.364C187.769 209.347 176.366 197.944 162.349 197.944Z" fill="#FF9D33"/>
<path d="M187.769 223.364C187.769 209.347 176.365 197.944 162.349 197.944V163.621C195.291 163.621 222.092 190.422 222.092 223.364H187.769Z" fill="#FF6C6C"/>
<path d="M406.4 200.375L338.618 269.989L309.675 256.512L244.576 313.653V365.01C244.576 367.771 246.815 370.01 249.576 370.01H401.4C404.161 370.01 406.4 367.771 406.4 365.01V200.375Z" fill="#FFE8DC"/>
<path d="M289.594 370.01H266.883V334.084C266.883 331.323 269.122 329.084 271.883 329.084H284.594C287.355 329.084 289.594 331.323 289.594 334.084V370.01Z" fill="#FFAB66"/>
<path d="M324.211 370.01H301.5V298.084C301.5 295.323 303.739 293.084 306.5 293.084H319.211C321.972 293.084 324.211 295.323 324.211 298.084V370.01Z" fill="#FF6C6C"/>
<path d="M358.828 370.01H336.117V320.084C336.117 317.323 338.356 315.084 341.117 315.084H353.828C356.589 315.084 358.828 317.323 358.828 320.084V370.01Z" fill="#FFAB66"/>
<path d="M393.446 370.01H370.735V262.083C370.735 259.322 372.974 257.083 375.735 257.083H388.446C391.207 257.083 393.446 259.322 393.446 262.083V370.01Z" fill="#FF6C6C"/>
<path d="M244.579 318.652C243.19 318.652 241.808 318.077 240.819 316.951C238.997 314.875 239.203 311.716 241.278 309.894L306.376 252.753C307.866 251.445 309.988 251.14 311.785 251.979L337.511 263.958L402.818 196.887C404.744 194.909 407.909 194.867 409.888 196.793C411.867 198.719 411.909 201.885 409.982 203.863L342.2 273.478C340.719 275 338.434 275.421 336.508 274.522L310.523 262.422L247.876 317.41C246.926 318.243 245.75 318.652 244.579 318.652Z" fill="#6C6CFF"/>
<path d="M170.363 323.653H115.78C113.019 323.653 110.78 321.414 110.78 318.653C110.78 315.892 113.019 313.653 115.78 313.653H170.363C173.124 313.653 175.363 315.892 175.363 318.653C175.363 321.414 173.124 323.653 170.363 323.653Z" fill="#FFAB66"/>
<path d="M196.363 345.578H115.78C113.019 345.578 110.78 343.339 110.78 340.578C110.78 337.817 113.019 335.578 115.78 335.578H196.363C199.124 335.578 201.363 337.817 201.363 340.578C201.363 343.339 199.124 345.578 196.363 345.578Z" fill="#FF6C6C"/>
<path d="M196.363 367.504H115.78C113.019 367.504 110.78 365.265 110.78 362.504C110.78 359.743 113.019 357.504 115.78 357.504H196.363C199.124 357.504 201.363 359.743 201.363 362.504C201.363 365.265 199.124 367.504 196.363 367.504Z" fill="#FF6C6C"/>
<path d="M322.738 198.486H288.155C285.394 198.486 283.155 196.247 283.155 193.486C283.155 190.725 285.394 188.486 288.155 188.486H322.738C325.499 188.486 327.738 190.725 327.738 193.486C327.738 196.247 325.5 198.486 322.738 198.486Z" fill="#FFAB66"/>
<path d="M268.423 198.486C271.184 198.486 273.423 196.248 273.423 193.486C273.423 190.725 271.184 188.486 268.423 188.486C265.662 188.486 263.423 190.725 263.423 193.486C263.423 196.248 265.662 198.486 268.423 198.486Z" fill="#8383FF"/>
<path d="M342.738 217.469H288.155C285.394 217.469 283.155 215.23 283.155 212.469C283.155 209.708 285.394 207.469 288.155 207.469H342.738C345.499 207.469 347.738 209.708 347.738 212.469C347.738 215.23 345.5 217.469 342.738 217.469Z" fill="#FF6C6C"/>
<path d="M268.423 217.469C271.184 217.469 273.423 215.23 273.423 212.469C273.423 209.708 271.184 207.469 268.423 207.469C265.662 207.469 263.423 209.708 263.423 212.469C263.423 215.23 265.662 217.469 268.423 217.469Z" fill="#8383FF"/>
<path d="M128.399 299.077H123.067C116.559 299.077 111.264 293.782 111.264 287.274V270.817C111.264 264.309 116.559 259.014 123.067 259.014H128.399C134.907 259.014 140.201 264.309 140.201 270.817V287.274C140.201 293.782 134.907 299.077 128.399 299.077ZM123.067 269.014C122.073 269.014 121.264 269.823 121.264 270.817V287.274C121.264 288.268 122.073 289.077 123.067 289.077H128.399C129.392 289.077 130.201 288.268 130.201 287.274V270.817C130.201 269.823 129.392 269.014 128.399 269.014H123.067Z" fill="#6C6CFF"/>
<path d="M169.879 298.636H151.771C149.649 298.636 147.759 297.296 147.055 295.295C146.351 293.294 146.987 291.066 148.641 289.736C153.683 285.686 161.486 278.284 163.046 274.507C163.646 273.056 163.551 271.456 162.799 270.331C162.214 269.456 161.344 269.013 160.213 269.013C158.315 269.013 156.771 270.557 156.771 272.455C156.771 275.217 154.533 277.455 151.771 277.455C149.009 277.455 146.771 275.217 146.771 272.455C146.771 265.043 152.801 259.013 160.213 259.013C164.692 259.013 168.664 261.113 171.111 264.773C173.735 268.696 174.174 273.763 172.288 278.328C170.934 281.602 167.89 285.325 164.694 288.636H169.879C172.641 288.636 174.879 290.874 174.879 293.636C174.879 296.398 172.641 298.636 169.879 298.636Z" fill="#6C6CFF"/>
</svg>
