<svg width="512" height="512" viewBox="0 0 512 512" fill="none" xmlns="http://www.w3.org/2000/svg">
<path d="M391.78 73.8701V126.95C391.78 129.71 389.54 131.95 386.78 131.95H314.58V151.42C314.58 155.41 310.14 157.79 306.82 155.59L271.09 131.95L298.14 68.8701H386.78C389.54 68.8701 391.78 71.1101 391.78 73.8701Z" fill="#FF9B33"/>
<path d="M251.523 73.8701V126.947C251.523 129.708 253.762 131.947 256.523 131.947H271.085H298.142C300.903 131.947 303.142 129.708 303.142 126.947V100.459L251.523 73.8701Z" fill="#FF8900"/>
<path d="M247.15 307.05V313.38H61.78L74.43 262.78C77.7 249.71 89.44 240.55 102.91 240.55H105C105 240.55 153.2 258.78 192.96 242.59L192.97 242.58C198.11 245.1 202.07 249.79 203.53 255.63L211.38 287.05H227.15C238.2 287.05 247.15 296.01 247.15 307.05Z" fill="#8181FF"/>
<path d="M148.928 273.132C169.122 273.302 186.415 260.525 192.958 242.589C190.295 241.283 187.322 240.545 184.204 240.545H104.997C110.849 259.307 128.28 272.959 148.928 273.132Z" fill="#6C6CFF"/>
<path d="M145.838 314.531L95.136 311.378L98.085 301.966C99.9 296.173 105.267 292.231 111.338 292.231H162.187L145.838 314.531Z" fill="#9292FF"/>
<path d="M184.604 318.379C182.364 318.379 180.326 316.863 179.757 314.591L168.583 269.897C167.913 267.218 169.542 264.503 172.221 263.834C174.899 263.162 177.615 264.792 178.284 267.472L189.458 312.166C190.128 314.845 188.499 317.56 185.82 318.229C185.414 318.331 185.006 318.379 184.604 318.379Z" fill="#6C6CFF"/>
<path d="M188.906 154.274H150.088C124.393 154.274 102.742 175.296 102.898 200.991C103.052 226.369 123.565 246.919 148.929 247.132C174.703 247.349 195.758 226.477 195.757 200.702C195.756 189.43 191.736 179.098 185.055 171.056L192.694 163.417C196.067 160.043 193.678 154.274 188.906 154.274Z" fill="#9292FF"/>
<path d="M149.326 229.399C138.249 229.399 128.276 223.242 123.301 213.331C122.063 210.863 123.059 207.858 125.527 206.619C127.996 205.383 131.001 206.377 132.239 208.845C135.508 215.355 142.054 219.4 149.327 219.4C156.6 219.4 163.146 215.356 166.415 208.845C167.654 206.377 170.659 205.382 173.127 206.619C175.595 207.858 176.591 210.863 175.353 213.331C170.376 223.242 160.403 229.399 149.326 229.399Z" fill="#6C6CFF"/>
<path d="M170.172 184.836H150.203C147.441 184.836 145.203 182.597 145.203 179.836C145.203 177.075 147.441 174.836 150.203 174.836H160.206L159.271 173.583C157.62 171.369 158.076 168.236 160.29 166.585C162.504 164.935 165.637 165.391 167.287 167.604L174.18 176.846C175.311 178.362 175.49 180.387 174.641 182.077C173.793 183.769 172.063 184.836 170.172 184.836Z" fill="#B1B1FF"/>
<path d="M450.22 313.38H294.03L308.47 255.63C309.94 249.76 313.93 245.05 319.11 242.54L319.04 242.6C319.04 242.6 356.34 261.57 407 240.55H409.09C422.56 240.55 434.3 249.71 437.57 262.78L450.22 313.38Z" fill="#FFA966"/>
<path d="M407.003 240.548H327.8C324.679 240.548 321.702 241.288 319.037 242.596C325.527 260.412 342.614 273.134 362.674 273.134C383.494 273.134 401.113 259.429 407.003 240.548Z" fill="#FF9B33"/>
<path d="M330.139 318.379C329.738 318.379 329.329 318.331 328.922 318.229C326.243 317.559 324.614 314.844 325.284 312.166L332.514 283.255C333.185 280.576 335.899 278.947 338.577 279.617C341.255 280.287 342.885 283.002 342.215 285.68L334.985 314.591C334.417 316.863 332.379 318.379 330.139 318.379Z" fill="#FF8900"/>
<path d="M362.674 318.378C359.912 318.378 357.674 316.139 357.674 313.378V307.052C357.674 293.267 368.889 282.052 382.674 282.052H404.529L401.194 270.019C400.457 267.358 402.016 264.602 404.677 263.865C407.333 263.125 410.093 264.687 410.83 267.348L415.921 285.716C416.338 287.221 416.028 288.835 415.082 290.078C414.137 291.321 412.664 292.051 411.103 292.051H382.673C374.402 292.051 367.673 298.78 367.673 307.051V313.377C367.674 316.139 365.436 318.378 362.674 318.378Z" fill="#FF8900"/>
<path d="M450.23 367.381V464.621C450.23 467.381 447.99 469.621 445.23 469.621H61.97C59.21 469.621 56.97 467.381 56.97 464.621V367.381C56.97 367.381 84.47 345.361 56.97 337.411H450.23C433.05 353.061 450.23 367.381 450.23 367.381Z" fill="#FF6C6C"/>
<path d="M56.973 337.409H450.233V367.379H56.973V337.409Z" fill="#FF4D4D"/>
<path d="M261.259 311.38L207.992 315.656L145.838 311.38L164.852 239.676C165.433 237.484 167.417 235.958 169.685 235.958H274.76C278.042 235.958 280.434 239.068 279.593 242.241L261.259 311.38Z" fill="#B1B1FF"/>
<path d="M462.718 341.379H49.282C45.968 341.379 43.282 338.693 43.282 335.379V317.379C43.282 314.065 45.968 311.379 49.282 311.379H462.718C466.032 311.379 468.718 314.065 468.718 317.379V335.379C468.718 338.692 466.032 341.379 462.718 341.379Z" fill="#D7D7FF"/>
<path d="M362.674 247.134C388.317 247.134 409.104 226.347 409.104 200.704C409.104 175.062 388.317 154.274 362.674 154.274C337.031 154.274 316.244 175.062 316.244 200.704C316.244 226.347 337.031 247.134 362.674 247.134Z" fill="#FFA966"/>
<path d="M362.674 229.399C351.597 229.399 341.624 223.242 336.649 213.33C335.411 210.862 336.407 207.857 338.875 206.618C341.344 205.38 344.348 206.376 345.587 208.844C348.855 215.355 355.402 219.399 362.675 219.399C369.948 219.399 376.495 215.355 379.763 208.844C381.003 206.376 384.008 205.381 386.475 206.618C388.943 207.857 389.939 210.862 388.701 213.33C383.724 223.242 373.751 229.399 362.674 229.399Z" fill="#FF8900"/>
<path d="M359.787 191.006C354.515 191.006 349.74 189.578 346.634 188.027C345.286 187.355 344.315 186.111 343.987 184.642C343.659 183.172 344.01 181.634 344.944 180.453L353.082 170.158C354.796 167.991 357.939 167.623 360.105 169.336C362.271 171.048 362.639 174.192 360.927 176.359L357.398 180.824C358.046 180.907 358.727 180.965 359.428 180.984C365.107 181.139 369.556 178.846 372.99 173.964C374.58 171.706 377.701 171.163 379.956 172.751C382.215 174.34 382.759 177.459 381.17 179.717C375.1 188.348 366.98 191.006 359.787 191.006Z" fill="#FFC397"/>
<path d="M114.256 450.616C117.017 450.616 119.256 448.378 119.256 445.616C119.256 442.855 117.017 440.616 114.256 440.616C111.495 440.616 109.256 442.855 109.256 445.616C109.256 448.378 111.495 450.616 114.256 450.616Z" fill="#FFB1B1"/>
<path d="M97.615 450.616C100.376 450.616 102.615 448.378 102.615 445.616C102.615 442.855 100.376 440.616 97.615 440.616C94.8536 440.616 92.615 442.855 92.615 445.616C92.615 448.378 94.8536 450.616 97.615 450.616Z" fill="#FFB1B1"/>
<path d="M80.975 450.616C83.7364 450.616 85.975 448.378 85.975 445.616C85.975 442.855 83.7364 440.616 80.975 440.616C78.2136 440.616 75.975 442.855 75.975 445.616C75.975 448.378 78.2136 450.616 80.975 450.616Z" fill="#FFB1B1"/>
<path d="M80.975 417.335C83.7364 417.335 85.975 415.097 85.975 412.335C85.975 409.574 83.7364 407.335 80.975 407.335C78.2136 407.335 75.975 409.574 75.975 412.335C75.975 415.097 78.2136 417.335 80.975 417.335Z" fill="#FFB1B1"/>
<path d="M80.975 433.976C83.7364 433.976 85.975 431.737 85.975 428.976C85.975 426.214 83.7364 423.976 80.975 423.976C78.2136 423.976 75.975 426.214 75.975 428.976C75.975 431.737 78.2136 433.976 80.975 433.976Z" fill="#FFB1B1"/>
<path d="M97.615 433.976C100.376 433.976 102.615 431.737 102.615 428.976C102.615 426.214 100.376 423.976 97.615 423.976C94.8536 423.976 92.615 426.214 92.615 428.976C92.615 431.737 94.8536 433.976 97.615 433.976Z" fill="#FFB1B1"/>
<path d="M213.681 296.602C216.442 296.602 218.681 294.363 218.681 291.602C218.681 288.841 216.442 286.602 213.681 286.602C210.92 286.602 208.681 288.841 208.681 291.602C208.681 294.363 210.92 296.602 213.681 296.602Z" fill="#8181FF"/>
<path d="M230.321 296.602C233.082 296.602 235.321 294.363 235.321 291.602C235.321 288.841 233.082 286.602 230.321 286.602C227.56 286.602 225.321 288.841 225.321 291.602C225.321 294.363 227.56 296.602 230.321 296.602Z" fill="#8181FF"/>
<path d="M246.961 296.602C249.722 296.602 251.961 294.363 251.961 291.602C251.961 288.841 249.722 286.602 246.961 286.602C244.2 286.602 241.961 288.841 241.961 291.602C241.961 294.363 244.2 296.602 246.961 296.602Z" fill="#8181FF"/>
<path d="M256.523 263.322C259.284 263.322 261.523 261.084 261.523 258.322C261.523 255.561 259.284 253.322 256.523 253.322C253.762 253.322 251.523 255.561 251.523 258.322C251.523 261.084 253.762 263.322 256.523 263.322Z" fill="#8181FF"/>
<path d="M251.523 279.962C254.284 279.962 256.523 277.724 256.523 274.962C256.523 272.201 254.284 269.962 251.523 269.962C248.762 269.962 246.523 272.201 246.523 274.962C246.523 277.724 248.762 279.962 251.523 279.962Z" fill="#8181FF"/>
<path d="M234.883 279.962C237.644 279.962 239.883 277.724 239.883 274.962C239.883 272.201 237.644 269.962 234.883 269.962C232.122 269.962 229.883 272.201 229.883 274.962C229.883 277.724 232.122 279.962 234.883 279.962Z" fill="#8181FF"/>
<path d="M298.142 42.3823H147.888C145.127 42.3823 142.888 44.6213 142.888 47.3823V100.459C142.888 103.22 145.127 105.459 147.888 105.459H166.1V124.936C166.1 128.922 170.535 131.305 173.859 129.106L209.592 105.459H298.142C300.903 105.459 303.142 103.22 303.142 100.459V47.3823C303.142 44.6213 300.904 42.3823 298.142 42.3823Z" fill="#9292FF"/>
<path d="M364.921 94.6226H326.146C323.384 94.6226 321.146 92.3836 321.146 89.6226C321.146 86.8616 323.384 84.6226 326.146 84.6226H364.921C367.683 84.6226 369.921 86.8616 369.921 89.6226C369.921 92.3836 367.683 94.6226 364.921 94.6226Z" fill="#FFC397"/>
<path d="M364.921 112.282H326.146C323.384 112.282 321.146 110.043 321.146 107.282C321.146 104.521 323.384 102.282 326.146 102.282H364.921C367.683 102.282 369.921 104.521 369.921 107.282C369.921 110.043 367.683 112.282 364.921 112.282Z" fill="#FFC397"/>
<path d="M185.076 68.9375H166.3C163.538 68.9375 161.3 66.6985 161.3 63.9375C161.3 61.1765 163.538 58.9375 166.3 58.9375H185.076C187.838 58.9375 190.076 61.1765 190.076 63.9375C190.076 66.6985 187.838 68.9375 185.076 68.9375Z" fill="#6C6CFF"/>
<path d="M224.688 86.5957H166.3C163.538 86.5957 161.3 84.3567 161.3 81.5957C161.3 78.8347 163.538 76.5957 166.3 76.5957H224.688C227.45 76.5957 229.688 78.8347 229.688 81.5957C229.688 84.3567 227.449 86.5957 224.688 86.5957Z" fill="#6C6CFF"/>
<path d="M278.847 68.9375H203.659C200.897 68.9375 198.659 66.6985 198.659 63.9375C198.659 61.1765 200.897 58.9375 203.659 58.9375H278.847C281.609 58.9375 283.847 61.1765 283.847 63.9375C283.847 66.6985 281.608 68.9375 278.847 68.9375Z" fill="#6C6CFF"/>
<path d="M278.533 86.5952C281.294 86.5952 283.533 84.3566 283.533 81.5952C283.533 78.8338 281.294 76.5952 278.533 76.5952C275.772 76.5952 273.533 78.8338 273.533 81.5952C273.533 84.3566 275.772 86.5952 278.533 86.5952Z" fill="#D7D7FF"/>
<path d="M261.893 86.5952C264.654 86.5952 266.893 84.3566 266.893 81.5952C266.893 78.8338 264.654 76.5952 261.893 76.5952C259.132 76.5952 256.893 78.8338 256.893 81.5952C256.893 84.3566 259.132 86.5952 261.893 86.5952Z" fill="#D7D7FF"/>
<path d="M245.252 86.5952C248.013 86.5952 250.252 84.3566 250.252 81.5952C250.252 78.8338 248.013 76.5952 245.252 76.5952C242.491 76.5952 240.252 78.8338 240.252 81.5952C240.252 84.3566 242.491 86.5952 245.252 86.5952Z" fill="#D7D7FF"/>
<path d="M112.176 83.7002C110.897 83.7002 109.616 83.2122 108.641 82.2362L103.176 76.7722L97.711 82.2362C95.76 84.1882 92.592 84.1882 90.641 82.2362C88.688 80.2832 88.688 77.1172 90.641 75.1652L99.641 66.1652C101.592 64.2132 104.76 64.2132 106.711 66.1652L115.711 75.1652C117.664 77.1182 117.664 80.2842 115.711 82.2362C114.735 83.2112 113.455 83.7002 112.176 83.7002Z" fill="#FF9B33"/>
<path d="M469.425 195.491C468.146 195.491 466.865 195.003 465.89 194.027L460.425 188.563L454.96 194.027C453.009 195.979 449.841 195.979 447.89 194.027C445.937 192.074 445.937 188.908 447.89 186.956L456.89 177.956C458.841 176.004 462.009 176.004 463.96 177.956L472.96 186.956C474.913 188.909 474.913 192.075 472.96 194.027C471.984 195.003 470.704 195.491 469.425 195.491Z" fill="#FF6C6C"/>
<path d="M65.973 227.243C64.694 227.243 63.413 226.755 62.438 225.779L56.973 220.315L51.508 225.779C49.557 227.731 46.389 227.731 44.438 225.779C42.485 223.826 42.485 220.66 44.438 218.708L53.438 209.708C55.389 207.756 58.557 207.756 60.508 209.708L69.508 218.708C71.461 220.661 71.461 223.827 69.508 225.779C68.532 226.755 67.252 227.243 65.973 227.243Z" fill="#FF6C6C"/>
<path d="M89.728 113.554C86.966 113.554 84.728 111.325 84.728 108.564V108.544C84.728 105.783 86.966 103.544 89.728 103.544C92.49 103.544 94.728 105.783 94.728 108.544C94.728 111.305 92.489 113.554 89.728 113.554Z" fill="#6C6CFF"/>
<path d="M98.494 127.322C95.732 127.322 93.494 125.093 93.494 122.332V122.312C93.494 119.551 95.732 117.312 98.494 117.312C101.256 117.312 103.494 119.551 103.494 122.312C103.494 125.073 101.256 127.322 98.494 127.322Z" fill="#6C6CFF"/>
<path d="M80.961 127.322C78.199 127.322 75.961 125.093 75.961 122.332V122.312C75.961 119.551 78.199 117.312 80.961 117.312C83.723 117.312 85.961 119.551 85.961 122.312C85.961 125.073 83.723 127.322 80.961 127.322Z" fill="#6C6CFF"/>
<path d="M460.425 220.36C457.663 220.36 455.425 218.131 455.425 215.37V215.35C455.425 212.589 457.663 210.35 460.425 210.35C463.187 210.35 465.425 212.589 465.425 215.35C465.425 218.111 463.187 220.36 460.425 220.36Z" fill="#6C6CFF"/>
<path d="M469.191 234.126C466.429 234.126 464.191 231.897 464.191 229.136V229.116C464.191 226.355 466.429 224.116 469.191 224.116C471.953 224.116 474.191 226.355 474.191 229.116C474.191 231.877 471.953 234.126 469.191 234.126Z" fill="#6C6CFF"/>
<path d="M451.658 234.126C448.896 234.126 446.658 231.897 446.658 229.136V229.116C446.658 226.355 448.896 224.116 451.658 224.116C454.42 224.116 456.658 226.355 456.658 229.116C456.658 231.877 454.42 234.126 451.658 234.126Z" fill="#6C6CFF"/>
</svg>
