<svg width="512" height="512" viewBox="0 0 512 512" fill="none" xmlns="http://www.w3.org/2000/svg">
<path d="M369.627 317.123C369.627 317.123 253.756 271.457 225.413 202.522C217.529 183.347 198.577 171.076 177.853 171.627C158.75 172.136 141.606 183.473 133.67 200.857C126.114 217.408 117.685 240.723 112.905 269.607L369.627 317.123Z" fill="#FF9C33"/>
<path d="M185.423 283.029C189.132 268.163 196.574 252.899 207.08 238.886C214.273 229.293 222.435 220.926 231.11 214.114C229.417 211.141 227.875 208.119 226.507 205.048C216.548 212.619 207.215 222.037 199.08 232.888C187.649 248.133 179.575 264.851 175.584 281.208L185.423 283.029Z" fill="#FF8A00"/>
<path d="M273.436 261.288C269.522 267.191 265.293 273.189 260.809 279.17C256.762 284.567 252.643 289.765 248.519 294.707L259.753 296.786C262.793 293.03 265.82 289.153 268.808 285.168C273.246 279.249 277.441 273.314 281.34 267.459C278.678 265.454 276.04 263.397 273.436 261.288Z" fill="#FF8A00"/>
<path d="M205.734 286.788L216.237 288.732C221.854 279.513 228.4 269.867 235.598 260.267C240.731 253.421 245.979 246.886 251.207 240.805C248.889 238.336 246.651 235.82 244.514 233.255C238.848 239.794 233.157 246.854 227.598 254.269C219.354 265.263 211.936 276.318 205.734 286.788Z" fill="#FF8A00"/>
<path d="M343.38 100.351L361.044 113.599L312.251 178.656L294.587 165.408L343.38 100.351Z" fill="#6C6CFF"/>
<path d="M311.142 143.446L343.45 100.369L361.114 113.617L328.806 156.694L311.142 143.446Z" fill="#4D4DFF"/>
<path d="M391.797 39.007L406.386 49.945C410.805 53.258 411.701 59.526 408.388 63.945L352.016 139.129C348.703 143.548 342.435 144.444 338.016 141.131L323.427 130.193C319.008 126.88 318.112 120.612 321.425 116.193L377.797 41.009C381.11 36.591 387.378 35.694 391.797 39.007Z" fill="#8282FF"/>
<path d="M400.223 74.8341L408.387 63.9451C411.7 59.5261 410.804 53.2581 406.385 49.9451L391.796 39.0071C387.377 35.6941 381.109 36.5901 377.796 41.0091L369.632 51.8981L400.223 74.8341Z" fill="#6C6CFF"/>
<path d="M293.326 284.55C292.282 284.55 291.23 284.225 290.331 283.551C288.121 281.895 287.673 278.761 289.329 276.551C303.227 258.011 311.772 237.283 313.391 218.185C314.938 199.945 309.938 185.514 299.312 177.551C288.687 169.582 273.433 168.829 256.361 175.428C238.484 182.336 220.982 196.351 207.08 214.891C195.923 229.76 188.19 246.091 184.717 262.12C184.132 264.818 181.471 266.534 178.772 265.948C176.073 265.363 174.359 262.701 174.944 260.003C178.72 242.577 187.067 224.902 199.082 208.891C214.093 188.873 233.155 173.676 252.757 166.101C273.165 158.215 291.83 159.441 305.312 169.551C318.796 179.655 325.206 197.229 323.358 219.031C321.583 239.971 312.339 262.53 297.333 282.55C296.349 283.859 294.847 284.55 293.326 284.55Z" fill="#6C6CFF"/>
<path d="M252.407 278.859C251.279 278.859 250.145 278.48 249.211 277.702C247.089 275.935 246.801 272.782 248.567 270.66C252.792 265.585 256.911 260.374 260.809 255.172C274.728 236.604 286.238 217.86 293.22 202.396C301.203 184.713 300.048 178.294 299.302 177.543C298.388 177.053 291.894 177.751 277.156 190.375C264.268 201.415 249.51 217.714 235.6 236.269C227.36 247.256 220.023 258.207 213.791 268.822C212.394 271.203 209.328 272.001 206.948 270.602C204.566 269.205 203.769 266.14 205.168 263.759C211.588 252.822 219.135 241.555 227.599 230.27C242.27 210.7 257.86 193.579 271.495 182.063C287.478 168.564 298.54 164.471 305.31 169.55C312.083 174.627 311.256 186.393 302.778 205.519C295.549 221.831 283.485 241.594 268.811 261.169C264.811 266.507 260.586 271.853 256.252 277.059C255.264 278.246 253.841 278.859 252.407 278.859Z" fill="#6C6CFF"/>
<path d="M310.689 189.78L284.387 170.059C282.178 168.402 281.729 165.269 283.386 163.059L287.446 157.644C290.759 153.225 297.027 152.329 301.446 155.642L319.747 169.364C324.166 172.677 325.062 178.945 321.749 183.364L317.689 188.779C316.032 190.989 312.898 191.437 310.689 189.78Z" fill="#9393FF"/>
<path d="M235.92 282.453C235.92 282.453 304.554 280.357 338.587 226.879C347.716 212.535 363.511 203.826 380.509 204.207C402.156 204.693 417.83 225.103 412.623 246.12C406.294 271.662 391.343 306.559 356.768 343.324L235.92 282.453Z" fill="#FFAA66"/>
<path d="M240.541 473.096L202.551 466.397C139.653 455.306 95.518 398.186 100.656 334.525L105.807 270.711L398.379 322.3L381.394 384.027C364.449 445.606 303.439 484.187 240.541 473.096Z" fill="#FFEDED"/>
<path d="M233.389 471.835L209.704 467.659C170.491 460.745 146.152 407.115 153.513 343.846L160.892 280.425L343.294 312.587L328.537 374.707C313.816 436.678 272.602 478.749 233.389 471.835Z" fill="#FFD8D8"/>
<path d="M227.38 433.561C181.568 425.483 142.7 413.582 113.818 400.833C116.403 405.882 119.327 410.742 122.567 415.377C152.07 426.985 187.702 436.719 225.644 443.409C259.561 449.389 292.571 452.457 321.834 452.456C325.787 452.456 329.663 452.393 333.473 452.281C338.065 449.038 342.439 445.481 346.562 441.633C312.568 444.014 270.78 441.214 227.38 433.561Z" fill="#FFD8D8"/>
<path d="M103.357 301.075L157.381 310.601L247.827 322.373L336.273 342.145L390.297 351.671L398.379 322.3L105.808 270.712L103.357 301.075Z" fill="#FFD8D8"/>
<path d="M165.484 429.715C184.403 435.077 204.667 439.709 225.643 443.408C247.035 447.18 268.063 449.79 288.021 451.206C291.026 448.307 293.942 445.145 296.752 441.736C274.811 440.525 251.345 437.787 227.379 433.561C202.959 429.255 180.514 423.863 160.501 417.835C161.981 421.998 163.647 425.965 165.484 429.715Z" fill="#FFB2B2"/>
<path d="M336.273 342.145L343.295 312.587L211.195 289.294L160.892 280.425L157.381 310.601L336.273 342.145Z" fill="#FFB2B2"/>
<path d="M396.639 328.789L105.223 277.405C101.245 276.704 98.352 273.238 98.372 269.199L98.459 251.631C98.472 249.062 100.794 247.123 103.324 247.569L408.628 301.402C411.158 301.848 412.677 304.465 411.811 306.883L405.884 323.422C404.521 327.223 400.617 329.49 396.639 328.789Z" fill="#FF6C6C"/>
<path d="M201.814 128.461C202.453 121.224 208.839 115.875 216.076 116.515C223.313 117.154 228.662 123.54 228.022 130.777C227.395 137.872 219.977 146.6 215.719 151.073C214.195 152.674 211.586 152.443 210.367 150.6C206.96 145.45 201.187 135.556 201.814 128.461Z" fill="#FF9C33"/>
<path d="M201.814 128.461C202.453 121.224 208.839 115.875 216.076 116.515C223.313 117.154 228.662 123.54 228.022 130.777C227.395 137.872 219.977 146.6 215.719 151.073C214.195 152.674 211.586 152.443 210.367 150.6C206.96 145.45 201.187 135.556 201.814 128.461Z" fill="url(#paint0_linear_13_391)"/>
<path d="M367.635 154.921C372.513 149.537 380.832 149.127 386.217 154.005C391.601 158.883 392.011 167.202 387.133 172.587C382.35 177.866 371.168 180.347 365.073 181.343C362.892 181.699 360.951 179.941 361.091 177.736C361.484 171.572 362.853 160.2 367.635 154.921Z" fill="#FFAA66"/>
<path d="M367.635 154.921C372.513 149.537 380.832 149.127 386.217 154.005C391.601 158.883 392.011 167.202 387.133 172.587C382.35 177.866 371.168 180.347 365.073 181.343C362.892 181.699 360.951 179.941 361.091 177.736C361.484 171.572 362.853 160.2 367.635 154.921Z" fill="url(#paint1_linear_13_391)"/>
<path d="M150.15 137.626C145.727 131.862 146.815 123.604 152.579 119.181C158.343 114.758 166.601 115.846 171.024 121.61C175.36 127.261 175.797 138.707 175.684 144.882C175.644 147.092 173.566 148.686 171.421 148.153C165.429 146.663 154.486 143.278 150.15 137.626Z" fill="#FF9C33"/>
<path d="M150.15 137.626C145.727 131.862 146.815 123.604 152.579 119.181C158.343 114.758 166.601 115.846 171.024 121.61C175.36 127.261 175.797 138.707 175.684 144.882C175.644 147.092 173.566 148.686 171.421 148.153C165.429 146.663 154.486 143.278 150.15 137.626Z" fill="url(#paint2_linear_13_391)"/>
<path d="M288.956 117.285C287.926 117.285 286.887 116.969 285.994 116.31L285.901 116.242C283.677 114.603 283.204 111.473 284.841 109.251C286.48 107.027 289.61 106.552 291.832 108.191L291.925 108.259C294.149 109.898 294.622 113.028 292.985 115.25C292.005 116.581 290.49 117.285 288.956 117.285Z" fill="#B2B2FF"/>
<path d="M278.776 130.862C277.726 130.862 276.669 130.533 275.766 129.852L275.674 129.783C273.471 128.118 273.033 124.982 274.697 122.779C276.362 120.575 279.497 120.139 281.701 121.802L281.793 121.871C283.996 123.536 284.434 126.672 282.77 128.875C281.787 130.178 280.291 130.862 278.776 130.862Z" fill="#B2B2FF"/>
<path d="M268.598 144.438C267.557 144.438 266.507 144.115 265.609 143.443L265.516 143.374C263.304 141.721 262.851 138.588 264.504 136.376C266.156 134.165 269.288 133.709 271.502 135.364L271.595 135.433C273.807 137.086 274.26 140.219 272.607 142.431C271.625 143.745 270.121 144.438 268.598 144.438Z" fill="#B2B2FF"/>
<path d="M275.763 107.394C274.722 107.394 273.672 107.071 272.774 106.399L272.681 106.33C270.469 104.677 270.016 101.544 271.669 99.3322C273.321 97.1212 276.454 96.6652 278.667 98.3202L278.76 98.3892C280.972 100.042 281.425 103.175 279.772 105.387C278.79 106.7 277.286 107.394 275.763 107.394Z" fill="#B2B2FF"/>
<path d="M265.583 120.97C264.533 120.97 263.476 120.641 262.573 119.96L262.481 119.891C260.278 118.226 259.84 115.09 261.504 112.887C263.169 110.683 266.304 110.247 268.508 111.91L268.6 111.979C270.803 113.644 271.241 116.78 269.577 118.983C268.594 120.285 267.098 120.97 265.583 120.97Z" fill="#B2B2FF"/>
<path d="M255.404 134.546C254.363 134.546 253.313 134.223 252.415 133.551L252.322 133.482C250.11 131.829 249.657 128.696 251.31 126.484C252.962 124.273 256.095 123.817 258.308 125.472L258.401 125.541C260.613 127.194 261.066 130.327 259.413 132.539C258.432 133.853 256.928 134.546 255.404 134.546Z" fill="#B2B2FF"/>
<path d="M321.834 428.455C292.57 428.456 259.561 425.389 225.644 419.408C176.455 410.735 131.137 396.949 98.04 380.591C62.686 363.116 45.57 344.961 48.545 328.088C50.451 317.279 60.252 308.807 77.675 302.903C80.291 302.016 83.129 303.418 84.015 306.034C84.902 308.649 83.499 311.488 80.884 312.374C71.465 315.565 59.917 321.184 58.393 329.824C54.355 352.732 122.762 391.113 227.38 409.56C262.295 415.716 294.194 418.407 321.332 418.408C375.509 418.41 410.755 407.692 413.446 392.429C414.604 385.86 409.47 378.967 404.959 374.342C403.031 372.364 403.071 369.199 405.048 367.271C407.026 365.344 410.19 365.382 412.119 367.36C421.055 376.523 424.814 385.542 423.294 394.166C420.319 411.039 398.026 422.246 358.828 426.574C347.435 427.833 335.011 428.455 321.834 428.455Z" fill="#B2B2FF"/>
<path d="M353.745 252.562C350.983 252.562 348.745 250.324 348.745 247.562V247.447C348.745 244.685 350.983 242.447 353.745 242.447C356.507 242.447 358.745 244.685 358.745 247.447V247.562C358.745 250.323 356.507 252.562 353.745 252.562Z" fill="#FFC498"/>
<path d="M175.699 199.158C172.937 199.158 170.699 196.92 170.699 194.158V194.043C170.699 191.281 172.937 189.043 175.699 189.043C178.461 189.043 180.699 191.281 180.699 194.043V194.158C180.699 196.92 178.461 199.158 175.699 199.158Z" fill="#FFC498"/>
<path d="M150.508 237.571C147.746 237.571 145.508 235.333 145.508 232.571V232.457C145.508 229.695 147.746 227.457 150.508 227.457C153.27 227.457 155.508 229.695 155.508 232.457V232.571C155.508 235.333 153.27 237.571 150.508 237.571Z" fill="#FF8A00"/>
<path d="M168.487 230.829C165.725 230.829 163.487 228.591 163.487 225.829V225.714C163.487 222.952 165.725 220.714 168.487 220.714C171.249 220.714 173.487 222.952 173.487 225.714V225.829C173.487 228.591 171.249 230.829 168.487 230.829Z" fill="#FF8A00"/>
<path d="M377.751 280.818C374.989 280.818 372.751 278.58 372.751 275.818V275.703C372.751 272.941 374.989 270.703 377.751 270.703C380.513 270.703 382.751 272.941 382.751 275.703V275.818C382.751 278.58 380.513 280.818 377.751 280.818Z" fill="#FF8A00"/>
<path d="M373.651 246.035C370.889 246.035 368.651 243.797 368.651 241.035V240.92C368.651 238.158 370.889 235.92 373.651 235.92C376.413 235.92 378.651 238.158 378.651 240.92V241.035C378.651 243.797 376.413 246.035 373.651 246.035Z" fill="#FFD5BA"/>
<path d="M48.214 267.89C39.943 267.89 33.214 261.161 33.214 252.89C33.214 244.619 39.943 237.89 48.214 237.89C56.485 237.89 63.214 244.619 63.214 252.89C63.214 261.161 56.485 267.89 48.214 267.89ZM48.214 247.89C45.457 247.89 43.214 250.133 43.214 252.89C43.214 255.647 45.457 257.89 48.214 257.89C50.971 257.89 53.214 255.647 53.214 252.89C53.214 250.133 50.971 247.89 48.214 247.89Z" fill="#FF9C33"/>
<path d="M404.094 487.577C395.823 487.577 389.094 480.848 389.094 472.577C389.094 464.306 395.823 457.577 404.094 457.577C412.365 457.577 419.094 464.306 419.094 472.577C419.094 480.848 412.365 487.577 404.094 487.577ZM404.094 467.577C401.337 467.577 399.094 469.82 399.094 472.577C399.094 475.334 401.337 477.577 404.094 477.577C406.851 477.577 409.094 475.334 409.094 472.577C409.094 469.82 406.851 467.577 404.094 467.577Z" fill="#FF6C6C"/>
<path d="M448.62 204.994C440.349 204.994 433.62 198.265 433.62 189.994C433.62 181.723 440.349 174.994 448.62 174.994C456.891 174.994 463.62 181.723 463.62 189.994C463.62 198.265 456.892 204.994 448.62 204.994ZM448.62 184.994C445.863 184.994 443.62 187.237 443.62 189.994C443.62 192.751 445.863 194.994 448.62 194.994C451.377 194.994 453.62 192.751 453.62 189.994C453.62 187.237 451.377 184.994 448.62 184.994Z" fill="#6C6CFF"/>
<path d="M79.447 198.035H73.257C69.675 198.035 66.76 195.12 66.76 191.538V185.349C66.76 175.802 74.527 168.036 84.073 168.036H90.262C93.844 168.036 96.759 170.951 96.759 174.533V180.722C96.76 190.269 88.993 198.035 79.447 198.035ZM76.76 188.035H79.448C83.48 188.035 86.76 184.754 86.76 180.722V178.035H84.073C80.041 178.035 76.76 181.316 76.76 185.348V188.035Z" fill="#6C6CFF"/>
<path d="M436.307 149.302H430.118C426.536 149.302 423.621 146.387 423.621 142.805V136.616C423.621 127.069 431.388 119.303 440.934 119.303H447.123C450.705 119.303 453.62 122.218 453.62 125.8V131.99C453.62 141.535 445.854 149.302 436.307 149.302ZM433.62 139.302H436.307C440.339 139.302 443.62 136.022 443.62 131.99V129.302H440.933C436.901 129.302 433.62 132.583 433.62 136.615V139.302Z" fill="#FF6C6C"/>
<defs>
<linearGradient id="paint0_linear_13_391" x1="214.921" y1="155.516" x2="214.921" y2="110.914" gradientUnits="userSpaceOnUse">
<stop stop-color="#FF4D4D" stop-opacity="0.4"/>
<stop offset="0.1463" stop-color="#FF4D4D" stop-opacity="0.342"/>
<stop offset="1" stop-color="#FF4D4D" stop-opacity="0"/>
</linearGradient>
<linearGradient id="paint1_linear_13_391" x1="375.812" y1="185.28" x2="375.812" y2="147.076" gradientUnits="userSpaceOnUse">
<stop stop-color="#FF4D4D" stop-opacity="0.4"/>
<stop offset="0.1463" stop-color="#FF4D4D" stop-opacity="0.342"/>
<stop offset="1" stop-color="#FF4D4D" stop-opacity="0"/>
</linearGradient>
<linearGradient id="paint2_linear_13_391" x1="161.566" y1="152.931" x2="161.566" y2="111.849" gradientUnits="userSpaceOnUse">
<stop stop-color="#FF4D4D" stop-opacity="0.4"/>
<stop offset="0.1463" stop-color="#FF4D4D" stop-opacity="0.342"/>
<stop offset="1" stop-color="#FF4D4D" stop-opacity="0"/>
</linearGradient>
</defs>
</svg>
