<svg width="512" height="512" viewBox="0 0 512 512" fill="none" xmlns="http://www.w3.org/2000/svg">
<path d="M423.073 43.1538V392.234C423.073 397.764 418.593 402.234 413.073 402.234H55.693C50.163 402.234 45.693 397.764 45.693 392.234V43.1538C45.693 37.6338 50.163 33.1538 55.693 33.1538H413.073C418.593 33.1538 423.073 37.6338 423.073 43.1538Z" fill="white"/>
<path d="M387.723 321.054L407.943 356.074C412.683 354.414 418.083 356.304 420.683 360.814L423.073 364.954V392.234C423.073 397.764 418.593 402.234 413.073 402.234H395.153L383.603 382.224C381.003 377.714 382.063 372.094 385.873 368.814L365.653 333.804C314.813 355.854 254.393 336.744 226.023 287.594C195.483 234.714 213.603 167.094 266.493 136.554C319.373 106.024 386.993 124.144 417.523 177.024C419.603 180.624 421.453 184.284 423.073 188.004V276.614C415.553 293.844 403.603 309.284 387.723 321.054Z" fill="#D9D9FF"/>
<path d="M423.072 109.91V43.1528C423.072 37.6298 418.595 33.1528 413.072 33.1528H55.69C50.167 33.1528 45.69 37.6298 45.69 43.1528V109.91H423.072Z" fill="#FF9D33"/>
<path d="M323.17 87.0277H86.728C83.967 87.0277 81.728 84.7887 81.728 82.0277V63.0347C81.728 60.2737 83.967 58.0347 86.728 58.0347H323.17C325.931 58.0347 328.17 60.2737 328.17 63.0347V82.0277C328.17 84.7887 325.932 87.0277 323.17 87.0277Z" fill="#FFC599"/>
<path d="M355.956 68.0347C358.717 68.0347 360.956 65.7961 360.956 63.0347C360.956 60.2732 358.717 58.0347 355.956 58.0347C353.195 58.0347 350.956 60.2732 350.956 63.0347C350.956 65.7961 353.195 68.0347 355.956 68.0347Z" fill="white"/>
<path d="M355.956 87.0278C358.717 87.0278 360.956 84.7893 360.956 82.0278C360.956 79.2664 358.717 77.0278 355.956 77.0278C353.195 77.0278 350.956 79.2664 350.956 82.0278C350.956 84.7893 353.195 87.0278 355.956 87.0278Z" fill="white"/>
<path d="M373.259 68.0347C376.02 68.0347 378.259 65.7961 378.259 63.0347C378.259 60.2732 376.02 58.0347 373.259 58.0347C370.498 58.0347 368.259 60.2732 368.259 63.0347C368.259 65.7961 370.498 68.0347 373.259 68.0347Z" fill="white"/>
<path d="M373.259 87.0278C376.02 87.0278 378.259 84.7893 378.259 82.0278C378.259 79.2664 376.02 77.0278 373.259 77.0278C370.498 77.0278 368.259 79.2664 368.259 82.0278C368.259 84.7893 370.498 87.0278 373.259 87.0278Z" fill="white"/>
<path d="M390.562 68.0347C393.323 68.0347 395.562 65.7961 395.562 63.0347C395.562 60.2732 393.323 58.0347 390.562 58.0347C387.801 58.0347 385.562 60.2732 385.562 63.0347C385.562 65.7961 387.801 68.0347 390.562 68.0347Z" fill="white"/>
<path d="M390.562 87.0278C393.323 87.0278 395.562 84.7893 395.562 82.0278C395.562 79.2664 393.323 77.0278 390.562 77.0278C387.801 77.0278 385.562 79.2664 385.562 82.0278C385.562 84.7893 387.801 87.0278 390.562 87.0278Z" fill="white"/>
<path d="M357.019 229.688H111.743C99.133 229.688 88.911 219.466 88.911 206.856C88.911 194.246 99.133 184.024 111.743 184.024H357.019C369.629 184.024 379.851 194.246 379.851 206.856C379.851 219.466 369.628 229.688 357.019 229.688Z" fill="#B3B3FF"/>
<path d="M266.851 286.468H201.91C192.402 286.468 184.694 278.76 184.694 269.252C184.694 259.744 192.402 252.036 201.91 252.036H266.851C276.359 252.036 284.067 259.744 284.067 269.252C284.067 278.76 276.359 286.468 266.851 286.468Z" fill="#FFC599"/>
<path d="M284.063 269.254C284.063 274.004 282.133 278.314 279.023 281.424C275.913 284.544 271.613 286.464 266.853 286.464H225.383C219.183 275.454 215.083 263.824 212.943 252.034H266.853C276.363 252.034 284.063 259.744 284.063 269.254Z" fill="#FFAB66"/>
<path d="M363.492 306.063L385.564 293.319L412.21 339.471L390.138 352.215L363.492 306.063Z" fill="#D9D9FF"/>
<path d="M397.098 313.286C391.118 318.836 384.428 323.816 377.058 328.066C376.838 328.186 376.628 328.316 376.408 328.436L363.498 306.066L385.578 293.326L397.098 313.286Z" fill="#B3B3FF"/>
<path d="M321.774 318.877C382.838 318.877 432.341 269.374 432.341 208.31C432.341 147.245 382.838 97.7427 321.774 97.7427C260.71 97.7427 211.207 147.245 211.207 208.31C211.207 269.374 260.71 318.877 321.774 318.877Z" fill="#9494FF"/>
<path d="M367.293 287.14C335.763 305.35 297.853 302.54 269.813 283.06L238.803 245.77C235.253 237.92 232.903 229.78 231.693 221.57L238.253 172.12C245.743 154.8 258.663 139.64 276.263 129.48C319.793 104.34 375.473 119.26 400.603 162.8C425.743 206.33 410.823 262.01 367.293 287.14Z" fill="#D9D9FF"/>
<path d="M392.293 196.844C392.293 203.674 389.523 209.854 385.053 214.334C380.573 218.804 374.393 221.574 367.563 221.574H231.693C229.213 204.704 231.573 187.554 238.243 172.124H367.563C381.223 172.124 392.293 183.194 392.293 196.844Z" fill="#B3B3FF"/>
<path d="M298.563 264.413C298.563 269.563 296.473 274.223 293.103 277.603C289.733 280.973 285.073 283.063 279.923 283.063H269.813C259.133 275.653 249.873 265.823 242.943 253.823C241.413 251.183 240.043 248.493 238.803 245.773H279.923C290.213 245.773 298.563 254.123 298.563 264.413Z" fill="#FFAB66"/>
<path d="M458.783 402.8L445.381 418.848L421.703 424.21L383.603 358.22C380.653 353.12 382.403 346.59 387.503 343.65L406.113 332.91C411.213 329.96 417.743 331.71 420.683 336.81L458.783 402.8Z" fill="#FFAB66"/>
<path d="M475.413 431.6L460.783 447.202L438.333 453.01L430.983 440.28L445.838 425.393L468.063 418.87L475.413 431.6Z" fill="#FFAB66"/>
<path d="M421.693 424.201L458.774 402.792L468.052 418.863L430.972 440.272L421.693 424.201Z" fill="#FFD6BB"/>
<path d="M438.328 453.005L452.21 477.049C455.156 482.151 461.68 483.899 466.782 480.953L485.388 470.211C490.49 467.265 492.238 460.741 489.292 455.639L475.41 431.595L438.328 453.005Z" fill="#FFD6BB"/>
<path d="M226.192 357.645L235.715 369.215C237.315 371.159 240.292 371.159 241.892 369.215L251.415 357.645C253.563 355.035 251.707 351.103 248.327 351.103H229.28C225.9 351.103 224.044 355.035 226.192 357.645Z" fill="#FFAB66"/>
<path d="M105.311 325.646H86.728C83.967 325.646 81.728 323.407 81.728 320.646C81.728 317.885 83.967 315.646 86.728 315.646H105.311C108.072 315.646 110.311 317.885 110.311 320.646C110.311 323.407 108.072 325.646 105.311 325.646Z" fill="#FF6C6C"/>
<path d="M145.311 346.028H86.728C83.967 346.028 81.728 343.789 81.728 341.028C81.728 338.267 83.967 336.028 86.728 336.028H145.311C148.072 336.028 150.311 338.267 150.311 341.028C150.311 343.789 148.072 346.028 145.311 346.028Z" fill="#FFAB66"/>
<path d="M152.494 167.543H93.911C91.15 167.543 88.911 165.304 88.911 162.543C88.911 159.782 91.15 157.543 93.911 157.543H152.494C155.255 157.543 157.494 159.782 157.494 162.543C157.494 165.304 155.255 167.543 152.494 167.543Z" fill="#8383FF"/>
<path d="M116.494 147.21H93.911C91.15 147.21 88.911 144.971 88.911 142.21C88.911 139.449 91.15 137.21 93.911 137.21H116.494C119.255 137.21 121.494 139.449 121.494 142.21C121.494 144.971 119.255 147.21 116.494 147.21Z" fill="#FF9D33"/>
<path d="M145.311 366.41H86.728C83.967 366.41 81.728 364.171 81.728 361.41C81.728 358.649 83.967 356.41 86.728 356.41H145.311C148.072 356.41 150.311 358.649 150.311 361.41C150.311 364.171 148.072 366.41 145.311 366.41Z" fill="#FFAB66"/>
<path d="M81.728 477.461C78.967 477.461 76.728 475.223 76.728 472.461C76.728 468.969 73.887 466.128 70.395 466.128C67.634 466.128 65.395 463.89 65.395 461.128C65.395 458.366 67.634 456.128 70.395 456.128C73.887 456.128 76.728 453.287 76.728 449.795C76.728 447.033 78.967 444.795 81.728 444.795C84.489 444.795 86.728 447.033 86.728 449.795C86.728 453.287 89.569 456.128 93.061 456.128C95.822 456.128 98.061 458.366 98.061 461.128C98.061 463.89 95.822 466.128 93.061 466.128C89.569 466.128 86.728 468.969 86.728 472.461C86.728 475.223 84.489 477.461 81.728 477.461Z" fill="#FFAB66"/>
<path d="M464.525 169.876C461.764 169.876 459.525 167.638 459.525 164.876C459.525 161.384 456.684 158.543 453.192 158.543C450.431 158.543 448.192 156.305 448.192 153.543C448.192 150.781 450.431 148.543 453.192 148.543C456.684 148.543 459.525 145.702 459.525 142.21C459.525 139.448 461.764 137.21 464.525 137.21C467.286 137.21 469.525 139.448 469.525 142.21C469.525 145.702 472.366 148.543 475.858 148.543C478.619 148.543 480.858 150.781 480.858 153.543C480.858 156.305 478.619 158.543 475.858 158.543C472.366 158.543 469.525 161.384 469.525 164.876C469.525 167.638 467.286 169.876 464.525 169.876Z" fill="#FFAB66"/>
<path d="M385.562 482.483C382.801 482.483 380.562 480.245 380.562 477.483C380.562 473.991 377.721 471.15 374.229 471.15C371.468 471.15 369.229 468.912 369.229 466.15C369.229 463.388 371.468 461.15 374.229 461.15C377.721 461.15 380.562 458.308 380.562 454.816C380.562 452.054 382.801 449.816 385.562 449.816C388.323 449.816 390.562 452.054 390.562 454.816C390.562 458.308 393.403 461.15 396.895 461.15C399.656 461.15 401.895 463.388 401.895 466.15C401.895 468.912 399.656 471.15 396.895 471.15C393.403 471.15 390.562 473.991 390.562 477.483C390.562 480.245 388.323 482.483 385.562 482.483Z" fill="#FF6C6C"/>
<path d="M138.176 450.299C136.896 450.299 135.617 449.811 134.64 448.834L129.176 443.37L123.712 448.834C121.759 450.787 118.594 450.787 116.641 448.834C114.688 446.882 114.688 443.716 116.641 441.764L125.641 432.764C127.594 430.811 130.759 430.811 132.712 432.764L141.712 441.764C143.665 443.716 143.665 446.882 141.712 448.834C140.735 449.811 139.456 450.299 138.176 450.299Z" fill="#8383FF"/>
<path d="M476.328 112.384C475.048 112.384 473.769 111.896 472.792 110.919L467.328 105.455L461.864 110.919C459.911 112.872 456.746 112.872 454.793 110.919C452.84 108.967 452.84 105.801 454.793 103.849L463.793 94.849C465.746 92.896 468.911 92.896 470.864 94.849L479.864 103.849C481.817 105.801 481.817 108.967 479.864 110.919C478.887 111.896 477.608 112.384 476.328 112.384Z" fill="#8383FF"/>
</svg>
