<svg width="512" height="512" viewBox="0 0 512 512" fill="none" xmlns="http://www.w3.org/2000/svg">
<path d="M398.41 81.5298V263.29C398.41 268.26 396.4 272.75 393.14 276C389.89 279.26 385.4 281.27 380.43 281.27C370.49 281.27 362.44 273.22 362.44 263.29V178.86C362.44 174.74 360.77 171.01 358.07 168.32C355.37 165.62 351.64 163.95 347.53 163.95C339.29 163.95 332.62 170.62 332.62 178.86V197.94C332.62 203.26 330.46 208.09 326.97 211.58C323.48 215.07 318.66 217.23 313.33 217.23C302.68 217.23 294.04 208.59 294.04 197.94V81.5298H398.41Z" fill="#02FFB2"/>
<path d="M398.41 81.5298V237.96C393.25 234.72 389.82 228.98 389.82 222.44V157.19H347.4C345.82 159.81 343.6 162 340.95 163.54C338.3 165.07 335.23 165.95 331.95 165.95C325.38 165.95 319.65 162.43 316.49 157.19H294.04V81.5298H398.41Z" fill="#01EBA4"/>
<path d="M222.06 282.78V445.12C222.06 456.17 213.11 465.12 202.06 465.12H93.32C82.28 465.12 73.32 456.17 73.32 445.12V282.78H222.06Z" fill="#FF7EB7"/>
<path d="M189.36 313.19V385.75C189.36 393.22 191.96 400.37 196.34 406.43C199.13 410.31 200.78 415.06 200.78 420.21C200.78 434.1 188.76 445.18 174.54 443.62C163.46 442.39 154.93 433.78 153.79 422.69C153.18 416.66 154.83 411.04 158.01 406.57C162.47 400.31 165.09 392.92 165.09 385.24V339.41C165.09 336.78 164.02 334.4 162.3 332.68C160.58 330.96 158.2 329.89 155.57 329.89C150.32 329.89 146.06 334.15 146.06 339.41V361.42C146.06 364.68 144.74 367.62 142.61 369.75C140.48 371.88 137.54 373.2 134.28 373.2C127.77 373.2 122.5 367.93 122.5 361.42V313.19H73.32V282.78H222.06V313.19H189.36Z" fill="#FF5BA7"/>
<path d="M222.058 374.15V385.36C207.028 392.4 182.648 400.06 147.688 400.06C112.718 400.06 88.338 392.39 73.318 385.35V374.15C73.748 374.41 74.178 374.64 74.628 374.87C88.318 381.8 112.098 390.06 147.688 390.06C183.278 390.06 207.068 381.8 220.748 374.87C221.198 374.64 221.628 374.41 222.058 374.15Z" fill="#FF5BA7"/>
<path d="M66.126 273.331V283.603C66.126 286.688 68.627 289.189 71.712 289.189H223.666C226.751 289.189 229.252 286.688 229.252 283.603V273.331C229.252 270.246 226.751 267.745 223.666 267.745H71.712C68.627 267.745 66.126 270.246 66.126 273.331Z" fill="#FFC3DE"/>
<path d="M280.005 289.852H300.005V257.733C300.005 253.825 297.728 250.274 294.176 248.644L113.419 165.701V95.1138H139.282C144.608 95.1138 149.258 91.0948 149.603 85.7808C149.981 79.9568 145.368 75.1138 139.625 75.1138H103.419C97.896 75.1138 93.419 79.5908 93.419 85.1138V172.115C93.419 176.023 95.696 179.574 99.249 181.204L280.006 264.147V289.852H280.005Z" fill="#9EAFFD"/>
<path d="M238.715 223.195L155.359 184.946V206.951L238.715 245.2V223.195Z" fill="#B6C4FF"/>
<path d="M438.385 113.249H141.625C136.102 113.249 131.625 108.772 131.625 103.249V66.9785C131.625 61.4555 136.102 56.9785 141.625 56.9785H438.385C443.908 56.9785 448.385 61.4555 448.385 66.9785V103.248C448.385 108.772 443.908 113.249 438.385 113.249Z" fill="#4369FC"/>
<path d="M424.45 52.0396V118.19C424.45 126.47 417.74 133.19 409.45 133.19H170.56C162.27 133.19 155.56 126.47 155.56 118.19V52.0396C155.56 43.7596 162.27 37.0396 170.56 37.0396H409.45C417.74 37.0396 424.45 43.7596 424.45 52.0396Z" fill="#FF7EB7"/>
<path d="M424.45 52.0396V118.19C424.45 126.47 417.74 133.19 409.45 133.19H389.82V127.54C389.82 122.04 387.59 117.06 383.99 113.46C380.39 109.86 375.41 107.63 369.91 107.63C358.91 107.63 349.99 116.54 349.99 127.54V133.19H313.9V37.0396H409.45C417.74 37.0396 424.45 43.7596 424.45 52.0396Z" fill="#FF5BA7"/>
<path d="M314.09 368.8V441.03C314.09 454.18 303.56 464.87 290.47 465.12C276.97 465.37 265.92 453.99 265.92 440.49V368.8C265.92 363.87 267.41 359.28 269.95 355.46C275.5 347.15 278.11 337.22 278.11 327.22V300.72C278.11 297.4 280.8 294.72 284.11 294.72H295.9C299.21 294.72 301.9 297.4 301.9 300.72V327.22C301.9 337.22 304.51 347.15 310.06 355.46C312.61 359.28 314.09 363.87 314.09 368.8Z" fill="#FF7EB7"/>
<path d="M301.9 300.721V322.721H278.11V300.721C278.11 297.401 280.8 294.721 284.11 294.721H295.9C299.21 294.721 301.9 297.401 301.9 300.721Z" fill="#FF5BA7"/>
<path d="M263.543 282.522V293.717C263.543 296.478 265.782 298.717 268.543 298.717H311.467C314.228 298.717 316.467 296.478 316.467 293.717V282.522C316.467 279.761 314.228 277.522 311.467 277.522H268.543C265.782 277.522 263.543 279.761 263.543 282.522Z" fill="#FFC3DE"/>
<path d="M183.648 66.9795C186.409 66.9795 188.648 64.7409 188.648 61.9795C188.648 59.2181 186.409 56.9795 183.648 56.9795C180.887 56.9795 178.648 59.2181 178.648 61.9795C178.648 64.7409 180.887 66.9795 183.648 66.9795Z" fill="#FFA7CE"/>
<path d="M183.648 90.1133C186.409 90.1133 188.648 87.8747 188.648 85.1133C188.648 82.3519 186.409 80.1133 183.648 80.1133C180.887 80.1133 178.648 82.3519 178.648 85.1133C178.648 87.8747 180.887 90.1133 183.648 90.1133Z" fill="#FFA7CE"/>
<path d="M183.648 113.249C186.409 113.249 188.648 111.01 188.648 108.249C188.648 105.487 186.409 103.249 183.648 103.249C180.887 103.249 178.648 105.487 178.648 108.249C178.648 111.01 180.887 113.249 183.648 113.249Z" fill="#FFA7CE"/>
<path d="M214.051 66.9795C216.812 66.9795 219.051 64.7409 219.051 61.9795C219.051 59.2181 216.812 56.9795 214.051 56.9795C211.29 56.9795 209.051 59.2181 209.051 61.9795C209.051 64.7409 211.29 66.9795 214.051 66.9795Z" fill="#FFA7CE"/>
<path d="M214.051 90.1133C216.812 90.1133 219.051 87.8747 219.051 85.1133C219.051 82.3519 216.812 80.1133 214.051 80.1133C211.29 80.1133 209.051 82.3519 209.051 85.1133C209.051 87.8747 211.29 90.1133 214.051 90.1133Z" fill="#FFA7CE"/>
<path d="M214.051 113.249C216.812 113.249 219.051 111.01 219.051 108.249C219.051 105.487 216.812 103.249 214.051 103.249C211.29 103.249 209.051 105.487 209.051 108.249C209.051 111.01 211.29 113.249 214.051 113.249Z" fill="#FFA7CE"/>
<path d="M244.453 66.9795C247.214 66.9795 249.453 64.7409 249.453 61.9795C249.453 59.2181 247.214 56.9795 244.453 56.9795C241.692 56.9795 239.453 59.2181 239.453 61.9795C239.453 64.7409 241.692 66.9795 244.453 66.9795Z" fill="#FFA7CE"/>
<path d="M244.453 90.1133C247.214 90.1133 249.453 87.8747 249.453 85.1133C249.453 82.3519 247.214 80.1133 244.453 80.1133C241.692 80.1133 239.453 82.3519 239.453 85.1133C239.453 87.8747 241.692 90.1133 244.453 90.1133Z" fill="#FFA7CE"/>
<path d="M244.453 113.249C247.214 113.249 249.453 111.01 249.453 108.249C249.453 105.487 247.214 103.249 244.453 103.249C241.692 103.249 239.453 105.487 239.453 108.249C239.453 111.01 241.692 113.249 244.453 113.249Z" fill="#FFA7CE"/>
<path d="M274.855 66.9795C277.616 66.9795 279.855 64.7409 279.855 61.9795C279.855 59.2181 277.616 56.9795 274.855 56.9795C272.094 56.9795 269.855 59.2181 269.855 61.9795C269.855 64.7409 272.094 66.9795 274.855 66.9795Z" fill="#FFA7CE"/>
<path d="M274.855 90.1133C277.616 90.1133 279.855 87.8747 279.855 85.1133C279.855 82.3519 277.616 80.1133 274.855 80.1133C272.094 80.1133 269.855 82.3519 269.855 85.1133C269.855 87.8747 272.094 90.1133 274.855 90.1133Z" fill="#FFA7CE"/>
<path d="M274.855 113.249C277.616 113.249 279.855 111.01 279.855 108.249C279.855 105.487 277.616 103.249 274.855 103.249C272.094 103.249 269.855 105.487 269.855 108.249C269.855 111.01 272.094 113.249 274.855 113.249Z" fill="#FFA7CE"/>
<path d="M305.258 66.9795C308.019 66.9795 310.258 64.7409 310.258 61.9795C310.258 59.2181 308.019 56.9795 305.258 56.9795C302.497 56.9795 300.258 59.2181 300.258 61.9795C300.258 64.7409 302.497 66.9795 305.258 66.9795Z" fill="#FFA7CE"/>
<path d="M305.258 90.1133C308.019 90.1133 310.258 87.8747 310.258 85.1133C310.258 82.3519 308.019 80.1133 305.258 80.1133C302.497 80.1133 300.258 82.3519 300.258 85.1133C300.258 87.8747 302.497 90.1133 305.258 90.1133Z" fill="#FFA7CE"/>
<path d="M305.258 113.249C308.019 113.249 310.258 111.01 310.258 108.249C310.258 105.487 308.019 103.249 305.258 103.249C302.497 103.249 300.258 105.487 300.258 108.249C300.258 111.01 302.497 113.249 305.258 113.249Z" fill="#FFA7CE"/>
<path d="M335.66 66.9795C338.421 66.9795 340.66 64.7409 340.66 61.9795C340.66 59.2181 338.421 56.9795 335.66 56.9795C332.899 56.9795 330.66 59.2181 330.66 61.9795C330.66 64.7409 332.899 66.9795 335.66 66.9795Z" fill="#FFA7CE"/>
<path d="M335.66 90.1133C338.421 90.1133 340.66 87.8747 340.66 85.1133C340.66 82.3519 338.421 80.1133 335.66 80.1133C332.899 80.1133 330.66 82.3519 330.66 85.1133C330.66 87.8747 332.899 90.1133 335.66 90.1133Z" fill="#FFA7CE"/>
<path d="M335.66 113.249C338.421 113.249 340.66 111.01 340.66 108.249C340.66 105.487 338.421 103.249 335.66 103.249C332.899 103.249 330.66 105.487 330.66 108.249C330.66 111.01 332.899 113.249 335.66 113.249Z" fill="#FFA7CE"/>
<path d="M366.062 66.9795C368.823 66.9795 371.062 64.7409 371.062 61.9795C371.062 59.2181 368.823 56.9795 366.062 56.9795C363.301 56.9795 361.062 59.2181 361.062 61.9795C361.062 64.7409 363.301 66.9795 366.062 66.9795Z" fill="#FFA7CE"/>
<path d="M366.062 90.1133C368.823 90.1133 371.062 87.8747 371.062 85.1133C371.062 82.3519 368.823 80.1133 366.062 80.1133C363.301 80.1133 361.062 82.3519 361.062 85.1133C361.062 87.8747 363.301 90.1133 366.062 90.1133Z" fill="#FFA7CE"/>
<path d="M366.062 113.249C368.823 113.249 371.062 111.01 371.062 108.249C371.062 105.487 368.823 103.249 366.062 103.249C363.301 103.249 361.062 105.487 361.062 108.249C361.062 111.01 363.301 113.249 366.062 113.249Z" fill="#FFA7CE"/>
<path d="M396.465 66.9795C399.226 66.9795 401.465 64.7409 401.465 61.9795C401.465 59.2181 399.226 56.9795 396.465 56.9795C393.704 56.9795 391.465 59.2181 391.465 61.9795C391.465 64.7409 393.704 66.9795 396.465 66.9795Z" fill="#FFA7CE"/>
<path d="M396.465 90.1133C399.226 90.1133 401.465 87.8747 401.465 85.1133C401.465 82.3519 399.226 80.1133 396.465 80.1133C393.704 80.1133 391.465 82.3519 391.465 85.1133C391.465 87.8747 393.704 90.1133 396.465 90.1133Z" fill="#FFA7CE"/>
<path d="M396.465 113.249C399.226 113.249 401.465 111.01 401.465 108.249C401.465 105.487 399.226 103.249 396.465 103.249C393.704 103.249 391.465 105.487 391.465 108.249C391.465 111.01 393.704 113.249 396.465 113.249Z" fill="#FFA7CE"/>
<path d="M189.36 361.747V271.462C189.36 265.939 184.883 261.462 179.36 261.462H132.5C126.977 261.462 122.5 265.939 122.5 271.462V337.419C122.5 343.925 127.774 349.198 134.279 349.198C140.785 349.198 146.058 343.924 146.058 337.419V315.408C146.058 310.154 150.318 305.894 155.572 305.894C160.826 305.894 165.086 310.154 165.086 315.408V361.236C165.086 368.925 162.465 376.306 158.009 382.572C154.832 387.04 153.175 392.663 153.791 398.69C154.926 409.779 163.463 418.394 174.543 419.617C188.754 421.185 200.781 410.1 200.781 396.207C200.781 391.064 199.133 386.307 196.336 382.434C191.963 376.374 189.36 369.22 189.36 361.747Z" fill="#02FFB2"/>
<path d="M200.6 393.26C188.16 396.76 172.69 399.47 153.96 399.97C153.89 399.55 153.83 399.12 153.79 398.69C153.48 395.64 153.75 392.7 154.5 389.96C171.64 389.44 185.82 386.98 197.25 383.81C199 386.62 200.17 389.82 200.6 393.26Z" fill="#01EBA4"/>
<path d="M228.763 299.344H222.058V309.344H228.763C231.52 309.344 233.763 311.587 233.763 314.344V329.491C233.763 338.611 228.775 346.803 220.746 350.868C207.063 357.799 183.282 366.059 147.689 366.059C112.097 366.059 88.314 357.798 74.631 350.868C66.602 346.803 61.614 338.611 61.614 329.491V314.344C61.614 311.587 63.857 309.344 66.614 309.344H73.319V299.344H66.614C58.343 299.344 51.614 306.073 51.614 314.344V329.491C51.614 342.401 58.702 354.012 70.113 359.79C84.768 367.212 110.123 376.06 147.689 376.06C185.255 376.06 210.61 367.212 225.264 359.79C236.675 354.012 243.763 342.402 243.763 329.491V314.344C243.763 306.073 237.034 299.344 228.763 299.344Z" fill="white"/>
<path d="M313.901 39.2358V123.902C313.901 133.868 321.98 141.947 331.946 141.947C341.912 141.947 349.991 133.868 349.991 123.902V103.542C349.991 92.5428 358.908 83.6258 369.907 83.6258C380.906 83.6258 389.823 92.5428 389.823 103.542V198.436C389.823 208.554 398.025 216.756 408.143 216.756C418.261 216.756 426.463 208.554 426.463 198.436V39.2358C426.463 34.0718 422.276 29.8848 417.112 29.8848H323.251C318.087 29.8848 313.901 34.0718 313.901 39.2358Z" fill="#96FFD1"/>
<path d="M85.255 243.071C82.494 243.071 80.255 240.833 80.255 238.071C80.255 235.039 77.788 232.571 74.755 232.571C71.994 232.571 69.755 230.333 69.755 227.571C69.755 224.809 71.994 222.571 74.755 222.571C77.788 222.571 80.255 220.103 80.255 217.071C80.255 214.309 82.494 212.071 85.255 212.071C88.016 212.071 90.255 214.309 90.255 217.071C90.255 220.103 92.722 222.571 95.755 222.571C98.516 222.571 100.755 224.809 100.755 227.571C100.755 230.333 98.516 232.571 95.755 232.571C92.722 232.571 90.255 235.039 90.255 238.071C90.255 240.832 88.016 243.071 85.255 243.071Z" fill="#FF5BA7"/>
<path d="M51.615 196.903C48.854 196.903 46.615 194.665 46.615 191.903C46.615 188.871 44.148 186.403 41.115 186.403C38.354 186.403 36.115 184.165 36.115 181.403C36.115 178.641 38.354 176.403 41.115 176.403C44.148 176.403 46.615 173.935 46.615 170.903C46.615 168.141 48.854 165.903 51.615 165.903C54.376 165.903 56.615 168.141 56.615 170.903C56.615 173.935 59.082 176.403 62.115 176.403C64.876 176.403 67.115 178.641 67.115 181.403C67.115 184.165 64.876 186.403 62.115 186.403C59.082 186.403 56.615 188.871 56.615 191.903C56.615 194.664 54.376 196.903 51.615 196.903Z" fill="#6582FD"/>
<path d="M349.875 447.239C347.113 447.239 344.875 445.001 344.875 442.239C344.875 439.207 342.407 436.739 339.375 436.739C336.613 436.739 334.375 434.501 334.375 431.739C334.375 428.977 336.613 426.739 339.375 426.739C342.407 426.739 344.875 424.271 344.875 421.239C344.875 418.477 347.113 416.239 349.875 416.239C352.637 416.239 354.875 418.477 354.875 421.239C354.875 424.271 357.343 426.739 360.375 426.739C363.137 426.739 365.375 428.977 365.375 431.739C365.375 434.501 363.137 436.739 360.375 436.739C357.343 436.739 354.875 439.207 354.875 442.239C354.875 445 352.637 447.239 349.875 447.239Z" fill="#01EBA4"/>
<path d="M465.848 121.09C464.992 121.09 464.123 120.869 463.33 120.406L463.231 120.348C460.847 118.955 460.043 115.893 461.436 113.508C462.829 111.124 465.891 110.32 468.276 111.713L468.375 111.771C470.759 113.164 471.563 116.226 470.17 118.611C469.24 120.203 467.566 121.09 465.848 121.09Z" fill="#01EBA4"/>
<path d="M490.749 135.467C489.893 135.467 489.024 135.246 488.231 134.783L488.132 134.725C485.748 133.332 484.944 130.27 486.337 127.885C487.73 125.501 490.793 124.698 493.177 126.09L493.276 126.148C495.66 127.541 496.464 130.603 495.071 132.988C494.142 134.579 492.468 135.467 490.749 135.467Z" fill="#01EBA4"/>
<path d="M490.66 121.09C488.94 121.09 487.267 120.202 486.338 118.611C484.945 116.226 485.749 113.164 488.133 111.771L488.232 111.713C490.618 110.321 493.679 111.126 495.072 113.508C496.465 115.893 495.661 118.955 493.277 120.348L493.178 120.406C492.385 120.87 491.517 121.09 490.66 121.09Z" fill="#01EBA4"/>
<path d="M465.759 135.467C464.039 135.467 462.366 134.579 461.437 132.988C460.044 130.603 460.848 127.541 463.232 126.148L463.331 126.09C465.717 124.699 468.778 125.502 470.171 127.885C471.564 130.27 470.76 133.332 468.376 134.725L468.277 134.783C467.483 135.246 466.615 135.467 465.759 135.467Z" fill="#01EBA4"/>
<path d="M490.66 121.09C488.94 121.09 487.267 120.202 486.338 118.611C484.945 116.226 485.749 113.164 488.133 111.771L488.232 111.713C490.618 110.321 493.679 111.126 495.072 113.508C496.465 115.893 495.661 118.955 493.277 120.348L493.178 120.406C492.385 120.87 491.517 121.09 490.66 121.09Z" fill="#01EBA4"/>
<path d="M465.759 135.467C464.039 135.467 462.366 134.579 461.437 132.988C460.044 130.603 460.848 127.541 463.232 126.148L463.331 126.09C465.717 124.699 468.778 125.502 470.171 127.885C471.564 130.27 470.76 133.332 468.376 134.725L468.277 134.783C467.483 135.246 466.615 135.467 465.759 135.467Z" fill="#01EBA4"/>
<path d="M478.254 113.929C475.492 113.929 473.254 111.691 473.254 108.929V108.815C473.254 106.053 475.492 103.815 478.254 103.815C481.016 103.815 483.254 106.053 483.254 108.815V108.929C483.254 111.691 481.016 113.929 478.254 113.929Z" fill="#01EBA4"/>
<path d="M478.254 142.683C475.492 142.683 473.254 140.445 473.254 137.683V137.569C473.254 134.807 475.492 132.569 478.254 132.569C481.016 132.569 483.254 134.807 483.254 137.569V137.683C483.254 140.445 481.016 142.683 478.254 142.683Z" fill="#01EBA4"/>
<path d="M345.375 324.308C344.53 324.308 343.675 324.094 342.89 323.643L342.791 323.586C340.396 322.211 339.57 319.154 340.945 316.76C342.321 314.365 345.375 313.538 347.771 314.914L347.87 314.971C350.265 316.346 351.091 319.403 349.716 321.797C348.791 323.407 347.107 324.308 345.375 324.308Z" fill="#6582FD"/>
<path d="M370.276 338.685C369.431 338.685 368.576 338.471 367.791 338.02L367.692 337.963C365.297 336.588 364.471 333.531 365.846 331.137C367.222 328.742 370.276 327.915 372.672 329.291L372.771 329.348C375.166 330.723 375.992 333.78 374.617 336.174C373.692 337.784 372.009 338.685 370.276 338.685Z" fill="#6582FD"/>
<path d="M370.188 324.308C368.456 324.308 366.772 323.407 365.847 321.797C364.472 319.402 365.298 316.346 367.693 314.971L367.792 314.914C370.188 313.539 373.243 314.366 374.618 316.76C375.993 319.155 375.167 322.211 372.772 323.586L372.673 323.643C371.888 324.093 371.031 324.308 370.188 324.308Z" fill="#6582FD"/>
<path d="M345.286 338.685C343.554 338.685 341.87 337.784 340.945 336.174C339.57 333.779 340.396 330.723 342.791 329.348L342.89 329.291C345.287 327.917 348.341 328.744 349.716 331.137C351.091 333.532 350.265 336.588 347.87 337.963L347.771 338.02C346.986 338.47 346.13 338.685 345.286 338.685Z" fill="#6582FD"/>
<path d="M370.188 324.308C368.456 324.308 366.772 323.407 365.847 321.797C364.472 319.402 365.298 316.346 367.693 314.971L367.792 314.914C370.188 313.539 373.243 314.366 374.618 316.76C375.993 319.155 375.167 322.211 372.772 323.586L372.673 323.643C371.888 324.093 371.031 324.308 370.188 324.308Z" fill="#6582FD"/>
<path d="M345.286 338.685C343.554 338.685 341.87 337.784 340.945 336.174C339.57 333.779 340.396 330.723 342.791 329.348L342.89 329.291C345.287 327.917 348.341 328.744 349.716 331.137C351.091 333.532 350.265 336.588 347.87 337.963L347.771 338.02C346.986 338.47 346.13 338.685 345.286 338.685Z" fill="#6582FD"/>
<path d="M357.781 317.147C355.019 317.147 352.781 314.909 352.781 312.147V312.034C352.781 309.272 355.019 307.034 357.781 307.034C360.543 307.034 362.781 309.272 362.781 312.034V312.147C362.781 314.909 360.543 317.147 357.781 317.147Z" fill="#6582FD"/>
<path d="M357.781 345.901C355.019 345.901 352.781 343.663 352.781 340.901V340.788C352.781 338.026 355.019 335.788 357.781 335.788C360.543 335.788 362.781 338.026 362.781 340.788V340.901C362.781 343.662 360.543 345.901 357.781 345.901Z" fill="#6582FD"/>
</svg>
