<svg width="512" height="512" viewBox="0 0 512 512" fill="none" xmlns="http://www.w3.org/2000/svg">
<path d="M234.361 181.879H138.669C135.225 181.879 132.433 179.087 132.433 175.643V32.2878C132.433 28.8438 135.225 26.0518 138.669 26.0518H234.361C237.805 26.0518 240.597 28.8438 240.597 32.2878V175.643C240.597 179.087 237.805 181.879 234.361 181.879Z" fill="#D1DDFF"/>
<path d="M147.432 161.879V46.0508C147.432 43.2898 149.671 41.0508 152.432 41.0508H220.597C223.358 41.0508 225.597 43.2898 225.597 46.0508V161.879C225.597 164.64 223.358 166.879 220.597 166.879H152.432C149.671 166.879 147.432 164.64 147.432 161.879Z" fill="#8298FD"/>
<path d="M179.73 154.809H164.267C161.505 154.809 159.267 152.57 159.267 149.809C159.267 147.048 161.505 144.809 164.267 144.809H179.73C182.492 144.809 184.73 147.048 184.73 149.809C184.73 152.57 182.492 154.809 179.73 154.809Z" fill="#02FFB2"/>
<path d="M411.759 322.891H211.901V79.8115C211.901 74.2885 216.378 69.8115 221.901 69.8115H401.759C407.282 69.8115 411.759 74.2885 411.759 79.8115V322.891Z" fill="#DBFCED"/>
<path d="M236.901 292.89V99.8125C236.901 97.0515 239.14 94.8125 241.901 94.8125H381.759C384.52 94.8125 386.759 97.0515 386.759 99.8125V292.891C386.759 295.652 384.52 297.891 381.759 297.891H241.901C239.139 297.89 236.901 295.652 236.901 292.89Z" fill="#02FFB2"/>
<path d="M365.98 133.799V165.959L321.75 190.559L256 183.049V133.799C256 131.029 258.24 128.799 261 128.799H360.98C363.74 128.799 365.98 131.029 365.98 133.799Z" fill="#FFA7CE"/>
<path d="M365.981 165.955V195.885C365.981 198.646 363.742 200.885 360.981 200.885H261.001C258.24 200.885 256.001 198.646 256.001 195.885V183.045L278.786 160.251C280.738 158.298 283.904 158.297 285.857 160.249L300.751 175.135L334.425 141.47C336.378 139.518 339.543 139.518 341.496 141.47L365.981 165.955Z" fill="#8298FD"/>
<path d="M465.05 281.059L449.38 355.819L465.05 436.619V455.369C465.05 461.349 460.2 466.189 454.23 466.189H417.47L256 454.879L94.53 466.189H57.77C51.8 466.189 46.95 461.349 46.95 455.369V436.619L68.83 350.309L46.95 281.059V242.169C46.95 236.199 51.8 231.359 57.77 231.359H94.53L255.79 239.839L417.47 231.359H454.23C460.2 231.359 465.05 236.199 465.05 242.169V281.059Z" fill="#D1DDFF"/>
<path d="M428.28 242.169V455.369C428.28 461.349 423.44 466.189 417.47 466.189H94.53C88.56 466.189 83.72 461.349 83.72 455.369V242.169C83.72 236.199 88.56 231.359 94.53 231.359H151.63L158.32 214.529C161.59 206.289 169.55 200.879 178.42 200.879H189.85L189.83 200.889L248.85 215.119L321.75 200.889V200.879H333.58C342.45 200.879 350.41 206.289 353.68 214.529L360.37 231.359H417.47C423.44 231.359 428.28 236.199 428.28 242.169Z" fill="#B6C4FF"/>
<path d="M311.751 229.359H199.832C194.309 229.359 189.832 224.882 189.832 219.359V200.886H321.751V219.359C321.751 224.882 317.274 229.359 311.751 229.359Z" fill="white"/>
<path d="M46.955 281.061H465.045V436.622H46.955V281.061Z" fill="#6582FD"/>
<path d="M83.721 281.055H428.281V436.625H83.721V281.055Z" fill="#4369FC"/>
<path d="M300.401 436.625C287.211 444.025 271.991 448.235 255.791 448.235C239.591 448.235 224.371 444.025 211.181 436.625H300.401Z" fill="#9EAFFD"/>
<path d="M347.191 356.845C347.191 391.115 328.321 420.985 300.401 436.625H211.181C183.261 420.985 164.391 391.115 164.391 356.845C164.391 325.295 180.371 297.475 204.691 281.055C219.271 271.195 236.861 265.445 255.791 265.445C274.721 265.445 292.311 271.195 306.891 281.055C331.211 297.475 347.191 325.295 347.191 356.845Z" fill="#2D58DF"/>
<path d="M440.489 231.359H378.87V219.529C378.87 214.006 383.347 209.529 388.87 209.529H430.489C436.012 209.529 440.489 214.006 440.489 219.529V231.359Z" fill="#6582FD"/>
<path d="M97.436 231.359H65.818V219.529C65.818 214.006 70.295 209.529 75.818 209.529H87.437C92.96 209.529 97.437 214.006 97.437 219.529L97.436 231.359Z" fill="#FF7EB7"/>
<path d="M138.241 231.359H114.622V219.529C114.622 214.006 119.099 209.529 124.622 209.529H128.241C133.764 209.529 138.241 214.006 138.241 219.529V231.359Z" fill="#6582FD"/>
<path d="M289.825 117.339C287.063 117.339 284.825 115.1 284.825 112.339V112.224C284.825 109.463 287.063 107.224 289.825 107.224C292.587 107.224 294.825 109.463 294.825 112.224V112.339C294.825 115.1 292.587 117.339 289.825 117.339Z" fill="white"/>
<path d="M274.913 117.339C272.151 117.339 269.913 115.1 269.913 112.339V112.224C269.913 109.463 272.151 107.224 274.913 107.224C277.675 107.224 279.913 109.463 279.913 112.224V112.339C279.913 115.1 277.675 117.339 274.913 117.339Z" fill="white"/>
<path d="M260 117.339C257.238 117.339 255 115.1 255 112.339V112.224C255 109.463 257.238 107.224 260 107.224C262.762 107.224 265 109.463 265 112.224V112.339C265 115.1 262.762 117.339 260 117.339Z" fill="white"/>
<path d="M349.005 186.878H333.542C330.78 186.878 328.542 184.639 328.542 181.878C328.542 179.117 330.78 176.878 333.542 176.878H349.005C351.767 176.878 354.005 179.117 354.005 181.878C354.005 184.639 351.767 186.878 349.005 186.878Z" fill="#6582FD"/>
<path d="M343.112 402.013H317.436V368.311H343.112C348.635 368.311 353.112 372.788 353.112 378.311V392.013C353.112 397.536 348.634 402.013 343.112 402.013Z" fill="#B6C4FF"/>
<path d="M346.401 368.866C344.841 380.796 340.971 391.996 335.271 402.016H317.431V368.306H343.111C344.261 368.306 345.371 368.506 346.401 368.866Z" fill="#9EAFFD"/>
<path d="M255.791 428.184C306.268 428.184 347.187 387.264 347.187 336.788C347.187 286.311 306.268 245.392 255.791 245.392C205.314 245.392 164.395 286.311 164.395 336.788C164.395 387.264 205.314 428.184 255.791 428.184Z" fill="#8298FD"/>
<path d="M255.791 411.656C297.14 411.656 330.66 378.136 330.66 336.787C330.66 295.438 297.14 261.918 255.791 261.918C214.442 261.918 180.922 295.438 180.922 336.787C180.922 378.136 214.442 411.656 255.791 411.656Z" fill="#9EAFFD"/>
<path d="M255.791 403.111C292.421 403.111 322.115 373.417 322.115 336.787C322.115 300.158 292.421 270.463 255.791 270.463C219.161 270.463 189.467 300.158 189.467 336.787C189.467 373.417 219.161 403.111 255.791 403.111Z" fill="#96FFD1"/>
<path d="M255.791 374.691C276.724 374.691 293.694 357.721 293.694 336.788C293.694 315.855 276.724 298.885 255.791 298.885C234.858 298.885 217.888 315.855 217.888 336.788C217.888 357.721 234.858 374.691 255.791 374.691Z" fill="#DBFCED"/>
<path d="M164.267 266.918H104.106C101.344 266.918 99.106 264.679 99.106 261.918C99.106 259.157 101.344 256.918 104.106 256.918H164.267C167.029 256.918 169.267 259.157 169.267 261.918C169.267 264.679 167.028 266.918 164.267 266.918Z" fill="#6582FD"/>
<path d="M407.478 266.918H370.287C367.525 266.918 365.287 264.679 365.287 261.918C365.287 259.157 367.525 256.918 370.287 256.918H407.478C410.24 256.918 412.478 259.157 412.478 261.918C412.478 264.679 410.239 266.918 407.478 266.918Z" fill="#6582FD"/>
<path d="M120.432 416.402C129.465 416.402 136.788 409.08 136.788 400.046C136.788 391.013 129.465 383.69 120.432 383.69C111.399 383.69 104.076 391.013 104.076 400.046C104.076 409.08 111.399 416.402 120.432 416.402Z" fill="#FF7EB7"/>
<path d="M407.478 396.347H394.882C392.12 396.347 389.882 394.108 389.882 391.347C389.882 388.586 392.12 386.347 394.882 386.347H407.478C410.24 386.347 412.478 388.586 412.478 391.347C412.478 394.108 410.239 396.347 407.478 396.347Z" fill="#8298FD"/>
<path d="M407.478 416.657H374.2C371.438 416.657 369.2 414.418 369.2 411.657C369.2 408.896 371.438 406.657 374.2 406.657H407.478C410.24 406.657 412.478 408.896 412.478 411.657C412.478 414.418 410.239 416.657 407.478 416.657Z" fill="#8298FD"/>
<path d="M281.017 45.7989C273.842 45.7989 268.005 39.9619 268.005 32.7869C268.005 25.6119 273.842 19.7749 281.017 19.7749C288.192 19.7749 294.029 25.6119 294.029 32.7869C294.029 39.9619 288.191 45.7989 281.017 45.7989ZM281.017 29.7749C279.356 29.7749 278.005 31.1259 278.005 32.7869C278.005 34.4479 279.356 35.7989 281.017 35.7989C282.678 35.7989 284.029 34.4479 284.029 32.7869C284.028 31.1259 282.678 29.7749 281.017 29.7749Z" fill="#01EBA4"/>
<path d="M446.133 116.977C438.958 116.977 433.12 111.14 433.12 103.965C433.12 96.7901 438.958 90.9531 446.133 90.9531C453.308 90.9531 459.145 96.7901 459.145 103.965C459.145 111.14 453.308 116.977 446.133 116.977ZM446.133 100.953C444.472 100.953 443.12 102.304 443.12 103.965C443.12 105.626 444.472 106.977 446.133 106.977C447.794 106.977 449.145 105.626 449.145 103.965C449.145 102.304 447.794 100.953 446.133 100.953Z" fill="#FF7EB7"/>
<path d="M65.817 183.458C58.642 183.458 52.805 177.621 52.805 170.446C52.805 163.271 58.642 157.434 65.817 157.434C72.992 157.434 78.829 163.271 78.829 170.446C78.829 177.621 72.992 183.458 65.817 183.458ZM65.817 167.435C64.156 167.435 62.805 168.786 62.805 170.447C62.805 172.108 64.156 173.459 65.817 173.459C67.478 173.459 68.829 172.108 68.829 170.447C68.829 168.786 67.479 167.435 65.817 167.435Z" fill="#01EBA4"/>
<path d="M97.437 141.588C94.675 141.588 92.437 139.349 92.437 136.588C92.437 133.555 89.969 131.088 86.937 131.088C84.175 131.088 81.937 128.849 81.937 126.088C81.937 123.327 84.175 121.088 86.937 121.088C89.969 121.088 92.437 118.621 92.437 115.588C92.437 112.827 94.675 110.588 97.437 110.588C100.199 110.588 102.437 112.827 102.437 115.588C102.437 118.621 104.905 121.088 107.937 121.088C110.699 121.088 112.937 123.327 112.937 126.088C112.937 128.849 110.699 131.088 107.937 131.088C104.905 131.088 102.437 133.555 102.437 136.588C102.437 139.349 100.198 141.588 97.437 141.588Z" fill="#8298FD"/>
<path d="M471.289 165.309C468.527 165.309 466.289 163.07 466.289 160.309C466.289 157.276 463.821 154.809 460.789 154.809C458.027 154.809 455.789 152.57 455.789 149.809C455.789 147.048 458.027 144.809 460.789 144.809C463.821 144.809 466.289 142.342 466.289 139.309C466.289 136.548 468.527 134.309 471.289 134.309C474.051 134.309 476.289 136.548 476.289 139.309C476.289 142.342 478.757 144.809 481.789 144.809C484.551 144.809 486.789 147.048 486.789 149.809C486.789 152.57 484.551 154.809 481.789 154.809C478.757 154.809 476.289 157.276 476.289 160.309C476.289 163.07 474.051 165.309 471.289 165.309Z" fill="#8298FD"/>
</svg>
