<svg width="512" height="512" viewBox="0 0 512 512" fill="none" xmlns="http://www.w3.org/2000/svg">
<g clip-path="url(#clip0_16_2)">
<path d="M131.657 72.73H68.278C51.708 72.73 38.278 86.17 38.278 102.73V127.167C38.278 132.69 42.755 137.167 48.278 137.167H131.656L131.657 72.73Z" fill="#9FB0FE"/>
<path d="M98.28 126.73V137.17H48.28C42.76 137.17 38.28 132.69 38.28 127.17V126.73C38.28 110.17 51.71 96.73 68.28 96.73C84.85 96.73 98.28 110.17 98.28 126.73Z" fill="#B7C5FF"/>
<path d="M363.901 102.73V455.27H128.281C111.711 455.27 98.281 441.84 98.281 425.27V102.73C98.281 86.17 84.851 72.73 68.281 72.73H333.901C350.471 72.73 363.901 86.17 363.901 102.73Z" fill="white"/>
<path d="M334.413 111.381H261C258.239 111.381 256 109.143 256 106.381C256 103.619 258.239 101.381 261 101.381H334.413C337.174 101.381 339.413 103.619 339.413 106.381C339.413 109.143 337.174 111.381 334.413 111.381Z" fill="#FFA8CF"/>
<path d="M334.413 133.113H261C258.239 133.113 256 130.875 256 128.113C256 125.351 258.239 123.113 261 123.113H334.413C337.174 123.113 339.413 125.351 339.413 128.113C339.413 130.875 337.174 133.113 334.413 133.113Z" fill="#FFA8CF"/>
<path d="M334.413 154.844H261C258.239 154.844 256 152.606 256 149.844C256 147.082 258.239 144.844 261 144.844H334.413C337.174 144.844 339.413 147.082 339.413 149.844C339.413 152.606 337.174 154.844 334.413 154.844Z" fill="#FFA8CF"/>
<path d="M334.413 176.575H261C258.239 176.575 256 174.337 256 171.575C256 168.813 258.239 166.575 261 166.575H334.413C337.174 166.575 339.413 168.813 339.413 171.575C339.413 174.337 337.174 176.575 334.413 176.575Z" fill="#01ECA5"/>
<path d="M334.413 197.788H261C258.239 197.788 256 195.55 256 192.788C256 190.026 258.239 187.788 261 187.788H334.413C337.174 187.788 339.413 190.026 339.413 192.788C339.413 195.55 337.174 197.788 334.413 197.788Z" fill="#01ECA5"/>
<path d="M334.413 219.001H261C258.239 219.001 256 216.763 256 214.001C256 211.239 258.239 209.001 261 209.001H334.413C337.174 209.001 339.413 211.239 339.413 214.001C339.413 216.763 337.174 219.001 334.413 219.001Z" fill="#01ECA5"/>
<path d="M363.901 183.66V313.5L339.601 337.8C336.461 340.94 332.091 342.53 327.671 342.13L281.521 338.03L254.641 364.91C253.671 365.88 252.391 366.37 251.111 366.37C249.831 366.37 248.551 365.88 247.571 364.91C245.621 362.96 245.621 359.79 247.571 357.84L274.451 330.96L270.351 284.81C269.951 280.39 271.541 276.02 274.681 272.88L363.901 183.66Z" fill="#D2DEFF"/>
<path d="M239.661 303.894H150.248C147.487 303.894 145.248 301.656 145.248 298.894C145.248 296.132 147.487 293.894 150.248 293.894H239.661C242.422 293.894 244.661 296.132 244.661 298.894C244.661 301.656 242.422 303.894 239.661 303.894Z" fill="#8399FE"/>
<path d="M239.661 325.625H132.248C129.487 325.625 127.248 323.387 127.248 320.625C127.248 317.863 129.487 315.625 132.248 315.625H239.661C242.422 315.625 244.661 317.863 244.661 320.625C244.661 323.387 242.422 325.625 239.661 325.625Z" fill="#8399FE"/>
<path d="M239.661 347.357H132.248C129.487 347.357 127.248 345.119 127.248 342.357C127.248 339.595 129.487 337.357 132.248 337.357H239.661C242.422 337.357 244.661 339.595 244.661 342.357C244.661 345.119 242.422 347.357 239.661 347.357Z" fill="#8399FE"/>
<path d="M239.661 369.088H132.248C129.487 369.088 127.248 366.85 127.248 364.088C127.248 361.326 129.487 359.088 132.248 359.088H239.661C242.422 359.088 244.661 361.326 244.661 364.088C244.661 366.85 242.422 369.088 239.661 369.088Z" fill="#8399FE"/>
<path d="M158.278 425.27V400.833C158.278 395.31 162.755 390.833 168.278 390.833H413.898C419.421 390.833 423.898 395.31 423.898 400.833V425.27C423.898 441.83 410.468 455.27 393.898 455.27H128.278C144.848 455.27 158.278 441.83 158.278 425.27Z" fill="#D2DEFF"/>
<path d="M244.358 219.624C243.942 218.141 242.204 217.463 240.912 218.302C238.53 219.851 236.421 220.624 234.585 220.624C232.446 220.624 231.009 219.803 230.269 218.158C229.529 216.517 229.16 213.719 229.16 209.774V147.3C229.16 138.26 228.543 131.109 227.311 125.846C226.078 120.586 223.65 116.148 220.036 112.53C216.09 108.585 211.158 105.791 205.24 104.146C192.388 100.573 178.663 100.652 165.647 103.309C154.84 105.514 142.879 109.583 136.315 119.066C127.936 131.172 135.637 149.768 150.986 149.768C170.06 149.769 177.553 125.198 161.092 115.003C165.57 113.207 174.094 110.726 182.547 113.373C189.122 115.432 193.633 121.568 193.649 128.458V128.561V147.796C193.649 152.235 191.553 155.73 187.361 158.277C170.022 168.811 145.725 169.62 132.369 186.389C125.729 194.726 124.709 206.962 128.515 216.818C133.379 229.413 145 234.353 157.892 234.353C173.836 234.353 185.92 227.695 194.142 214.378C194.304 220.462 196.195 225.313 199.813 228.928C203.428 232.546 209.758 234.353 218.801 234.353C228.893 234.353 237.52 231.641 244.679 226.214C245.436 225.64 245.768 224.663 245.512 223.749L244.358 219.624ZM193.649 199.254C188.879 205.997 184.641 209.886 177.62 211.381C172.599 212.45 161.591 210.691 161.591 198.839C161.591 187.454 174.661 182.068 181.072 177.956C187.484 174.011 191.676 170.396 193.649 167.106V199.254Z" fill="#01ECA5"/>
<path d="M240.599 280.596H131.31C128.549 280.596 126.31 278.357 126.31 275.596V252.405C126.31 249.644 128.549 247.405 131.31 247.405H240.599C243.36 247.405 245.599 249.644 245.599 252.405V275.596C245.599 278.357 243.36 280.596 240.599 280.596Z" fill="#FFA8CF"/>
<path d="M340.751 369.088C343.512 369.088 345.751 366.849 345.751 364.088C345.751 361.326 343.512 359.088 340.751 359.088C337.99 359.088 335.751 361.326 335.751 364.088C335.751 366.849 337.99 369.088 340.751 369.088Z" fill="#FF7EB8"/>
<path d="M321.984 369.088C324.745 369.088 326.984 366.849 326.984 364.088C326.984 361.326 324.745 359.088 321.984 359.088C319.223 359.088 316.984 361.326 316.984 364.088C316.984 366.849 319.223 369.088 321.984 369.088Z" fill="#FF7EB8"/>
<path d="M303.217 369.088C305.978 369.088 308.217 366.849 308.217 364.088C308.217 361.326 305.978 359.088 303.217 359.088C300.456 359.088 298.217 361.326 298.217 364.088C298.217 366.849 300.456 369.088 303.217 369.088Z" fill="#FF7EB8"/>
<path d="M132.248 303.894C135.009 303.894 137.248 301.655 137.248 298.894C137.248 296.133 135.009 293.894 132.248 293.894C129.487 293.894 127.248 296.133 127.248 298.894C127.248 301.655 129.487 303.894 132.248 303.894Z" fill="#FF7EB8"/>
<path d="M419.822 83.5817C418.791 83.5817 417.76 83.2637 416.883 82.6267L413.024 79.8227L409.165 82.6267C407.413 83.8997 405.04 83.8997 403.287 82.6267C401.535 81.3537 400.801 79.0967 401.471 77.0367L402.945 72.4997L399.086 69.6947C397.334 68.4217 396.6 66.1647 397.27 64.1047C397.939 62.0437 399.859 60.6497 402.025 60.6497H406.796L408.27 56.1127C408.939 54.0517 410.859 52.6577 413.025 52.6577C415.191 52.6577 417.111 54.0527 417.78 56.1127L419.254 60.6497H424.025C426.191 60.6497 428.111 62.0447 428.78 64.1047C429.449 66.1647 428.716 68.4207 426.964 69.6947L423.105 72.4997L424.579 77.0367C425.248 79.0967 424.515 81.3527 422.763 82.6267C421.884 83.2637 420.853 83.5817 419.822 83.5817Z" fill="#FF7EB8"/>
<path d="M79.099 470.925C78.068 470.925 77.037 470.607 76.16 469.97L72.301 467.166L68.442 469.97C66.69 471.243 64.317 471.243 62.564 469.97C60.812 468.697 60.078 466.44 60.748 464.38L62.222 459.844L58.363 457.039C56.611 455.766 55.877 453.509 56.547 451.449C57.216 449.388 59.136 447.994 61.302 447.994H66.073L67.547 443.457C68.216 441.396 70.136 440.002 72.302 440.002C74.468 440.002 76.388 441.397 77.057 443.457L78.531 447.994H83.302C85.468 447.994 87.388 449.389 88.057 451.449C88.726 453.509 87.993 455.765 86.241 457.039L82.382 459.844L83.856 464.38C84.525 466.44 83.792 468.696 82.04 469.97C81.162 470.606 80.13 470.925 79.099 470.925Z" fill="#FF7EB8"/>
<path d="M363.094 49.1198C362.063 49.1198 361.032 48.8018 360.155 48.1648L356.296 45.3608L352.437 48.1648C350.685 49.4378 348.312 49.4378 346.559 48.1648C344.807 46.8918 344.073 44.6348 344.743 42.5748L346.217 38.0378L342.358 35.2328C340.606 33.9598 339.872 31.7028 340.542 29.6428C341.211 27.5818 343.131 26.1878 345.297 26.1878H350.068L351.542 21.6508C352.211 19.5898 354.131 18.1958 356.297 18.1958C358.463 18.1958 360.383 19.5908 361.052 21.6508L362.526 26.1878H367.297C369.463 26.1878 371.383 27.5828 372.052 29.6428C372.721 31.7028 371.988 33.9588 370.236 35.2328L366.377 38.0378L367.851 42.5748C368.52 44.6348 367.787 46.8908 366.035 48.1648C365.157 48.8018 364.125 49.1198 363.094 49.1198Z" fill="#01ECA5"/>
<path d="M68.278 229.501C66.998 229.501 65.719 229.013 64.742 228.036L54.242 217.536C52.289 215.584 52.289 212.418 54.242 210.466L64.742 199.966C66.695 198.013 69.86 198.013 71.813 199.966L82.313 210.466C84.266 212.418 84.266 215.584 82.313 217.536L71.813 228.036C70.837 229.013 69.558 229.501 68.278 229.501ZM64.85 214.001L68.279 217.43L71.708 214.001L68.279 210.572L64.85 214.001Z" fill="#8399FE"/>
<path d="M441.073 370.245C439.793 370.245 438.514 369.757 437.537 368.78L427.037 358.28C425.084 356.328 425.084 353.162 427.037 351.21L437.537 340.71C439.49 338.757 442.655 338.757 444.608 340.71L455.108 351.21C457.061 353.162 457.061 356.328 455.108 358.28L444.608 368.78C443.632 369.757 442.353 370.245 441.073 370.245ZM437.645 354.745L441.074 358.174L444.503 354.745L441.074 351.316L437.645 354.745Z" fill="#FF7EB8"/>
<path d="M460.276 193.127C478.388 175.015 478.202 145.534 459.716 127.656C441.621 110.155 412.621 110.94 394.82 128.741L274.683 248.878C271.542 252.019 269.955 256.39 270.349 260.814L275.034 313.448L327.668 318.133C332.092 318.527 336.464 316.939 339.604 313.799L460.276 193.127Z" fill="#FF7EB8"/>
<path d="M345.795 260.352L359.522 262.636C361.114 262.901 362.737 262.381 363.878 261.239L405.301 219.816C407.254 217.863 407.254 214.698 405.301 212.745L400.584 208.028C398.521 205.965 400.319 202.468 403.198 202.947L416.925 205.231C418.517 205.496 420.14 204.976 421.281 203.834L427.695 197.42C437.795 187.32 437.795 170.883 427.694 160.782L427.374 160.467C417.283 150.708 400.752 151.089 390.524 161.317L355.672 196.169C354.531 197.31 354.01 198.933 354.275 200.525L356.559 214.252C357.038 217.131 353.542 218.929 351.478 216.866L346.761 212.149C344.808 210.196 341.643 210.196 339.69 212.149L272.036 279.803L275.031 313.445L308.673 316.439L347.895 277.217C349.848 275.264 349.848 272.099 347.895 270.146L343.178 265.429C341.118 263.369 342.917 259.873 345.795 260.352Z" fill="#02FFB3"/>
<path d="M251.109 342.372C249.829 342.372 248.55 341.884 247.573 340.907C245.62 338.955 245.62 335.789 247.573 333.837L399.322 182.089C401.275 180.136 404.44 180.136 406.393 182.089C408.346 184.041 408.346 187.207 406.393 189.159L254.645 340.907C253.668 341.884 252.389 342.372 251.109 342.372Z" fill="#8399FE"/>
</g>
<defs>
<clipPath id="clip0_16_2">
<rect width="512" height="512" fill="white"/>
</clipPath>
</defs>
</svg>
