<svg xmlns="http://www.w3.org/2000/svg" width="98" height="28" viewBox="0 0 98 28" fill="none">
    <path d="M23.7732 27.4416H5.7965C3.37465 27.4416 1.20799 25.9485 0.363794 23.6977C-0.480407 21.4471 0.175797 18.9131 2.00888 17.3438L8.18844 12.0544H5.7965C2.59542 12.0544 0.000302959 9.48137 0.000302959 6.3073C0.000302959 3.13323 2.59542 0.559998 5.7965 0.559998H23.7732C26.1951 0.559998 28.3617 2.05303 29.2059 4.30386C30.0501 6.55447 29.3939 9.08841 27.5608 10.6578L21.3813 15.9472H23.7732C26.9745 15.9472 29.5694 18.5202 29.5694 21.6945C29.5694 24.8688 26.9743 27.4418 23.7732 27.4418V27.4416Z" fill="#FF2D55"/>
    <path d="M46.4695 18.4363L41.8953 11.9997C44.9999 11.8845 47.4814 9.36979 47.4814 6.28258C47.4814 3.19537 44.8809 0.560059 41.6732 0.560059H23.7974C20.5896 0.560059 17.9891 3.12213 17.9891 6.28258C17.9891 9.44303 20.5465 11.9607 23.7172 12.0033L19.0514 18.3675C17.173 20.9296 17.7582 24.5067 20.3587 26.3574C22.9594 28.2079 26.5899 27.6312 28.4683 25.0691L32.8016 19.1581L36.9536 25.0006C38.0836 26.5907 39.8854 27.4416 41.7167 27.4414C42.867 27.4414 44.0294 27.1054 45.043 26.4061C47.671 24.5933 48.3095 21.0249 46.4698 18.4361L46.4695 18.4363Z" fill="#FFCC00"/>
    <path d="M84.7171 26.4148C82.0548 26.4148 80.7236 25.1604 80.7236 22.4981V18.3253C80.7236 16.7126 81.466 16.0214 83.0276 16.0214H94.701C96.3137 16.0214 97.0049 16.7126 97.0049 18.3253V22.4981C97.0049 25.186 95.9042 26.4148 93.2674 26.4148H84.7171ZM75.5525 12.8982C75.5525 12.3862 75.8085 11.9254 76.3205 11.5159C78.65 9.77508 79.674 8.4951 79.674 6.77993V6.13994H77.6773C76.4741 6.13994 75.7573 5.42315 75.7573 4.27117C75.7573 3.11919 76.4741 2.4024 77.6773 2.4024H85.4339C86.6371 2.4024 87.3539 3.11919 87.3539 4.27117C87.3539 5.42315 86.6371 6.13994 85.4339 6.13994H83.514V6.77993C83.514 7.26632 83.4628 7.75271 83.3604 8.21351C85.0243 9.36549 86.2019 10.3639 86.8931 11.2599C87.1747 11.6182 87.3283 12.0022 87.3283 12.4374C87.3283 13.0006 87.0979 13.4614 86.6115 13.8454C86.1763 14.1782 85.7667 14.3574 85.3315 14.3574C84.8195 14.3574 84.3587 14.1526 83.9491 13.7174C83.4116 13.1286 82.6436 12.4374 81.6964 11.6439C80.9284 12.591 79.8788 13.5382 78.522 14.4342C78.1892 14.6646 77.8053 14.7926 77.4213 14.7926C76.8581 14.7926 76.3717 14.5366 75.9621 13.999C75.6805 13.6662 75.5525 13.2822 75.5525 12.8982ZM84.9475 21.7557C84.9475 22.4469 85.1523 22.6773 85.8435 22.6773H91.885C92.5762 22.6773 92.781 22.4725 92.781 21.7813V20.1429C92.781 19.9125 92.6274 19.7589 92.397 19.7589H85.3315C85.1011 19.7589 84.9475 19.9125 84.9475 20.1429V21.7557ZM88.0195 12.8726V3.73358C88.0195 2.4792 88.6851 1.81361 89.9394 1.81361C91.1938 1.81361 91.8594 2.4792 91.8594 3.73358V5.78155H93.421V3.47758C93.421 2.22321 94.0866 1.55762 95.341 1.55762C96.5953 1.55762 97.2609 2.22321 97.2609 3.47758V12.8726C97.2609 14.127 96.5953 14.7926 95.341 14.7926C94.0866 14.7926 93.421 14.127 93.421 12.8726V9.51909H91.8594V12.8726C91.8594 14.127 91.1938 14.7926 89.9394 14.7926C88.6851 14.7926 88.0195 14.127 88.0195 12.8726Z" fill="#111111"/>
    <path d="M61.7256 26.4148C59.0632 26.4148 57.732 25.1604 57.732 22.4981V18.3253C57.732 16.7126 58.4744 16.0214 60.036 16.0214H71.7094C73.3222 16.0214 74.0134 16.7126 74.0134 18.3253V22.4981C74.0134 25.186 72.9126 26.4148 70.2758 26.4148H61.7256ZM52.5609 12.8982C52.5609 12.3862 52.8169 11.9254 53.3289 11.5159C55.6585 9.77508 56.6824 8.4951 56.6824 6.77993V6.13994H54.6857C53.4825 6.13994 52.7657 5.42315 52.7657 4.27117C52.7657 3.11919 53.4825 2.4024 54.6857 2.4024H62.4423C63.6455 2.4024 64.3623 3.11919 64.3623 4.27117C64.3623 5.42315 63.6455 6.13994 62.4423 6.13994H60.5224V6.77993C60.5224 7.26632 60.4712 7.75271 60.3688 8.21351C62.0328 9.36549 63.2103 10.3639 63.9015 11.2599C64.1831 11.6182 64.3367 12.0022 64.3367 12.4374C64.3367 13.0006 64.1063 13.4614 63.6199 13.8454C63.1847 14.1782 62.7751 14.3574 62.3399 14.3574C61.828 14.3574 61.3672 14.1526 60.9576 13.7174C60.42 13.1286 59.652 12.4374 58.7048 11.6439C57.9368 12.591 56.8872 13.5382 55.5305 14.4342C55.1977 14.6646 54.8137 14.7926 54.4297 14.7926C53.8665 14.7926 53.3801 14.5366 52.9705 13.999C52.6889 13.6662 52.5609 13.2822 52.5609 12.8982ZM61.956 21.7557C61.956 22.4469 62.1608 22.6773 62.8519 22.6773H68.8934C69.5846 22.6773 69.7894 22.4725 69.7894 21.7813V20.1429C69.7894 19.9125 69.6358 19.7589 69.4054 19.7589H62.3399C62.1096 19.7589 61.956 19.9125 61.956 20.1429V21.7557ZM65.0279 12.8726V3.73358C65.0279 2.4792 65.6935 1.81361 66.9479 1.81361C68.2023 1.81361 68.8678 2.4792 68.8678 3.73358V5.78155H70.4294V3.47758C70.4294 2.22321 71.095 1.55762 72.3494 1.55762C73.6038 1.55762 74.2693 2.22321 74.2693 3.47758V12.8726C74.2693 14.127 73.6038 14.7926 72.3494 14.7926C71.095 14.7926 70.4294 14.127 70.4294 12.8726V9.51909H68.8678V12.8726C68.8678 14.127 68.2023 14.7926 66.9479 14.7926C65.6935 14.7926 65.0279 14.127 65.0279 12.8726Z" fill="#111111"/>
</svg>
